<svg width="1440" height="916" viewBox="0 0 1440 916" fill="none" xmlns="http://www.w3.org/2000/svg">
<line x1="1.31134e-07" y1="3.5" x2="1440" y2="3.50013" stroke="#F5F0F0" stroke-width="3" stroke-dasharray="10 10"/>
<line x1="-1.31134e-07" y1="914.5" x2="1440" y2="914.5" stroke="#F5F0F0" stroke-width="3" stroke-dasharray="10 10"/>
<line x1="1428.5" y1="5" x2="1428.5" y2="915" stroke="#F5F0F0" stroke-width="3" stroke-dasharray="10 10"/>
<line x1="11.5" y1="5" x2="11.5" y2="915" stroke="#F5F0F0" stroke-width="3" stroke-dasharray="10 10"/>
<line x1="952.5" y1="-6.55671e-08" x2="952.5" y2="910" stroke="#F5F0F0" stroke-width="3" stroke-dasharray="10 10"/>
<line x1="722.5" y1="-6.55671e-08" x2="722.5" y2="910" stroke="#F5F0F0" stroke-width="3" stroke-dasharray="10 10"/>
<line x1="225.5" y1="-6.55671e-08" x2="225.5" y2="910" stroke="#F5F0F0" stroke-width="3" stroke-dasharray="10 10"/>
<line x1="481.5" y1="6" x2="481.5" y2="916" stroke="#F5F0F0" stroke-width="3" stroke-dasharray="10 10"/>
<line x1="1190.5" y1="6" x2="1190.5" y2="916" stroke="#F5F0F0" stroke-width="3" stroke-dasharray="10 10"/>
<line x1="10" y1="458.5" x2="1427" y2="458.5" stroke="#F5F0F0" stroke-width="3" stroke-dasharray="10 10"/>
<line x1="11" y1="231.5" x2="1427" y2="231.5" stroke="#F5F0F0" stroke-width="3" stroke-dasharray="10 10"/>
<line x1="13" y1="83.5" x2="1429" y2="83.5" stroke="#F5F0F0" stroke-width="3" stroke-dasharray="10 10"/>
<line x1="10" y1="310.5" x2="1426" y2="310.5" stroke="#F5F0F0" stroke-width="3" stroke-dasharray="10 10"/>
<line y1="547.5" x2="1416" y2="547.5" stroke="#F5F0F0" stroke-width="3" stroke-dasharray="10 10"/>
<line x1="12" y1="695.5" x2="1428" y2="695.5" stroke="#F5F0F0" stroke-width="3" stroke-dasharray="10 10"/>
<path fill-rule="evenodd" clip-rule="evenodd" d="M261.73 910C255.071 905.637 249.494 898.801 245 889.491H244C240.667 893.991 237 897.928 233 901.303L233 888.423C236.774 884.92 240.107 880.276 243 874.491V775.491L233 779.062V765.504L243 761.991V727.991C243 716.009 241.261 706.345 237.784 699L286.668 699C296.223 711.261 301 727.591 301 747.991V874.491C301 886.491 304.333 892.491 311 892.491C317 892.491 321.5 887.491 324.5 877.491C327.5 867.491 329 855.991 329 842.991H343C343 867.324 339.333 885.157 332 896.491C328.655 901.965 324.061 906.468 318.218 910H261.73Z" fill="#F5F0F0"/>
<path fill-rule="evenodd" clip-rule="evenodd" d="M721 875.203C709.678 866.401 696.672 862 681.984 862C672.318 862 663.484 865.667 655.484 873C647.818 880 641.984 888.5 637.984 898.5H636.984V847C636.984 833 637.318 822 637.984 814C638.984 806 641.484 798.167 645.484 790.5C649.484 782.833 655.651 775.667 663.984 769L658.484 761C645.484 767.667 634.318 777.667 624.984 791C615.651 804.333 609.984 817.667 607.984 831C605.984 817.667 600.318 804.333 590.984 791C581.651 777.667 570.484 767.667 557.484 761L551.984 769C560.651 775.667 566.818 782.833 570.484 790.5C574.484 798.167 576.818 806 577.484 814C578.484 822 578.984 833 578.984 847V898.5H577.984C573.984 888.5 567.984 880 559.984 873C552.318 865.667 543.651 862 533.984 862C517.318 862 502.651 867.667 489.984 879C488.268 880.577 486.607 882.229 485 883.954V910H520.059C520.197 908.986 520.339 907.986 520.484 907C523.484 886.333 530.318 876 540.984 876C547.318 876 553.318 879.833 558.984 887.5C563.664 893.479 567.634 900.979 570.894 910H645.051C648.254 900.979 652.065 893.479 656.484 887.5C662.484 879.833 668.651 876 674.984 876C685.651 876 692.484 886.333 695.484 907C695.63 907.986 695.772 908.986 695.91 910H721V875.203Z" fill="#F5F0F0"/>
<path fill-rule="evenodd" clip-rule="evenodd" d="M485 338.092C496.322 346.894 509.328 351.295 524.016 351.295C533.682 351.295 542.516 347.628 550.516 340.295C558.182 333.295 564.016 324.795 568.016 314.795L569.016 314.795L569.016 366.295C569.016 380.295 568.682 391.295 568.016 399.295C567.016 407.295 564.516 415.128 560.516 422.795C556.516 430.462 550.349 437.628 542.016 444.295L547.516 452.295C560.516 445.628 571.682 435.628 581.016 422.295C590.349 408.962 596.016 395.628 598.016 382.295C600.016 395.628 605.682 408.962 615.016 422.295C624.349 435.628 635.516 445.628 648.516 452.295L654.016 444.295C645.349 437.628 639.182 430.462 635.516 422.795C631.516 415.128 629.182 407.295 628.516 399.295C627.516 391.295 627.016 380.295 627.016 366.295L627.016 314.795L628.016 314.795C632.016 324.795 638.016 333.295 646.016 340.295C653.682 347.628 662.349 351.295 672.016 351.295C688.682 351.295 703.349 345.628 716.016 334.295C717.732 332.718 719.393 331.066 721 329.341L721 314L684.114 314C680.628 329.53 674.262 337.295 665.016 337.295C658.682 337.295 652.682 333.462 647.016 325.795C644.33 322.364 641.879 318.432 639.661 314L556.523 314C554.387 318.432 552.052 322.364 549.516 325.795C543.516 333.462 537.349 337.295 531.016 337.295C521.769 337.295 515.403 329.53 511.918 314L485 314L485 338.092Z" fill="#F5F0F0"/>
<path fill-rule="evenodd" clip-rule="evenodd" d="M1282.3 70.1202C1290.74 73.5762 1300.82 75.3042 1312.54 75.3042C1324.25 75.3042 1334.33 73.5762 1342.78 70.1202C1351.22 66.6642 1357.56 62.1522 1361.78 56.5842C1366.2 50.8242 1368.41 44.7762 1368.41 38.4402C1368.41 32.6802 1366.49 27.3042 1362.65 22.3122C1358.81 17.3202 1353.62 14.8242 1347.1 14.8242C1342.49 14.8242 1338.74 16.2642 1335.86 19.1442C1333.18 21.8322 1331.83 25.1922 1331.83 29.2242C1331.83 32.6802 1332.79 35.6562 1334.71 38.1522C1336.82 40.6482 1339.22 42.4722 1341.91 43.6242C1342.87 44.0082 1343.74 44.7762 1344.5 45.9282C1345.46 46.8882 1345.94 48.0402 1345.94 49.3842C1345.94 54.5682 1343.16 58.7922 1337.59 62.0562C1332.22 65.1282 1323.86 66.6642 1312.54 66.6642C1301.21 66.6642 1292.76 65.1282 1287.19 62.0562C1281.82 58.7922 1279.13 54.5682 1279.13 49.3842C1279.13 48.0402 1279.51 46.8882 1280.28 45.9282C1281.24 44.7762 1282.2 44.0082 1283.16 43.6242C1285.85 42.4722 1288.15 40.6482 1290.07 38.1522C1292.18 35.6562 1293.24 32.6802 1293.24 29.2242C1293.24 25.1922 1291.8 21.8322 1288.92 19.1442C1286.23 16.2642 1282.58 14.8242 1277.98 14.8242C1271.45 14.8242 1266.26 17.3202 1262.42 22.3122C1258.58 27.3042 1256.66 32.6802 1256.66 38.4402C1256.66 44.7762 1258.78 50.8242 1263 56.5842C1267.42 62.1522 1273.85 66.6642 1282.3 70.1202Z" fill="#F5F0F0"/>
</svg>
