<svg width="188" height="504" viewBox="0 0 188 504" fill="none" xmlns="http://www.w3.org/2000/svg">
<g clip-path="url(#clip0_0:3)">
<path d="M163.636 24.1572H22.2417C10.0914 24.1572 0.241699 34.0069 0.241699 46.1572V468.913C0.241699 481.063 10.0914 490.913 22.2417 490.913H163.636C175.786 490.913 185.636 481.063 185.636 468.913V46.1572C185.636 34.0069 175.786 24.1572 163.636 24.1572Z" fill="#302D2D"/>
<path fill-rule="evenodd" clip-rule="evenodd" d="M184.6 2.34619C177.891 12.84 139.408 20.8855 92.9386 20.8855C46.4694 20.8855 7.9864 12.84 1.27762 2.34619C0.595347 3.4134 1.27762 32.888 1.27762 34C1.27762 35.112 41.7435 35.5 92.9386 35.5C144.134 35.5 184.6 34 184.6 34C184.6 32.888 185.282 3.4134 184.6 2.34619Z" fill="#302D2D"/>
<path fill-rule="evenodd" clip-rule="evenodd" d="M186.769 478.918C186.769 478.918 141.045 480.5 94.0292 480.5C47.0132 480.5 1.2898 478.918 1.2898 478.918C0.599505 479.985 0.241699 481.078 0.241699 482.19C0.241699 494.236 42.2318 504.001 94.0292 504.001C145.827 504.001 187.817 494.236 187.817 482.19C187.817 481.078 187.459 479.985 186.769 478.918Z" fill="#302D2D"/>
<path d="M7.05667 0.165039H3.2417C1.58484 0.165039 0.241699 1.50818 0.241699 3.16504V481.37C0.241699 483.027 1.58484 484.37 3.2417 484.37H7.05667C8.71352 484.37 10.0567 483.027 10.0567 481.37V3.16504C10.0567 1.50818 8.71352 0.165039 7.05667 0.165039Z" fill="#302D2D"/>
<path d="M184.817 2.34619H181.002C179.345 2.34619 178.002 3.68934 178.002 5.34619V483.551C178.002 485.208 179.345 486.551 181.002 486.551H184.817C186.474 486.551 187.817 485.208 187.817 483.551V5.34619C187.817 3.68934 186.474 2.34619 184.817 2.34619Z" fill="#302D2D"/>
<path d="M5.14923 475.646C6.23402 479.171 7.58678 482.702 9.2388 486.006" stroke="#302D2D" stroke-width="4" stroke-linecap="round"/>
<path d="M180.728 484.098C179.639 485.443 176.435 489.489 177.729 488.339C178.49 487.663 179.03 486.544 179.638 485.733" stroke="#302D2D" stroke-width="4" stroke-linecap="round"/>
<path d="M180.728 484.37C182.04 481.996 179.415 485.943 179.092 486.415C178.371 487.472 177.672 489.388 176.366 489.823" stroke="#302D2D" stroke-width="4" stroke-linecap="round"/>
<path d="M18.7811 1.84619H170.368" stroke="#302D2D"/>
<path d="M25.3245 8.38964L162.734 8.38963" stroke="#302D2D"/>
<path d="M44.9543 13.8423H140.923" stroke="#302D2D"/>
<path d="M112.5 393C112.5 400.088 110.455 406.484 107.174 411.095C103.892 415.707 99.4044 418.5 94.5 418.5C89.5956 418.5 85.1076 415.707 81.8259 411.095C78.545 406.484 76.5 400.088 76.5 393C76.5 385.912 78.545 379.516 81.8259 374.905C85.1076 370.293 89.5956 367.5 94.5 367.5C99.4044 367.5 103.892 370.293 107.174 374.905C110.455 379.516 112.5 385.912 112.5 393Z" fill="#F5F0F0" stroke="#302D2D"/>
<path d="M110 393C110 399.166 108.206 404.707 105.355 408.681C102.503 412.656 98.6515 415 94.5 415C90.3485 415 86.4973 412.656 83.6453 408.681C80.7944 404.707 79 399.166 79 393C79 386.834 80.7944 381.293 83.6453 377.319C86.4973 373.344 90.3485 371 94.5 371C98.6515 371 102.503 373.344 105.355 377.319C108.206 381.293 110 386.834 110 393Z" fill="#F5F0F0" stroke="#302D2D" stroke-width="2"/>
<path d="M92.1834 388.108C91.8474 388.108 91.5474 388.002 91.2834 387.79C91.0194 387.578 90.8134 387.3 90.6654 386.956C90.5174 386.608 90.4434 386.244 90.4434 385.864C90.4434 385.484 90.5174 385.122 90.6654 384.778C90.8134 384.43 91.0194 384.15 91.2834 383.938C91.5474 383.726 91.8474 383.62 92.1834 383.62C92.5194 383.62 92.8194 383.726 93.0834 383.938C93.3474 384.15 93.5534 384.43 93.7014 384.778C93.8494 385.122 93.9234 385.484 93.9234 385.864C93.9234 386.244 93.8494 386.608 93.7014 386.956C93.5534 387.3 93.3474 387.578 93.0834 387.79C92.8194 388.002 92.5194 388.108 92.1834 388.108ZM92.1834 387.916C92.5754 387.916 92.8574 387.738 93.0294 387.382C93.2014 387.022 93.2874 386.516 93.2874 385.864C93.2874 385.208 93.2014 384.702 93.0294 384.346C92.8574 383.99 92.5754 383.812 92.1834 383.812C91.7914 383.812 91.5094 383.99 91.3374 384.346C91.1654 384.702 91.0794 385.208 91.0794 385.864C91.0794 386.516 91.1654 387.022 91.3374 387.382C91.5094 387.738 91.7914 387.916 92.1834 387.916ZM94.3926 387.856H94.7046C94.7526 387.856 94.7866 387.846 94.8066 387.826C94.8266 387.806 94.8366 387.772 94.8366 387.724V384.004C94.8366 383.956 94.8266 383.922 94.8066 383.902C94.7866 383.882 94.7526 383.872 94.7046 383.872H94.3926V383.728H95.2686V387.724C95.2686 387.772 95.2786 387.806 95.2986 387.826C95.3186 387.846 95.3526 387.856 95.4006 387.856H95.7126V388H94.3926V387.856ZM97.1858 388.072C96.9978 388.072 96.8218 388.01 96.6578 387.886C96.4978 387.758 96.3698 387.584 96.2738 387.364C96.1778 387.144 96.1298 386.9 96.1298 386.632C96.1298 386.364 96.1778 386.12 96.2738 385.9C96.3698 385.68 96.4978 385.508 96.6578 385.384C96.8218 385.256 96.9978 385.192 97.1858 385.192C97.3418 385.192 97.4818 385.244 97.6058 385.348C97.7298 385.448 97.8218 385.57 97.8818 385.714L97.9058 385.708V384.004C97.9058 383.956 97.8958 383.922 97.8758 383.902C97.8558 383.882 97.8218 383.872 97.7738 383.872H97.3418V383.728H98.3378V387.724C98.3378 387.772 98.3478 387.806 98.3678 387.826C98.3878 387.846 98.4218 387.856 98.4698 387.856H98.7818V388H97.9058V387.556L97.8818 387.55C97.8058 387.71 97.7078 387.838 97.5878 387.934C97.4718 388.026 97.3378 388.072 97.1858 388.072ZM97.2518 387.904C97.3718 387.904 97.4818 387.86 97.5818 387.772C97.6818 387.684 97.7598 387.564 97.8158 387.412C97.8758 387.256 97.9058 387.088 97.9058 386.908V386.356C97.9058 386.176 97.8758 386.01 97.8158 385.858C97.7598 385.702 97.6818 385.58 97.5818 385.492C97.4818 385.404 97.3718 385.36 97.2518 385.36C97.0558 385.36 96.9078 385.47 96.8078 385.69C96.7078 385.91 96.6578 386.224 96.6578 386.632C96.6578 387.04 96.7078 387.354 96.8078 387.574C96.9078 387.794 97.0558 387.904 97.2518 387.904ZM84.0787 393.884H84.1868L84.4087 394.358C84.6247 394.738 84.9047 394.928 85.2487 394.928C85.4327 394.928 85.5687 394.884 85.6567 394.796C85.7487 394.704 85.7948 394.58 85.7948 394.424C85.7948 394.332 85.7588 394.25 85.6868 394.178C85.6188 394.102 85.5268 394.042 85.4108 393.998L84.7268 393.722C84.5108 393.634 84.3408 393.528 84.2168 393.404C84.0928 393.28 84.0308 393.122 84.0308 392.93C84.0308 392.686 84.1067 392.502 84.2587 392.378C84.4107 392.254 84.6028 392.192 84.8348 392.192C84.9508 392.192 85.0587 392.212 85.1587 392.252C85.2627 392.288 85.3487 392.332 85.4167 392.384C85.5047 392.448 85.5707 392.48 85.6147 392.48C85.6667 392.48 85.6987 392.444 85.7107 392.372L85.7227 392.252H85.8308V393.164H85.7227L85.6388 392.954C85.5468 392.726 85.4247 392.566 85.2727 392.474C85.1247 392.382 84.9767 392.336 84.8287 392.336C84.6807 392.336 84.5588 392.374 84.4628 392.45C84.3668 392.522 84.3188 392.624 84.3188 392.756C84.3188 392.872 84.3647 392.968 84.4567 393.044C84.5527 393.116 84.6828 393.186 84.8468 393.254L85.4948 393.524C85.6868 393.604 85.8308 393.702 85.9268 393.818C86.0228 393.93 86.0708 394.088 86.0708 394.292C86.0708 394.56 85.9947 394.758 85.8427 394.886C85.6907 395.01 85.4908 395.072 85.2428 395.072C85.0948 395.072 84.9747 395.052 84.8827 395.012C84.7907 394.972 84.7008 394.918 84.6128 394.85C84.5768 394.822 84.5408 394.798 84.5048 394.778C84.4688 394.758 84.4367 394.748 84.4087 394.748C84.3127 394.748 84.2467 394.816 84.2107 394.952L84.1868 395.072H84.0787V393.884ZM87.5563 395.072C87.3763 395.072 87.2263 395.008 87.1063 394.88C86.9903 394.752 86.9323 394.578 86.9323 394.358V392.432H86.4883V392.264H86.6203C86.8003 392.264 86.9403 392.168 87.0403 391.976C87.1443 391.78 87.1963 391.564 87.1963 391.328V391.112H87.3643V392.264H88.1083V392.432H87.3643V394.388C87.3643 394.508 87.3883 394.608 87.4363 394.688C87.4843 394.768 87.5663 394.808 87.6823 394.808C87.9663 394.808 88.1083 394.568 88.1083 394.088H88.2163C88.2163 394.356 88.1763 394.588 88.0963 394.784C88.0203 394.976 87.8403 395.072 87.5563 395.072ZM89.474 395.072C89.262 395.072 89.078 395.02 88.922 394.916C88.77 394.812 88.694 394.628 88.694 394.364C88.694 394.16 88.746 394 88.85 393.884C88.954 393.768 89.074 393.686 89.21 393.638C89.35 393.586 89.518 393.542 89.714 393.506L90.266 393.404V392.894C90.266 392.522 90.08 392.336 89.708 392.336C89.572 392.336 89.448 392.372 89.336 392.444C89.224 392.512 89.168 392.59 89.168 392.678C89.168 392.718 89.174 392.748 89.186 392.768C89.194 392.78 89.206 392.792 89.222 392.804C89.242 392.816 89.26 392.824 89.276 392.828C89.348 392.848 89.402 392.876 89.438 392.912C89.478 392.948 89.498 392.998 89.498 393.062C89.498 393.146 89.472 393.206 89.42 393.242C89.372 393.278 89.31 393.296 89.234 393.296C89.146 393.296 89.066 393.262 88.994 393.194C88.922 393.126 88.886 393.028 88.886 392.9C88.886 392.752 88.926 392.624 89.006 392.516C89.09 392.408 89.196 392.328 89.324 392.276C89.456 392.22 89.59 392.192 89.726 392.192C89.99 392.192 90.218 392.262 90.41 392.402C90.602 392.538 90.698 392.752 90.698 393.044V394.52C90.698 394.72 90.76 394.82 90.884 394.82C90.984 394.82 91.056 394.762 91.1 394.646C91.144 394.53 91.166 394.388 91.166 394.22H91.274C91.274 394.46 91.238 394.662 91.166 394.826C91.098 394.99 90.974 395.072 90.794 395.072C90.622 395.072 90.492 395.022 90.404 394.922C90.32 394.818 90.274 394.676 90.266 394.496L90.236 394.484C90.176 394.624 90.078 394.758 89.942 394.886C89.81 395.01 89.654 395.072 89.474 395.072ZM89.57 394.856C89.75 394.856 89.89 394.786 89.99 394.646C90.094 394.502 90.186 394.32 90.266 394.1V393.53L89.744 393.644C89.552 393.684 89.412 393.764 89.324 393.884C89.24 394 89.198 394.166 89.198 394.382C89.198 394.566 89.236 394.692 89.312 394.76C89.388 394.824 89.474 394.856 89.57 394.856ZM91.6108 394.856H91.8628C91.9108 394.856 91.9448 394.846 91.9648 394.826C91.9848 394.806 91.9948 394.772 91.9948 394.724V392.54C91.9948 392.492 91.9848 392.458 91.9648 392.438C91.9448 392.418 91.9108 392.408 91.8628 392.408H91.6108V392.264H92.4268V392.756L92.4508 392.762C92.5428 392.57 92.6568 392.428 92.7928 392.336C92.9288 392.24 93.0788 392.192 93.2428 392.192C93.5348 392.192 93.7408 392.282 93.8608 392.462C93.9848 392.642 94.0468 392.858 94.0468 393.11V394.724C94.0468 394.772 94.0568 394.806 94.0768 394.826C94.0968 394.846 94.1308 394.856 94.1788 394.856H94.4308V395H93.2308V394.856H93.4828C93.5308 394.856 93.5648 394.846 93.5848 394.826C93.6048 394.806 93.6148 394.772 93.6148 394.724V392.996C93.6148 392.82 93.5788 392.67 93.5068 392.546C93.4388 392.422 93.3208 392.36 93.1528 392.36C93.0128 392.36 92.8868 392.41 92.7748 392.51C92.6668 392.606 92.5808 392.74 92.5168 392.912C92.4568 393.08 92.4268 393.268 92.4268 393.476V394.724C92.4268 394.772 92.4368 394.806 92.4568 394.826C92.4768 394.846 92.5108 394.856 92.5588 394.856H92.8108V395H91.6108V394.856ZM95.967 395.072C95.779 395.072 95.603 395.01 95.439 394.886C95.279 394.758 95.151 394.584 95.055 394.364C94.959 394.144 94.911 393.9 94.911 393.632C94.911 393.364 94.959 393.12 95.055 392.9C95.151 392.68 95.279 392.508 95.439 392.384C95.603 392.256 95.779 392.192 95.967 392.192C96.123 392.192 96.263 392.244 96.387 392.348C96.511 392.448 96.603 392.57 96.663 392.714L96.687 392.708V391.004C96.687 390.956 96.677 390.922 96.657 390.902C96.637 390.882 96.603 390.872 96.555 390.872H96.123V390.728H97.119V394.724C97.119 394.772 97.129 394.806 97.149 394.826C97.169 394.846 97.203 394.856 97.251 394.856H97.563V395H96.687V394.556L96.663 394.55C96.587 394.71 96.489 394.838 96.369 394.934C96.253 395.026 96.119 395.072 95.967 395.072ZM96.033 394.904C96.153 394.904 96.263 394.86 96.363 394.772C96.463 394.684 96.541 394.564 96.597 394.412C96.657 394.256 96.687 394.088 96.687 393.908V393.356C96.687 393.176 96.657 393.01 96.597 392.858C96.541 392.702 96.463 392.58 96.363 392.492C96.263 392.404 96.153 392.36 96.033 392.36C95.837 392.36 95.689 392.47 95.589 392.69C95.489 392.91 95.439 393.224 95.439 393.632C95.439 394.04 95.489 394.354 95.589 394.574C95.689 394.794 95.837 394.904 96.033 394.904ZM98.8138 395.072C98.6018 395.072 98.4178 395.02 98.2618 394.916C98.1098 394.812 98.0338 394.628 98.0338 394.364C98.0338 394.16 98.0858 394 98.1898 393.884C98.2938 393.768 98.4138 393.686 98.5498 393.638C98.6898 393.586 98.8578 393.542 99.0538 393.506L99.6058 393.404V392.894C99.6058 392.522 99.4198 392.336 99.0478 392.336C98.9118 392.336 98.7878 392.372 98.6758 392.444C98.5638 392.512 98.5078 392.59 98.5078 392.678C98.5078 392.718 98.5138 392.748 98.5258 392.768C98.5338 392.78 98.5458 392.792 98.5618 392.804C98.5818 392.816 98.5998 392.824 98.6158 392.828C98.6878 392.848 98.7418 392.876 98.7778 392.912C98.8178 392.948 98.8378 392.998 98.8378 393.062C98.8378 393.146 98.8118 393.206 98.7598 393.242C98.7118 393.278 98.6498 393.296 98.5738 393.296C98.4858 393.296 98.4058 393.262 98.3338 393.194C98.2618 393.126 98.2258 393.028 98.2258 392.9C98.2258 392.752 98.2658 392.624 98.3458 392.516C98.4298 392.408 98.5358 392.328 98.6638 392.276C98.7958 392.22 98.9298 392.192 99.0658 392.192C99.3298 392.192 99.5578 392.262 99.7498 392.402C99.9418 392.538 100.038 392.752 100.038 393.044V394.52C100.038 394.72 100.1 394.82 100.224 394.82C100.324 394.82 100.396 394.762 100.44 394.646C100.484 394.53 100.506 394.388 100.506 394.22H100.614C100.614 394.46 100.578 394.662 100.506 394.826C100.438 394.99 100.314 395.072 100.134 395.072C99.9618 395.072 99.8318 395.022 99.7438 394.922C99.6598 394.818 99.6138 394.676 99.6058 394.496L99.5758 394.484C99.5158 394.624 99.4178 394.758 99.2818 394.886C99.1498 395.01 98.9938 395.072 98.8138 395.072ZM98.9098 394.856C99.0898 394.856 99.2298 394.786 99.3298 394.646C99.4338 394.502 99.5258 394.32 99.6058 394.1V393.53L99.0838 393.644C98.8918 393.684 98.7518 393.764 98.6638 393.884C98.5798 394 98.5378 394.166 98.5378 394.382C98.5378 394.566 98.5758 394.692 98.6518 394.76C98.7278 394.824 98.8138 394.856 98.9098 394.856ZM100.951 394.856H101.203C101.251 394.856 101.285 394.846 101.305 394.826C101.325 394.806 101.335 394.772 101.335 394.724V392.54C101.335 392.492 101.325 392.458 101.305 392.438C101.285 392.418 101.251 392.408 101.203 392.408H100.951V392.264H101.767V392.864L101.791 392.87C101.875 392.662 101.983 392.498 102.115 392.378C102.251 392.254 102.395 392.192 102.547 392.192C102.699 392.192 102.823 392.236 102.919 392.324C103.015 392.412 103.063 392.532 103.063 392.684C103.063 392.772 103.031 392.858 102.967 392.942C102.907 393.026 102.829 393.068 102.733 393.068C102.657 393.068 102.593 393.048 102.541 393.008C102.489 392.968 102.463 392.912 102.463 392.84C102.463 392.756 102.503 392.684 102.583 392.624C102.619 392.6 102.645 392.578 102.661 392.558C102.681 392.538 102.691 392.512 102.691 392.48C102.691 392.444 102.673 392.416 102.637 392.396C102.605 392.372 102.559 392.36 102.499 392.36C102.375 392.36 102.255 392.42 102.139 392.54C102.027 392.66 101.937 392.816 101.869 393.008C101.801 393.2 101.767 393.4 101.767 393.608V394.724C101.767 394.772 101.777 394.806 101.797 394.826C101.817 394.846 101.851 394.856 101.899 394.856H102.151V395H100.951V394.856ZM104.42 395.072C104.24 395.072 104.09 395.008 103.97 394.88C103.854 394.752 103.796 394.578 103.796 394.358V392.432H103.352V392.264H103.484C103.664 392.264 103.804 392.168 103.904 391.976C104.008 391.78 104.06 391.564 104.06 391.328V391.112H104.228V392.264H104.972V392.432H104.228V394.388C104.228 394.508 104.252 394.608 104.3 394.688C104.348 394.768 104.43 394.808 104.546 394.808C104.83 394.808 104.972 394.568 104.972 394.088H105.08C105.08 394.356 105.04 394.588 104.96 394.784C104.884 394.976 104.704 395.072 104.42 395.072ZM91.4048 401.808H91.9808C92.0888 401.808 92.1428 401.754 92.1428 401.646V398.064C92.1428 398.008 92.1308 397.968 92.1068 397.944C92.0828 397.916 92.0408 397.902 91.9808 397.902H91.7648C91.5128 397.902 91.2948 398.03 91.1108 398.286C90.9948 398.45 90.9168 398.656 90.8768 398.904C90.8368 399.148 90.8168 399.328 90.8168 399.444H90.6488L90.6968 397.728H94.1408L94.1888 399.444H94.0208C94.0208 399.328 94.0008 399.148 93.9608 398.904C93.9208 398.656 93.8428 398.45 93.7268 398.286C93.5428 398.03 93.3248 397.902 93.0728 397.902H92.8568C92.7968 397.902 92.7548 397.916 92.7308 397.944C92.7068 397.968 92.6948 398.008 92.6948 398.064V401.646C92.6948 401.754 92.7488 401.808 92.8568 401.808H93.4328V402H91.4048V401.808ZM95.688 401.808H96.264C96.372 401.808 96.426 401.754 96.426 401.646V398.064C96.426 398.008 96.414 397.968 96.39 397.944C96.366 397.916 96.324 397.902 96.264 397.902H96.048C95.796 397.902 95.578 398.03 95.394 398.286C95.278 398.45 95.2 398.656 95.16 398.904C95.12 399.148 95.1 399.328 95.1 399.444H94.932L94.98 397.728H98.424L98.472 399.444H98.304C98.304 399.328 98.284 399.148 98.244 398.904C98.204 398.656 98.126 398.45 98.01 398.286C97.826 398.03 97.608 397.902 97.356 397.902H97.14C97.08 397.902 97.038 397.916 97.014 397.944C96.99 397.968 96.978 398.008 96.978 398.064V401.646C96.978 401.754 97.032 401.808 97.14 401.808H97.716V402H95.688V401.808Z" fill="#302D2D"/>
</g>
<defs>
<clipPath id="clip0_0:3">
<rect width="188" height="504" fill="white"/>
</clipPath>
</defs>
</svg>
