<svg width="689" height="689" viewBox="0 0 689 689" fill="none" xmlns="http://www.w3.org/2000/svg">
<rect y="86" width="86.25" height="86.25" fill="#302D2D"/>
<rect x="172" y="86" width="86.25" height="86.25" fill="#302D2D"/>
<rect x="86" y="172" width="86.25" height="86.25" fill="#302D2D"/>
<rect x="86" y="345" width="86.25" height="86.25" fill="#302D2D"/>
<rect x="86" y="516" width="86.25" height="86.25" fill="#302D2D"/>
<rect x="172" y="430" width="86.25" height="86.25" fill="#302D2D"/>
<rect x="258" y="516" width="86.25" height="86.25" fill="#302D2D"/>
<rect x="430" y="516" width="86.25" height="86.25" fill="#302D2D"/>
<rect x="602" y="516" width="86.25" height="86.25" fill="#302D2D"/>
<rect x="516" y="602" width="86.25" height="86.25" fill="#302D2D"/>
<rect x="344" y="602" width="86.25" height="86.25" fill="#302D2D"/>
<rect x="172" y="602" width="86.25" height="86.25" fill="#302D2D"/>
<rect x="258" y="344" width="86.25" height="86.25" fill="#302D2D"/>
<rect x="344" y="258" width="86.25" height="86.25" fill="#302D2D"/>
<rect x="516" y="258" width="86.25" height="86.25" fill="#302D2D"/>
<rect x="430" y="344" width="86.25" height="86.25" fill="#302D2D"/>
<rect x="602" y="344" width="86.25" height="86.25" fill="#302D2D"/>
<rect x="344" y="430" width="86.25" height="86.25" fill="#302D2D"/>
<rect x="516" y="430" width="86.25" height="86.25" fill="#302D2D"/>
<rect x="172" y="258" width="86.25" height="86.25" fill="#302D2D"/>
<rect x="258" y="172" width="86.25" height="86.25" fill="#302D2D"/>
<rect x="430" y="172" width="86.25" height="86.25" fill="#302D2D"/>
<rect x="602" y="172" width="86.25" height="86.25" fill="#302D2D"/>
<rect x="344" y="86" width="86.25" height="86.25" fill="#302D2D"/>
<rect x="516" y="86" width="86.25" height="86.25" fill="#302D2D"/>
<rect x="86" width="86.25" height="86.25" fill="#302D2D"/>
<rect x="258" width="86.25" height="86.25" fill="#302D2D"/>
<rect x="430" width="86.25" height="86.25" fill="#302D2D"/>
<rect x="602" width="86.25" height="86.25" fill="#302D2D"/>
<rect y="258" width="86.25" height="86.25" fill="#302D2D"/>
<rect y="430" width="86.25" height="86.25" fill="#302D2D"/>
<rect y="516" width="86.25" height="86.25" fill="#F5F0F0" fill-opacity="0.4"/>
<rect y="602" width="86.25" height="86.25" fill="#302D2D"/>
</svg>
