<svg width="328" height="444" viewBox="0 0 328 444" fill="none" xmlns="http://www.w3.org/2000/svg">
<rect x="8" y="6" width="311" height="430" rx="10" fill="#F5F0F0"/>
<rect x="0.5" y="0.5" width="327" height="443" rx="9.5" fill="#F5F0F0" stroke="#302D2D"/>
<path d="M107.69 397.216C107.03 397.216 106.424 397.024 105.872 396.64C105.32 396.244 104.882 395.716 104.558 395.056C104.246 394.396 104.09 393.676 104.09 392.896C104.09 392.116 104.246 391.396 104.558 390.736C104.882 390.076 105.32 389.554 105.872 389.17C106.424 388.774 107.03 388.576 107.69 388.576C108.35 388.576 108.956 388.774 109.508 389.17C110.06 389.554 110.492 390.076 110.804 390.736C111.128 391.396 111.29 392.116 111.29 392.896C111.29 393.676 111.128 394.396 110.804 395.056C110.492 395.716 110.06 396.244 109.508 396.64C108.956 397.024 108.35 397.216 107.69 397.216ZM107.69 396.784C108.41 396.784 108.926 396.448 109.238 395.776C109.55 395.092 109.706 394.132 109.706 392.896C109.706 391.66 109.55 390.706 109.238 390.034C108.926 389.35 108.41 389.008 107.69 389.008C106.97 389.008 106.454 389.35 106.142 390.034C105.83 390.706 105.674 391.66 105.674 392.896C105.674 394.132 105.83 395.092 106.142 395.776C106.454 396.448 106.97 396.784 107.69 396.784ZM112.659 396.568H113.595C113.739 396.568 113.841 396.538 113.901 396.478C113.961 396.418 113.991 396.316 113.991 396.172V385.012C113.991 384.868 113.961 384.766 113.901 384.706C113.841 384.646 113.739 384.616 113.595 384.616H112.659V384.184H115.287V396.172C115.287 396.316 115.317 396.418 115.377 396.478C115.437 396.538 115.539 396.568 115.683 396.568H116.619V397H112.659V396.568ZM121.039 397.216C120.475 397.216 119.947 397.03 119.455 396.658C118.975 396.274 118.591 395.752 118.303 395.092C118.015 394.432 117.871 393.7 117.871 392.896C117.871 392.092 118.015 391.36 118.303 390.7C118.591 390.04 118.975 389.524 119.455 389.152C119.947 388.768 120.475 388.576 121.039 388.576C121.507 388.576 121.927 388.732 122.299 389.044C122.671 389.344 122.947 389.71 123.127 390.142L123.199 390.124V385.012C123.199 384.868 123.169 384.766 123.109 384.706C123.049 384.646 122.947 384.616 122.803 384.616H121.507V384.184H124.495V396.172C124.495 396.316 124.525 396.418 124.585 396.478C124.645 396.538 124.747 396.568 124.891 396.568H125.827V397H123.199V395.668L123.127 395.65C122.899 396.13 122.605 396.514 122.245 396.802C121.897 397.078 121.495 397.216 121.039 397.216ZM121.237 396.712C121.597 396.712 121.927 396.58 122.227 396.316C122.527 396.052 122.761 395.692 122.929 395.236C123.109 394.768 123.199 394.264 123.199 393.724V392.068C123.199 391.528 123.109 391.03 122.929 390.574C122.761 390.106 122.527 389.74 122.227 389.476C121.927 389.212 121.597 389.08 121.237 389.08C120.649 389.08 120.205 389.41 119.905 390.07C119.605 390.73 119.455 391.672 119.455 392.896C119.455 394.12 119.605 395.062 119.905 395.722C120.205 396.382 120.649 396.712 121.237 396.712ZM132.536 393.652H132.86L133.526 395.074C134.174 396.214 135.014 396.784 136.046 396.784C136.598 396.784 137.006 396.652 137.27 396.388C137.546 396.112 137.684 395.74 137.684 395.272C137.684 394.996 137.576 394.75 137.36 394.534C137.156 394.306 136.88 394.126 136.532 393.994L134.48 393.166C133.832 392.902 133.322 392.584 132.95 392.212C132.578 391.84 132.392 391.366 132.392 390.79C132.392 390.058 132.62 389.506 133.076 389.134C133.532 388.762 134.108 388.576 134.804 388.576C135.152 388.576 135.476 388.636 135.776 388.756C136.088 388.864 136.346 388.996 136.55 389.152C136.814 389.344 137.012 389.44 137.144 389.44C137.3 389.44 137.396 389.332 137.432 389.116L137.468 388.756H137.792V391.492H137.468L137.216 390.862C136.94 390.178 136.574 389.698 136.118 389.422C135.674 389.146 135.23 389.008 134.786 389.008C134.342 389.008 133.976 389.122 133.688 389.35C133.4 389.566 133.256 389.872 133.256 390.268C133.256 390.616 133.394 390.904 133.67 391.132C133.958 391.348 134.348 391.558 134.84 391.762L136.784 392.572C137.36 392.812 137.792 393.106 138.08 393.454C138.368 393.79 138.512 394.264 138.512 394.876C138.512 395.68 138.284 396.274 137.828 396.658C137.372 397.03 136.772 397.216 136.028 397.216C135.584 397.216 135.224 397.156 134.948 397.036C134.672 396.916 134.402 396.754 134.138 396.55C134.03 396.466 133.922 396.394 133.814 396.334C133.706 396.274 133.61 396.244 133.526 396.244C133.238 396.244 133.04 396.448 132.932 396.856L132.86 397.216H132.536V393.652ZM142.969 397.216C142.429 397.216 141.979 397.024 141.619 396.64C141.271 396.256 141.097 395.734 141.097 395.074V389.296H139.765V388.792H140.161C140.701 388.792 141.121 388.504 141.421 387.928C141.733 387.34 141.889 386.692 141.889 385.984V385.336H142.393V388.792H144.625V389.296H142.393V395.164C142.393 395.524 142.465 395.824 142.609 396.064C142.753 396.304 142.999 396.424 143.347 396.424C144.199 396.424 144.625 395.704 144.625 394.264H144.949C144.949 395.068 144.829 395.764 144.589 396.352C144.361 396.928 143.821 397.216 142.969 397.216ZM148.722 397.216C148.086 397.216 147.534 397.06 147.066 396.748C146.61 396.436 146.382 395.884 146.382 395.092C146.382 394.48 146.538 394 146.85 393.652C147.162 393.304 147.522 393.058 147.93 392.914C148.35 392.758 148.854 392.626 149.442 392.518L151.098 392.212V390.682C151.098 389.566 150.54 389.008 149.424 389.008C149.016 389.008 148.644 389.116 148.308 389.332C147.972 389.536 147.804 389.77 147.804 390.034C147.804 390.154 147.822 390.244 147.858 390.304C147.882 390.34 147.918 390.376 147.966 390.412C148.026 390.448 148.08 390.472 148.128 390.484C148.344 390.544 148.506 390.628 148.614 390.736C148.734 390.844 148.794 390.994 148.794 391.186C148.794 391.438 148.716 391.618 148.56 391.726C148.416 391.834 148.23 391.888 148.002 391.888C147.738 391.888 147.498 391.786 147.282 391.582C147.066 391.378 146.958 391.084 146.958 390.7C146.958 390.256 147.078 389.872 147.318 389.548C147.57 389.224 147.888 388.984 148.272 388.828C148.668 388.66 149.07 388.576 149.478 388.576C150.27 388.576 150.954 388.786 151.53 389.206C152.106 389.614 152.394 390.256 152.394 391.132V395.56C152.394 396.16 152.58 396.46 152.952 396.46C153.252 396.46 153.468 396.286 153.6 395.938C153.732 395.59 153.798 395.164 153.798 394.66H154.122C154.122 395.38 154.014 395.986 153.798 396.478C153.594 396.97 153.222 397.216 152.682 397.216C152.166 397.216 151.776 397.066 151.512 396.766C151.26 396.454 151.122 396.028 151.098 395.488L151.008 395.452C150.828 395.872 150.534 396.274 150.126 396.658C149.73 397.03 149.262 397.216 148.722 397.216ZM149.01 396.568C149.55 396.568 149.97 396.358 150.27 395.938C150.582 395.506 150.858 394.96 151.098 394.3V392.59L149.532 392.932C148.956 393.052 148.536 393.292 148.272 393.652C148.02 394 147.894 394.498 147.894 395.146C147.894 395.698 148.008 396.076 148.236 396.28C148.464 396.472 148.722 396.568 149.01 396.568ZM155.132 396.568H155.888C156.032 396.568 156.134 396.538 156.194 396.478C156.254 396.418 156.284 396.316 156.284 396.172V389.62C156.284 389.476 156.254 389.374 156.194 389.314C156.134 389.254 156.032 389.224 155.888 389.224H155.132V388.792H157.58V390.268L157.652 390.286C157.928 389.71 158.27 389.284 158.678 389.008C159.086 388.72 159.536 388.576 160.028 388.576C160.904 388.576 161.522 388.846 161.882 389.386C162.254 389.926 162.44 390.574 162.44 391.33V396.172C162.44 396.316 162.47 396.418 162.53 396.478C162.59 396.538 162.692 396.568 162.836 396.568H163.592V397H159.992V396.568H160.748C160.892 396.568 160.994 396.538 161.054 396.478C161.114 396.418 161.144 396.316 161.144 396.172V390.988C161.144 390.46 161.036 390.01 160.82 389.638C160.616 389.266 160.262 389.08 159.758 389.08C159.338 389.08 158.96 389.23 158.624 389.53C158.3 389.818 158.042 390.22 157.85 390.736C157.67 391.24 157.58 391.804 157.58 392.428V396.172C157.58 396.316 157.61 396.418 157.67 396.478C157.73 396.538 157.832 396.568 157.976 396.568H158.732V397H155.132V396.568ZM168.201 397.216C167.637 397.216 167.109 397.03 166.617 396.658C166.137 396.274 165.753 395.752 165.465 395.092C165.177 394.432 165.033 393.7 165.033 392.896C165.033 392.092 165.177 391.36 165.465 390.7C165.753 390.04 166.137 389.524 166.617 389.152C167.109 388.768 167.637 388.576 168.201 388.576C168.669 388.576 169.089 388.732 169.461 389.044C169.833 389.344 170.109 389.71 170.289 390.142L170.361 390.124V385.012C170.361 384.868 170.331 384.766 170.271 384.706C170.211 384.646 170.109 384.616 169.965 384.616H168.669V384.184H171.657V396.172C171.657 396.316 171.687 396.418 171.747 396.478C171.807 396.538 171.909 396.568 172.053 396.568H172.989V397H170.361V395.668L170.289 395.65C170.061 396.13 169.767 396.514 169.407 396.802C169.059 397.078 168.657 397.216 168.201 397.216ZM168.399 396.712C168.759 396.712 169.089 396.58 169.389 396.316C169.689 396.052 169.923 395.692 170.091 395.236C170.271 394.768 170.361 394.264 170.361 393.724V392.068C170.361 391.528 170.271 391.03 170.091 390.574C169.923 390.106 169.689 389.74 169.389 389.476C169.089 389.212 168.759 389.08 168.399 389.08C167.811 389.08 167.367 389.41 167.067 390.07C166.767 390.73 166.617 391.672 166.617 392.896C166.617 394.12 166.767 395.062 167.067 395.722C167.367 396.382 167.811 396.712 168.399 396.712ZM176.741 397.216C176.105 397.216 175.553 397.06 175.085 396.748C174.629 396.436 174.401 395.884 174.401 395.092C174.401 394.48 174.557 394 174.869 393.652C175.181 393.304 175.541 393.058 175.949 392.914C176.369 392.758 176.873 392.626 177.461 392.518L179.117 392.212V390.682C179.117 389.566 178.559 389.008 177.443 389.008C177.035 389.008 176.663 389.116 176.327 389.332C175.991 389.536 175.823 389.77 175.823 390.034C175.823 390.154 175.841 390.244 175.877 390.304C175.901 390.34 175.937 390.376 175.985 390.412C176.045 390.448 176.099 390.472 176.147 390.484C176.363 390.544 176.525 390.628 176.633 390.736C176.753 390.844 176.813 390.994 176.813 391.186C176.813 391.438 176.735 391.618 176.579 391.726C176.435 391.834 176.249 391.888 176.021 391.888C175.757 391.888 175.517 391.786 175.301 391.582C175.085 391.378 174.977 391.084 174.977 390.7C174.977 390.256 175.097 389.872 175.337 389.548C175.589 389.224 175.907 388.984 176.291 388.828C176.687 388.66 177.089 388.576 177.497 388.576C178.289 388.576 178.973 388.786 179.549 389.206C180.125 389.614 180.413 390.256 180.413 391.132V395.56C180.413 396.16 180.599 396.46 180.971 396.46C181.271 396.46 181.487 396.286 181.619 395.938C181.751 395.59 181.817 395.164 181.817 394.66H182.141C182.141 395.38 182.033 395.986 181.817 396.478C181.613 396.97 181.241 397.216 180.701 397.216C180.185 397.216 179.795 397.066 179.531 396.766C179.279 396.454 179.141 396.028 179.117 395.488L179.027 395.452C178.847 395.872 178.553 396.274 178.145 396.658C177.749 397.03 177.281 397.216 176.741 397.216ZM177.029 396.568C177.569 396.568 177.989 396.358 178.289 395.938C178.601 395.506 178.877 394.96 179.117 394.3V392.59L177.551 392.932C176.975 393.052 176.555 393.292 176.291 393.652C176.039 394 175.913 394.498 175.913 395.146C175.913 395.698 176.027 396.076 176.255 396.28C176.483 396.472 176.741 396.568 177.029 396.568ZM183.152 396.568H183.908C184.052 396.568 184.154 396.538 184.214 396.478C184.274 396.418 184.304 396.316 184.304 396.172V389.62C184.304 389.476 184.274 389.374 184.214 389.314C184.154 389.254 184.052 389.224 183.908 389.224H183.152V388.792H185.6V390.592L185.672 390.61C185.924 389.986 186.248 389.494 186.644 389.134C187.052 388.762 187.484 388.576 187.94 388.576C188.396 388.576 188.768 388.708 189.056 388.972C189.344 389.236 189.488 389.596 189.488 390.052C189.488 390.316 189.392 390.574 189.2 390.826C189.02 391.078 188.786 391.204 188.498 391.204C188.27 391.204 188.078 391.144 187.922 391.024C187.766 390.904 187.688 390.736 187.688 390.52C187.688 390.268 187.808 390.052 188.048 389.872C188.156 389.8 188.234 389.734 188.282 389.674C188.342 389.614 188.372 389.536 188.372 389.44C188.372 389.332 188.318 389.248 188.21 389.188C188.114 389.116 187.976 389.08 187.796 389.08C187.424 389.08 187.064 389.26 186.716 389.62C186.38 389.98 186.11 390.448 185.906 391.024C185.702 391.6 185.6 392.2 185.6 392.824V396.172C185.6 396.316 185.63 396.418 185.69 396.478C185.75 396.538 185.852 396.568 185.996 396.568H186.752V397H183.152V396.568ZM193.559 397.216C193.019 397.216 192.569 397.024 192.209 396.64C191.861 396.256 191.687 395.734 191.687 395.074V389.296H190.355V388.792H190.751C191.291 388.792 191.711 388.504 192.011 387.928C192.323 387.34 192.479 386.692 192.479 385.984V385.336H192.983V388.792H195.215V389.296H192.983V395.164C192.983 395.524 193.055 395.824 193.199 396.064C193.343 396.304 193.589 396.424 193.937 396.424C194.789 396.424 195.215 395.704 195.215 394.264H195.539C195.539 395.068 195.419 395.764 195.179 396.352C194.951 396.928 194.411 397.216 193.559 397.216ZM204.896 397.216C204.356 397.216 203.906 397.024 203.546 396.64C203.198 396.256 203.024 395.734 203.024 395.074V389.296H201.692V388.792H202.088C202.628 388.792 203.048 388.504 203.348 387.928C203.66 387.34 203.816 386.692 203.816 385.984V385.336H204.32V388.792H206.552V389.296H204.32V395.164C204.32 395.524 204.392 395.824 204.536 396.064C204.68 396.304 204.926 396.424 205.274 396.424C206.126 396.424 206.552 395.704 206.552 394.264H206.876C206.876 395.068 206.756 395.764 206.516 396.352C206.288 396.928 205.748 397.216 204.896 397.216ZM211.189 397.216C210.649 397.216 210.199 397.024 209.839 396.64C209.491 396.256 209.317 395.734 209.317 395.074V389.296H207.985V388.792H208.381C208.921 388.792 209.341 388.504 209.641 387.928C209.953 387.34 210.109 386.692 210.109 385.984V385.336H210.613V388.792H212.845V389.296H210.613V395.164C210.613 395.524 210.685 395.824 210.829 396.064C210.973 396.304 211.219 396.424 211.567 396.424C212.419 396.424 212.845 395.704 212.845 394.264H213.169C213.169 395.068 213.049 395.764 212.809 396.352C212.581 396.928 212.041 397.216 211.189 397.216ZM143.42 414C143.42 413.487 143.518 412.978 143.714 412.474C143.91 411.97 144.348 411.429 145.03 410.85L146.374 409.702C146.812 409.338 147.144 408.937 147.368 408.498C147.601 408.059 147.718 407.555 147.718 406.986C147.718 406.258 147.54 405.698 147.186 405.306C146.831 404.905 146.327 404.704 145.674 404.704C145.375 404.704 145.086 404.774 144.806 404.914C144.535 405.054 144.311 405.241 144.134 405.474C143.966 405.698 143.882 405.931 143.882 406.174C143.882 406.398 143.933 406.566 144.036 406.678C144.138 406.781 144.278 406.846 144.456 406.874C144.754 406.921 144.974 407.023 145.114 407.182C145.263 407.331 145.338 407.513 145.338 407.728C145.338 407.905 145.272 408.055 145.142 408.176C145.02 408.297 144.848 408.358 144.624 408.358C144.241 408.358 143.924 408.209 143.672 407.91C143.42 407.602 143.294 407.201 143.294 406.706C143.294 406.23 143.41 405.801 143.644 405.418C143.886 405.035 144.218 404.737 144.638 404.522C145.067 404.307 145.543 404.2 146.066 404.2C146.663 404.2 147.2 404.312 147.676 404.536C148.152 404.76 148.525 405.082 148.796 405.502C149.066 405.922 149.202 406.417 149.202 406.986C149.202 407.555 149.001 408.069 148.6 408.526C148.198 408.983 147.671 409.445 147.018 409.912L145.646 410.976C145.254 411.247 144.95 411.508 144.736 411.76C144.53 412.003 144.428 412.255 144.428 412.516C144.428 412.74 144.572 412.852 144.862 412.852H147.508C147.881 412.852 148.142 412.773 148.292 412.614C148.45 412.446 148.558 412.213 148.614 411.914L148.768 411.088H149.076L148.88 414H143.42ZM154.439 414.224C153.776 414.224 153.188 413.986 152.675 413.51C152.162 413.034 151.76 412.413 151.471 411.648C151.191 410.873 151.051 410.061 151.051 409.212C151.051 408.363 151.191 407.555 151.471 406.79C151.76 406.015 152.162 405.39 152.675 404.914C153.188 404.438 153.776 404.2 154.439 404.2C155.092 404.2 155.676 404.438 156.189 404.914C156.712 405.39 157.113 406.015 157.393 406.79C157.682 407.555 157.827 408.363 157.827 409.212C157.827 410.061 157.682 410.873 157.393 411.648C157.113 412.413 156.712 413.034 156.189 413.51C155.676 413.986 155.092 414.224 154.439 414.224ZM154.439 413.776C155.214 413.776 155.722 413.337 155.965 412.46C156.217 411.583 156.343 410.5 156.343 409.212C156.343 407.924 156.217 406.841 155.965 405.964C155.722 405.087 155.214 404.648 154.439 404.648C153.664 404.648 153.151 405.087 152.899 405.964C152.656 406.832 152.535 407.915 152.535 409.212C152.535 410.509 152.656 411.597 152.899 412.474C153.151 413.342 153.664 413.776 154.439 413.776ZM159.662 414C159.662 413.487 159.76 412.978 159.956 412.474C160.152 411.97 160.591 411.429 161.272 410.85L162.616 409.702C163.055 409.338 163.386 408.937 163.61 408.498C163.843 408.059 163.96 407.555 163.96 406.986C163.96 406.258 163.783 405.698 163.428 405.306C163.073 404.905 162.569 404.704 161.916 404.704C161.617 404.704 161.328 404.774 161.048 404.914C160.777 405.054 160.553 405.241 160.376 405.474C160.208 405.698 160.124 405.931 160.124 406.174C160.124 406.398 160.175 406.566 160.278 406.678C160.381 406.781 160.521 406.846 160.698 406.874C160.997 406.921 161.216 407.023 161.356 407.182C161.505 407.331 161.58 407.513 161.58 407.728C161.58 407.905 161.515 408.055 161.384 408.176C161.263 408.297 161.09 408.358 160.866 408.358C160.483 408.358 160.166 408.209 159.914 407.91C159.662 407.602 159.536 407.201 159.536 406.706C159.536 406.23 159.653 405.801 159.886 405.418C160.129 405.035 160.46 404.737 160.88 404.522C161.309 404.307 161.785 404.2 162.308 404.2C162.905 404.2 163.442 404.312 163.918 404.536C164.394 404.76 164.767 405.082 165.038 405.502C165.309 405.922 165.444 406.417 165.444 406.986C165.444 407.555 165.243 408.069 164.842 408.526C164.441 408.983 163.913 409.445 163.26 409.912L161.888 410.976C161.496 411.247 161.193 411.508 160.978 411.76C160.773 412.003 160.67 412.255 160.67 412.516C160.67 412.74 160.815 412.852 161.104 412.852H163.75C164.123 412.852 164.385 412.773 164.534 412.614C164.693 412.446 164.8 412.213 164.856 411.914L165.01 411.088H165.318L165.122 414H159.662ZM168.301 413.552H169.645C169.785 413.552 169.883 413.524 169.939 413.468C170.004 413.412 170.037 413.319 170.037 413.188V406.314H168.301V405.81H169.071C169.575 405.81 169.981 405.675 170.289 405.404C170.606 405.133 170.802 404.807 170.877 404.424H171.325V413.188C171.325 413.319 171.353 413.412 171.409 413.468C171.474 413.524 171.577 413.552 171.717 413.552H173.061V414H168.301V413.552Z" fill="#302D2D"/>
<path d="M92.0822 94.528H95.3022C95.7315 94.528 96.0229 94.4513 96.1762 94.298C96.3295 94.114 96.4062 93.8227 96.4062 93.424V65.824C96.4062 65.3947 96.3295 65.1033 96.1762 64.95C96.0229 64.7967 95.7315 64.72 95.3022 64.72H92.0822V63.248H109.194C111.74 63.248 114.07 63.938 116.186 65.318C118.302 66.6673 119.974 68.5687 121.2 71.022C122.458 73.4447 123.086 76.22 123.086 79.348C123.086 82.476 122.458 85.3127 121.2 87.858C119.974 90.4033 118.287 92.3967 116.14 93.838C114.024 95.2793 111.709 96 109.194 96H92.0822V94.528ZM108.412 94.528C110.375 94.528 112 93.8533 113.288 92.504C114.607 91.124 115.266 89.1307 115.266 86.524V72.724C115.266 70.1173 114.607 68.1393 113.288 66.79C112 65.41 110.375 64.72 108.412 64.72H104.318C103.92 64.72 103.628 64.7967 103.444 64.95C103.291 65.1033 103.214 65.3947 103.214 65.824V93.424C103.214 93.8227 103.291 94.114 103.444 94.298C103.628 94.4513 103.92 94.528 104.318 94.528H108.412ZM140.94 96.552C139.254 96.552 137.812 96.138 136.616 95.31C135.451 94.482 134.868 93.0867 134.868 91.124C134.868 89.1307 135.589 87.5667 137.03 86.432C138.502 85.2667 140.358 84.3007 142.596 83.534L146 82.338V79.21C146 77.646 145.678 76.5113 145.034 75.806C144.39 75.1007 143.562 74.748 142.55 74.748C141.692 74.748 140.94 74.9473 140.296 75.346C139.683 75.714 139.376 76.2353 139.376 76.91C139.376 77.094 139.422 77.324 139.514 77.6C139.637 77.8453 139.836 78.06 140.112 78.244C140.572 78.52 140.894 78.8113 141.078 79.118C141.293 79.4247 141.4 79.8233 141.4 80.314C141.4 81.05 141.124 81.6327 140.572 82.062C140.051 82.4607 139.468 82.66 138.824 82.66C138.027 82.66 137.337 82.3993 136.754 81.878C136.202 81.326 135.926 80.544 135.926 79.532C135.926 78.3667 136.279 77.3393 136.984 76.45C137.69 75.53 138.594 74.84 139.698 74.38C140.802 73.8893 141.922 73.644 143.056 73.644C145.264 73.644 147.196 74.242 148.852 75.438C150.508 76.6033 151.336 78.474 151.336 81.05V92.688C151.336 93.792 151.643 94.344 152.256 94.344C152.808 94.344 153.222 93.884 153.498 92.964C153.774 92.044 153.912 90.986 153.912 89.79H155.2C155.2 92.0287 154.863 93.6693 154.188 94.712C153.851 95.264 153.376 95.7087 152.762 96.046C152.149 96.3833 151.444 96.552 150.646 96.552C149.389 96.552 148.438 96.368 147.794 96C147.15 95.6013 146.614 94.9573 146.184 94.068H146.092C144.866 95.724 143.148 96.552 140.94 96.552ZM143.194 94.712C144.39 94.712 145.326 94.0373 146 92.688V83.58L143.424 84.5C142.412 84.868 141.661 85.5733 141.17 86.616C140.71 87.628 140.48 88.9927 140.48 90.71C140.48 92.2127 140.756 93.2553 141.308 93.838C141.86 94.4207 142.489 94.712 143.194 94.712ZM165.312 94.896H167.06C167.336 94.896 167.52 94.85 167.612 94.758C167.734 94.6353 167.796 94.436 167.796 94.16V76.036C167.796 75.76 167.734 75.576 167.612 75.484C167.52 75.3613 167.336 75.3 167.06 75.3H165.312V74.196H173.132V78.75L173.362 78.796C173.852 77.3853 174.542 76.174 175.432 75.162C176.352 74.15 177.364 73.644 178.468 73.644C179.572 73.644 180.476 74.0427 181.182 74.84C181.887 75.6373 182.24 76.6493 182.24 77.876C182.24 79.0107 181.918 79.992 181.274 80.82C180.63 81.6173 179.832 82.016 178.882 82.016C178.054 82.016 177.348 81.7707 176.766 81.28C176.183 80.7587 175.892 80.13 175.892 79.394C175.892 78.658 176.26 77.8607 176.996 77.002C177.425 76.5113 177.64 76.1587 177.64 75.944C177.64 75.6373 177.471 75.484 177.134 75.484C176.52 75.484 175.892 75.9287 175.248 76.818C174.634 77.7073 174.128 78.8727 173.73 80.314C173.331 81.7553 173.132 83.2887 173.132 84.914V94.16C173.132 94.436 173.178 94.6353 173.27 94.758C173.392 94.85 173.592 94.896 173.868 94.896H175.34V96H165.312V94.896ZM191.973 94.896H194.549C194.825 94.896 195.009 94.85 195.101 94.758C195.224 94.6353 195.285 94.436 195.285 94.16V65.088C195.285 64.812 195.239 64.628 195.147 64.536C195.055 64.4133 194.856 64.352 194.549 64.352H191.973V63.248H200.621V86.202L206.601 78.704C207.214 77.9373 207.521 77.2473 207.521 76.634C207.521 76.2353 207.383 75.9287 207.107 75.714C206.862 75.4687 206.57 75.346 206.233 75.346H204.853V74.196H213.639V75.346H212.581C211.845 75.346 211.17 75.5913 210.557 76.082C209.974 76.542 209.284 77.2933 208.487 78.336L205.773 81.74L212.949 93.378C213.256 93.8993 213.532 94.2827 213.777 94.528C214.022 94.7733 214.314 94.896 214.651 94.896H215.617V96H204.991V94.896H205.819C206.095 94.896 206.356 94.8193 206.601 94.666C206.846 94.482 206.969 94.2213 206.969 93.884C206.969 93.148 206.754 92.4427 206.325 91.768L202.599 85.696L200.621 88.134V94.16C200.621 94.436 200.682 94.6353 200.805 94.758C200.928 94.85 201.142 94.896 201.449 94.896H203.105V96H191.973V94.896ZM40.2113 142.528H41.7753C42.6953 142.528 43.5079 142.175 44.2133 141.47C44.9186 140.734 45.4553 139.845 45.8233 138.802L55.5293 110.42H57.4613L67.3053 140.182C67.8266 141.746 68.7313 142.528 70.0193 142.528H71.8593V144H55.7133V142.528H59.0253C59.3933 142.528 59.6846 142.39 59.8993 142.114C60.1446 141.807 60.2673 141.455 60.2673 141.056C60.2673 140.719 60.1753 140.274 59.9913 139.722L58.5193 135.306H48.8593L47.8933 138.112C47.5559 138.971 47.3873 139.753 47.3873 140.458C47.3873 141.01 47.6019 141.501 48.0313 141.93C48.4913 142.329 49.0739 142.528 49.7793 142.528H51.9413V144H40.2113V142.528ZM49.4573 133.604H57.9673L53.7813 120.954L49.4573 133.604ZM90.5708 144.552C88.6695 144.552 86.9675 144.046 85.4648 143.034C83.9928 141.991 82.8428 140.596 82.0148 138.848C81.1868 137.1 80.7728 135.183 80.7728 133.098C80.7728 131.013 81.1715 129.096 81.9688 127.348C82.7968 125.6 83.9468 124.22 85.4188 123.208C86.9215 122.165 88.6082 121.644 90.4788 121.644C91.9508 121.644 93.1775 121.951 94.1588 122.564C95.1708 123.177 95.9222 123.959 96.4128 124.91C96.9035 125.861 97.1488 126.842 97.1488 127.854C97.1488 128.958 96.8115 129.924 96.1368 130.752C95.4622 131.549 94.6495 131.948 93.6988 131.948C92.9935 131.948 92.4108 131.749 91.9508 131.35C91.4908 130.921 91.2608 130.353 91.2608 129.648C91.2608 128.82 91.7515 128.007 92.7328 127.21C93.4688 126.597 93.8368 125.968 93.8368 125.324C93.8368 124.68 93.5915 124.097 93.1008 123.576C92.6408 123.024 91.8895 122.748 90.8468 122.748C89.4055 122.748 88.3475 123.668 87.6728 125.508C86.9982 127.317 86.6608 129.847 86.6608 133.098C86.6608 134.723 86.6915 135.996 86.7528 136.916C86.8142 137.805 86.9522 138.649 87.1668 139.446C87.4428 140.581 87.9642 141.485 88.7308 142.16C89.5282 142.835 90.4482 143.172 91.4908 143.172C92.9935 143.172 94.2048 142.513 95.1248 141.194C96.0448 139.875 96.5968 138.327 96.7808 136.548H97.9768C97.7928 138.664 97.1028 140.535 95.9068 142.16C94.7108 143.755 92.9322 144.552 90.5708 144.552ZM115.63 144.552C113.944 144.552 112.502 144.138 111.306 143.31C110.141 142.482 109.558 141.087 109.558 139.124C109.558 137.131 110.279 135.567 111.72 134.432C113.192 133.267 115.048 132.301 117.286 131.534L120.69 130.338V127.21C120.69 125.646 120.368 124.511 119.724 123.806C119.08 123.101 118.252 122.748 117.24 122.748C116.382 122.748 115.63 122.947 114.986 123.346C114.373 123.714 114.066 124.235 114.066 124.91C114.066 125.094 114.112 125.324 114.204 125.6C114.327 125.845 114.526 126.06 114.802 126.244C115.262 126.52 115.584 126.811 115.768 127.118C115.983 127.425 116.09 127.823 116.09 128.314C116.09 129.05 115.814 129.633 115.262 130.062C114.741 130.461 114.158 130.66 113.514 130.66C112.717 130.66 112.027 130.399 111.444 129.878C110.892 129.326 110.616 128.544 110.616 127.532C110.616 126.367 110.969 125.339 111.674 124.45C112.38 123.53 113.284 122.84 114.388 122.38C115.492 121.889 116.612 121.644 117.746 121.644C119.954 121.644 121.886 122.242 123.542 123.438C125.198 124.603 126.026 126.474 126.026 129.05V140.688C126.026 141.792 126.333 142.344 126.946 142.344C127.498 142.344 127.912 141.884 128.188 140.964C128.464 140.044 128.602 138.986 128.602 137.79H129.89C129.89 140.029 129.553 141.669 128.878 142.712C128.541 143.264 128.066 143.709 127.452 144.046C126.839 144.383 126.134 144.552 125.336 144.552C124.079 144.552 123.128 144.368 122.484 144C121.84 143.601 121.304 142.957 120.874 142.068H120.782C119.556 143.724 117.838 144.552 115.63 144.552ZM117.884 142.712C119.08 142.712 120.016 142.037 120.69 140.688V131.58L118.114 132.5C117.102 132.868 116.351 133.573 115.86 134.616C115.4 135.628 115.17 136.993 115.17 138.71C115.17 140.213 115.446 141.255 115.998 141.838C116.55 142.421 117.179 142.712 117.884 142.712ZM148.65 144.552C147.055 144.552 145.629 144.015 144.372 142.942C143.114 141.838 142.133 140.412 141.428 138.664C140.722 136.885 140.37 135.03 140.37 133.098C140.37 131.135 140.707 129.28 141.382 127.532C142.056 125.784 143.007 124.373 144.234 123.3C145.46 122.196 146.871 121.644 148.466 121.644C149.447 121.644 150.321 121.935 151.088 122.518C151.854 123.101 152.483 123.898 152.974 124.91L153.25 124.818V113.088C153.25 112.812 153.188 112.628 153.066 112.536C152.974 112.413 152.79 112.352 152.514 112.352H149.938V111.248H158.586V142.16C158.586 142.436 158.632 142.635 158.724 142.758C158.846 142.85 159.046 142.896 159.322 142.896H161.898V144H153.25V141.332H152.974C152.575 142.191 151.992 142.942 151.226 143.586C150.49 144.23 149.631 144.552 148.65 144.552ZM149.294 143.08C149.999 143.08 150.643 142.651 151.226 141.792C151.839 140.903 152.33 139.707 152.698 138.204C153.066 136.701 153.25 135.045 153.25 133.236C153.25 131.028 153.035 129.157 152.606 127.624C152.176 126.091 151.655 124.956 151.042 124.22C150.428 123.484 149.846 123.116 149.294 123.116C147.27 123.116 146.258 126.443 146.258 133.098C146.258 139.753 147.27 143.08 149.294 143.08ZM182.28 144.552C180.378 144.552 178.676 144.046 177.174 143.034C175.702 141.991 174.552 140.596 173.724 138.848C172.896 137.1 172.482 135.183 172.482 133.098C172.482 130.951 172.896 129.004 173.724 127.256C174.552 125.508 175.671 124.143 177.082 123.162C178.523 122.15 180.087 121.644 181.774 121.644C183.644 121.644 185.254 122.319 186.604 123.668C187.953 124.987 188.842 126.735 189.272 128.912C189.486 129.893 189.594 131.427 189.594 133.512H178.37C178.37 134.984 178.4 136.149 178.462 137.008C178.523 137.836 178.661 138.649 178.876 139.446C179.152 140.581 179.673 141.485 180.44 142.16C181.237 142.835 182.157 143.172 183.2 143.172C184.702 143.172 185.914 142.513 186.834 141.194C187.754 139.875 188.306 138.327 188.49 136.548H189.686C189.502 138.664 188.812 140.535 187.616 142.16C186.42 143.755 184.641 144.552 182.28 144.552ZM184.258 132.224C184.258 129.004 184.043 126.627 183.614 125.094C183.215 123.53 182.448 122.748 181.314 122.748C180.179 122.748 179.397 123.53 178.968 125.094C178.569 126.627 178.37 129.004 178.37 132.224H184.258ZM201.171 142.896H202.919C203.195 142.896 203.379 142.85 203.471 142.758C203.594 142.635 203.655 142.436 203.655 142.16V124.036C203.655 123.76 203.594 123.576 203.471 123.484C203.379 123.361 203.195 123.3 202.919 123.3H201.171V122.196H208.991V126.75L209.221 126.796C210.601 123.361 212.518 121.644 214.971 121.644C216.872 121.644 218.191 122.119 218.927 123.07C219.694 124.021 220.215 125.232 220.491 126.704H220.721C221.273 125.14 222.024 123.913 222.975 123.024C223.956 122.104 225.014 121.644 226.149 121.644C226.916 121.644 227.575 121.736 228.127 121.92C228.679 122.073 229.2 122.319 229.691 122.656C230.458 123.208 231.056 123.975 231.485 124.956C231.945 125.937 232.175 126.949 232.175 127.992V142.16C232.175 142.436 232.221 142.635 232.313 142.758C232.436 142.85 232.635 142.896 232.911 142.896H234.659V144H224.631V142.896H226.103C226.379 142.896 226.563 142.85 226.655 142.758C226.778 142.635 226.839 142.436 226.839 142.16V126.658C226.839 124.297 226.134 123.116 224.723 123.116C224.079 123.116 223.435 123.545 222.791 124.404C222.147 125.232 221.61 126.367 221.181 127.808C220.782 129.219 220.583 130.721 220.583 132.316V142.16C220.583 142.436 220.629 142.635 220.721 142.758C220.844 142.85 221.043 142.896 221.319 142.896H222.791V144H213.039V142.896H214.511C214.787 142.896 214.971 142.85 215.063 142.758C215.186 142.635 215.247 142.436 215.247 142.16V125.83C215.247 124.91 215.14 124.235 214.925 123.806C214.71 123.346 214.235 123.116 213.499 123.116C212.855 123.116 212.18 123.545 211.475 124.404C210.77 125.263 210.172 126.397 209.681 127.808C209.221 129.219 208.991 130.721 208.991 132.316V142.16C208.991 142.436 209.037 142.635 209.129 142.758C209.252 142.85 209.451 142.896 209.727 142.896H211.199V144H201.171V142.896ZM250.29 117.504C249.339 117.504 248.527 117.182 247.852 116.538C247.208 115.863 246.886 115.051 246.886 114.1C246.886 113.119 247.208 112.306 247.852 111.662C248.527 111.018 249.339 110.696 250.29 110.696C251.271 110.696 252.084 111.018 252.728 111.662C253.372 112.306 253.694 113.119 253.694 114.1C253.694 115.051 253.372 115.863 252.728 116.538C252.084 117.182 251.271 117.504 250.29 117.504ZM245.322 142.896H247.07C247.346 142.896 247.53 142.85 247.622 142.758C247.745 142.635 247.806 142.436 247.806 142.16V124.036C247.806 123.76 247.745 123.576 247.622 123.484C247.53 123.361 247.346 123.3 247.07 123.3H245.322V122.196H253.142V142.16C253.142 142.436 253.188 142.635 253.28 142.758C253.403 142.85 253.602 142.896 253.878 142.896H255.626V144H245.322V142.896ZM272.641 144.552C270.955 144.552 269.513 144.138 268.317 143.31C267.152 142.482 266.569 141.087 266.569 139.124C266.569 137.131 267.29 135.567 268.731 134.432C270.203 133.267 272.059 132.301 274.297 131.534L277.701 130.338V127.21C277.701 125.646 277.379 124.511 276.735 123.806C276.091 123.101 275.263 122.748 274.251 122.748C273.393 122.748 272.641 122.947 271.997 123.346C271.384 123.714 271.077 124.235 271.077 124.91C271.077 125.094 271.123 125.324 271.215 125.6C271.338 125.845 271.537 126.06 271.813 126.244C272.273 126.52 272.595 126.811 272.779 127.118C272.994 127.425 273.101 127.823 273.101 128.314C273.101 129.05 272.825 129.633 272.273 130.062C271.752 130.461 271.169 130.66 270.525 130.66C269.728 130.66 269.038 130.399 268.455 129.878C267.903 129.326 267.627 128.544 267.627 127.532C267.627 126.367 267.98 125.339 268.685 124.45C269.391 123.53 270.295 122.84 271.399 122.38C272.503 121.889 273.623 121.644 274.757 121.644C276.965 121.644 278.897 122.242 280.553 123.438C282.209 124.603 283.037 126.474 283.037 129.05V140.688C283.037 141.792 283.344 142.344 283.957 142.344C284.509 142.344 284.923 141.884 285.199 140.964C285.475 140.044 285.613 138.986 285.613 137.79H286.901C286.901 140.029 286.564 141.669 285.889 142.712C285.552 143.264 285.077 143.709 284.463 144.046C283.85 144.383 283.145 144.552 282.347 144.552C281.09 144.552 280.139 144.368 279.495 144C278.851 143.601 278.315 142.957 277.885 142.068H277.793C276.567 143.724 274.849 144.552 272.641 144.552ZM274.895 142.712C276.091 142.712 277.027 142.037 277.701 140.688V131.58L275.125 132.5C274.113 132.868 273.362 133.573 272.871 134.616C272.411 135.628 272.181 136.993 272.181 138.71C272.181 140.213 272.457 141.255 273.009 141.838C273.561 142.421 274.19 142.712 274.895 142.712Z" fill="#302D2D"/>
<path d="M113.059 170.252C112.317 170.252 111.673 170.07 111.127 169.706C110.595 169.342 110.329 168.698 110.329 167.774C110.329 167.06 110.511 166.5 110.875 166.094C111.239 165.688 111.659 165.401 112.135 165.233C112.625 165.051 113.213 164.897 113.899 164.771L115.831 164.414V162.629C115.831 161.327 115.18 160.676 113.878 160.676C113.402 160.676 112.968 160.802 112.576 161.054C112.184 161.292 111.988 161.565 111.988 161.873C111.988 162.013 112.009 162.118 112.051 162.188C112.079 162.23 112.121 162.272 112.177 162.314C112.247 162.356 112.31 162.384 112.366 162.398C112.618 162.468 112.807 162.566 112.933 162.692C113.073 162.818 113.143 162.993 113.143 163.217C113.143 163.511 113.052 163.721 112.87 163.847C112.702 163.973 112.485 164.036 112.219 164.036C111.911 164.036 111.631 163.917 111.379 163.679C111.127 163.441 111.001 163.098 111.001 162.65C111.001 162.132 111.141 161.684 111.421 161.306C111.715 160.928 112.086 160.648 112.534 160.466C112.996 160.27 113.465 160.172 113.941 160.172C114.865 160.172 115.663 160.417 116.335 160.907C117.007 161.383 117.343 162.132 117.343 163.154V168.32C117.343 169.02 117.56 169.37 117.994 169.37C118.344 169.37 118.596 169.167 118.75 168.761C118.904 168.355 118.981 167.858 118.981 167.27H119.359C119.359 168.11 119.233 168.817 118.981 169.391C118.743 169.965 118.309 170.252 117.679 170.252C117.077 170.252 116.622 170.077 116.314 169.727C116.02 169.363 115.859 168.866 115.831 168.236L115.726 168.194C115.516 168.684 115.173 169.153 114.697 169.601C114.235 170.035 113.689 170.252 113.059 170.252ZM113.395 169.496C114.025 169.496 114.515 169.251 114.865 168.761C115.229 168.257 115.551 167.62 115.831 166.85V164.855L114.004 165.254C113.332 165.394 112.842 165.674 112.534 166.094C112.24 166.5 112.093 167.081 112.093 167.837C112.093 168.481 112.226 168.922 112.492 169.16C112.758 169.384 113.059 169.496 113.395 169.496ZM128.644 170.252C127.342 170.252 126.292 169.811 125.494 168.929C124.71 168.047 124.318 166.822 124.318 165.254C124.318 164.358 124.493 163.525 124.843 162.755C125.193 161.971 125.676 161.348 126.292 160.886C126.922 160.41 127.622 160.172 128.392 160.172C129.246 160.172 129.946 160.403 130.492 160.865C131.038 161.327 131.43 161.915 131.668 162.629C131.92 163.329 132.046 164.05 132.046 164.792C132.046 164.946 131.997 165.051 131.899 165.107C131.801 165.149 131.633 165.17 131.395 165.17H126.166C126.166 166.57 126.362 167.683 126.754 168.509C127.16 169.335 127.818 169.748 128.728 169.748C129.372 169.748 129.974 169.503 130.534 169.013C131.108 168.523 131.472 167.76 131.626 166.724H132.13C132.046 167.746 131.689 168.593 131.059 169.265C130.443 169.923 129.638 170.252 128.644 170.252ZM130.24 164.666C130.24 163.546 130.093 162.601 129.799 161.831C129.505 161.061 129.022 160.676 128.35 160.676C127.636 160.676 127.09 161.068 126.712 161.852C126.348 162.622 126.166 163.56 126.166 164.666H130.24ZM137.799 166.094H138.177L138.954 167.753C139.71 169.083 140.69 169.748 141.894 169.748C142.538 169.748 143.014 169.594 143.322 169.286C143.644 168.964 143.805 168.53 143.805 167.984C143.805 167.662 143.679 167.375 143.427 167.123C143.189 166.857 142.867 166.647 142.461 166.493L140.067 165.527C139.311 165.219 138.716 164.848 138.282 164.414C137.848 163.98 137.631 163.427 137.631 162.755C137.631 161.901 137.897 161.257 138.429 160.823C138.961 160.389 139.633 160.172 140.445 160.172C140.851 160.172 141.229 160.242 141.579 160.382C141.943 160.508 142.244 160.662 142.482 160.844C142.79 161.068 143.021 161.18 143.175 161.18C143.357 161.18 143.469 161.054 143.511 160.802L143.553 160.382H143.931V163.574H143.553L143.259 162.839C142.937 162.041 142.51 161.481 141.978 161.159C141.46 160.837 140.942 160.676 140.424 160.676C139.906 160.676 139.479 160.809 139.143 161.075C138.807 161.327 138.639 161.684 138.639 162.146C138.639 162.552 138.8 162.888 139.122 163.154C139.458 163.406 139.913 163.651 140.487 163.889L142.755 164.834C143.427 165.114 143.931 165.457 144.267 165.863C144.603 166.255 144.771 166.808 144.771 167.522C144.771 168.46 144.505 169.153 143.973 169.601C143.441 170.035 142.741 170.252 141.873 170.252C141.355 170.252 140.935 170.182 140.613 170.042C140.291 169.902 139.976 169.713 139.668 169.475C139.542 169.377 139.416 169.293 139.29 169.223C139.164 169.153 139.052 169.118 138.954 169.118C138.618 169.118 138.387 169.356 138.261 169.832L138.177 170.252H137.799V166.094ZM153.541 170.252C152.911 170.252 152.386 170.028 151.966 169.58C151.56 169.132 151.357 168.523 151.357 167.753V161.012H149.803V160.424H150.265C150.895 160.424 151.385 160.088 151.735 159.416C152.099 158.73 152.281 157.974 152.281 157.148V156.392H152.869V160.424H155.473V161.012H152.869V167.858C152.869 168.278 152.953 168.628 153.121 168.908C153.289 169.188 153.576 169.328 153.982 169.328C154.976 169.328 155.473 168.488 155.473 166.808H155.851C155.851 167.746 155.711 168.558 155.431 169.244C155.165 169.916 154.535 170.252 153.541 170.252ZM160.714 169.496H161.89C162.058 169.496 162.177 169.461 162.247 169.391C162.317 169.321 162.352 169.202 162.352 169.034V156.014C162.352 155.846 162.317 155.727 162.247 155.657C162.177 155.587 162.058 155.552 161.89 155.552H160.714V155.048H163.864V162.146L163.948 162.167C164.27 161.495 164.669 160.998 165.145 160.676C165.621 160.34 166.146 160.172 166.72 160.172C167.742 160.172 168.463 160.487 168.883 161.117C169.317 161.747 169.534 162.503 169.534 163.385V169.034C169.534 169.202 169.569 169.321 169.639 169.391C169.709 169.461 169.828 169.496 169.996 169.496H170.878V170H166.678V169.496H167.56C167.728 169.496 167.847 169.461 167.917 169.391C167.987 169.321 168.022 169.202 168.022 169.034V162.986C168.022 162.37 167.896 161.845 167.644 161.411C167.406 160.977 166.993 160.76 166.405 160.76C165.915 160.76 165.474 160.935 165.082 161.285C164.704 161.621 164.403 162.09 164.179 162.692C163.969 163.28 163.864 163.938 163.864 164.666V169.034C163.864 169.202 163.899 169.321 163.969 169.391C164.039 169.461 164.158 169.496 164.326 169.496H165.208V170H160.714V169.496ZM180.453 170.252C179.151 170.252 178.101 169.811 177.303 168.929C176.519 168.047 176.127 166.822 176.127 165.254C176.127 164.358 176.302 163.525 176.652 162.755C177.002 161.971 177.485 161.348 178.101 160.886C178.731 160.41 179.431 160.172 180.201 160.172C181.055 160.172 181.755 160.403 182.301 160.865C182.847 161.327 183.239 161.915 183.477 162.629C183.729 163.329 183.855 164.05 183.855 164.792C183.855 164.946 183.806 165.051 183.708 165.107C183.61 165.149 183.442 165.17 183.204 165.17H177.975C177.975 166.57 178.171 167.683 178.563 168.509C178.969 169.335 179.627 169.748 180.537 169.748C181.181 169.748 181.783 169.503 182.343 169.013C182.917 168.523 183.281 167.76 183.435 166.724H183.939C183.855 167.746 183.498 168.593 182.868 169.265C182.252 169.923 181.447 170.252 180.453 170.252ZM182.049 164.666C182.049 163.546 181.902 162.601 181.608 161.831C181.314 161.061 180.831 160.676 180.159 160.676C179.445 160.676 178.899 161.068 178.521 161.852C178.157 162.622 177.975 163.56 177.975 164.666H182.049ZM192.674 170.252C192.044 170.252 191.519 170.028 191.099 169.58C190.693 169.132 190.49 168.523 190.49 167.753V161.012H188.936V160.424H189.398C190.028 160.424 190.518 160.088 190.868 159.416C191.232 158.73 191.414 157.974 191.414 157.148V156.392H192.002V160.424H194.606V161.012H192.002V167.858C192.002 168.278 192.086 168.628 192.254 168.908C192.422 169.188 192.709 169.328 193.115 169.328C194.109 169.328 194.606 168.488 194.606 166.808H194.984C194.984 167.746 194.844 168.558 194.564 169.244C194.298 169.916 193.668 170.252 192.674 170.252ZM202.032 157.82C201.724 157.82 201.465 157.715 201.255 157.505C201.045 157.295 200.94 157.036 200.94 156.728C200.94 156.406 201.045 156.147 201.255 155.951C201.465 155.741 201.724 155.636 202.032 155.636C202.354 155.636 202.613 155.741 202.809 155.951C203.019 156.147 203.124 156.406 203.124 156.728C203.124 157.036 203.019 157.295 202.809 157.505C202.613 157.715 202.354 157.82 202.032 157.82ZM200.058 169.496H200.94C201.108 169.496 201.227 169.461 201.297 169.391C201.367 169.321 201.402 169.202 201.402 169.034V161.39C201.402 161.222 201.367 161.103 201.297 161.033C201.227 160.963 201.108 160.928 200.94 160.928H200.058V160.424H202.914V169.034C202.914 169.202 202.949 169.321 203.019 169.391C203.089 169.461 203.208 169.496 203.376 169.496H204.258V170H200.058V169.496ZM213.614 170.252C212.802 170.252 212.081 170.028 211.451 169.58C210.835 169.132 210.352 168.523 210.002 167.753C209.666 166.983 209.498 166.136 209.498 165.212C209.498 164.288 209.673 163.441 210.023 162.671C210.373 161.901 210.856 161.292 211.472 160.844C212.102 160.396 212.816 160.172 213.614 160.172C214.258 160.172 214.818 160.312 215.294 160.592C215.77 160.858 216.134 161.208 216.386 161.642C216.638 162.062 216.764 162.489 216.764 162.923C216.764 163.357 216.652 163.7 216.428 163.952C216.204 164.19 215.931 164.309 215.609 164.309C215.329 164.309 215.091 164.218 214.895 164.036C214.713 163.854 214.622 163.637 214.622 163.385C214.622 163.133 214.692 162.923 214.832 162.755C214.972 162.587 215.14 162.475 215.336 162.419C215.56 162.349 215.672 162.223 215.672 162.041C215.672 161.873 215.595 161.684 215.441 161.474C215.301 161.264 215.077 161.082 214.769 160.928C214.461 160.76 214.076 160.676 213.614 160.676C212.732 160.676 212.13 161.054 211.808 161.81C211.5 162.566 211.346 163.7 211.346 165.212C211.346 166.724 211.5 167.858 211.808 168.614C212.116 169.37 212.718 169.748 213.614 169.748C214.468 169.748 215.126 169.447 215.588 168.845C216.05 168.243 216.33 167.536 216.428 166.724H216.932C216.89 167.298 216.743 167.858 216.491 168.404C216.239 168.936 215.868 169.377 215.378 169.727C214.888 170.077 214.3 170.252 213.614 170.252Z" fill="#302D2D"/>
</svg>
