<svg width="722" height="762" viewBox="0 0 722 762" fill="none" xmlns="http://www.w3.org/2000/svg">
<rect width="722" height="722" rx="94" fill="#302D2D"/>
<path d="M365 560C337 560 312 551.167 290 533.5C268 515.833 250.833 492.667 238.5 464C226.167 435 220 404.667 220 373C220 341.333 226.167 311.167 238.5 282.5C250.833 253.5 268 230.167 290 212.5C312 194.833 337 186 365 186C393 186 418 194.833 440 212.5C462 230.167 479.167 253.5 491.5 282.5C503.833 311.167 510 341.333 510 373C510 404.667 503.833 435 491.5 464C479.167 492.667 462 515.833 440 533.5C418 551.167 393 560 365 560ZM365 544C397.667 544 421.167 529.167 435.5 499.5C449.833 469.5 457 427.333 457 373C457 318.333 449.833 276.167 435.5 246.5C421.167 216.833 397.667 202 365 202C332.333 202 308.833 216.833 294.5 246.5C280.167 276.167 273 318.333 273 373C273 427.333 280.167 469.5 294.5 499.5C308.833 529.167 332.333 544 365 544Z" fill="#F5F0F0"/>
</svg>
