<svg width="1257" height="953" viewBox="0 0 1257 953" fill="none" xmlns="http://www.w3.org/2000/svg">
<rect x="1122" y="175" width="721" height="453" transform="rotate(90 1122 175)" fill="#302D2D"/>
<path d="M1123 895.941L723.746 535.5L1123 175.059L1123 895.941Z" fill="#302D2D" stroke="#F5F0F0"/>
<ellipse opacity="0.7" cx="751.5" cy="535.5" rx="48.5" ry="48.5" transform="rotate(90 751.5 535.5)" fill="#F5F0F0"/>
<path d="M65.6336 461.5L481.5 0.746261L897.366 461.5H65.6336Z" fill="#302D2D" stroke="#F5F0F0"/>
<rect x="863.5" y="155.5" width="306" height="767" transform="rotate(90 863.5 155.5)" fill="#F5F0F0" stroke="#302D2D"/>
<rect x="65.5" y="460.5" width="832" height="461" fill="#F5F0F0" stroke="#302D2D"/>
<rect x="93.5" y="768.5" width="307" height="116" fill="#F5F0F0" stroke="#302D2D"/>
<line x1="107" y1="817.5" x2="375" y2="817.5" stroke="#302D2D"/>
<line x1="107" y1="833.5" x2="375" y2="833.5" stroke="#302D2D"/>
<line x1="107" y1="849.5" x2="375" y2="849.5" stroke="#302D2D"/>
<line x1="107" y1="866.5" x2="375" y2="866.5" stroke="#302D2D"/>
</svg>
