<svg width="594" height="245" viewBox="0 0 594 245" fill="none" xmlns="http://www.w3.org/2000/svg">
<rect x="0.5" y="1.5" width="593" height="243" rx="9.5" fill="#F5F0F0" stroke="black"/>
<path d="M445.712 68.22C445.712 67.356 446.048 66.594 446.72 65.934C447.392 65.286 448.244 64.782 449.276 64.422C450.32 64.074 451.364 63.9 452.408 63.9C453.452 63.9 454.49 64.074 455.522 64.422C456.566 64.782 457.424 65.286 458.096 65.934C458.768 66.594 459.104 67.356 459.104 68.22C459.104 69.084 458.768 69.84 458.096 70.488C457.424 71.148 456.566 71.652 455.522 72C454.49 72.36 453.452 72.54 452.408 72.54C451.364 72.54 450.32 72.36 449.276 72C448.244 71.652 447.392 71.148 446.72 70.488C446.048 69.84 445.712 69.084 445.712 68.22ZM446.288 68.22C446.288 68.664 446.528 68.982 447.008 69.174C447.5 69.378 448.028 69.48 448.592 69.48L456.224 69.48C456.788 69.48 457.31 69.378 457.79 69.174C458.282 68.982 458.528 68.664 458.528 68.22C458.528 67.776 458.282 67.452 457.79 67.248C457.31 67.056 456.788 66.96 456.224 66.96L448.592 66.96C448.028 66.96 447.5 67.056 447.008 67.248C446.528 67.452 446.288 67.776 446.288 68.22ZM445.712 78.0854C445.712 77.5214 445.826 77.0354 446.054 76.6274C446.294 76.2194 446.6 75.9074 446.972 75.6914C447.344 75.4874 447.74 75.3854 448.16 75.3854C448.676 75.3854 449.114 75.5354 449.474 75.8354C449.834 76.1354 450.014 76.5254 450.014 77.0054C450.014 77.3654 449.9 77.6534 449.672 77.8694C449.456 78.0974 449.168 78.2114 448.808 78.2114C448.256 78.2114 447.884 77.9414 447.692 77.4014C447.608 77.1614 447.524 76.9814 447.44 76.8614C447.356 76.7414 447.248 76.6814 447.116 76.6814C446.876 76.6814 446.678 76.8074 446.522 77.0594C446.366 77.3114 446.288 77.6594 446.288 78.1034C446.288 78.7754 446.576 79.2674 447.152 79.5794C447.728 79.9034 448.418 80.0654 449.222 80.0654L451.796 80.0654L451.85 79.9574C451.658 79.7654 451.508 79.5134 451.4 79.2014C451.304 78.8894 451.256 78.5594 451.256 78.2114C451.256 77.0114 451.61 76.1114 452.318 75.5114C453.026 74.9234 453.932 74.6294 455.036 74.6294C455.72 74.6294 456.368 74.7674 456.98 75.0434C457.604 75.3314 458.114 75.7694 458.51 76.3574C458.906 76.9574 459.104 77.7014 459.104 78.5894C459.104 79.4774 458.816 80.2454 458.24 80.8934C457.664 81.5534 456.89 82.0574 455.918 82.4054C454.946 82.7654 453.878 82.9454 452.714 82.9454C451.334 82.9454 450.116 82.7474 449.06 82.3514C448.004 81.9674 447.182 81.4094 446.594 80.6774C446.006 79.9454 445.712 79.0814 445.712 78.0854ZM451.94 78.4454C451.94 79.0934 452.192 79.5374 452.696 79.7774C452.924 79.8974 453.242 79.9754 453.65 80.0114C454.058 80.0474 454.61 80.0654 455.306 80.0654C456.398 80.0654 457.208 79.9514 457.736 79.7234C458.264 79.4954 458.528 79.1234 458.528 78.6074C458.528 78.1994 458.384 77.8994 458.096 77.7074C457.82 77.5274 457.46 77.4134 457.016 77.3654C456.584 77.3174 455.984 77.2934 455.216 77.2934C454.244 77.2934 453.452 77.3714 452.84 77.5274C452.24 77.6954 451.94 78.0014 451.94 78.4454ZM442.436 84.7828L459.14 89.8588L459.14 91.0828L442.436 86.0068L442.436 84.7828ZM446.576 94.1463L446.576 95.4423C446.576 95.6103 446.606 95.7243 446.666 95.7843C446.738 95.8443 446.852 95.8743 447.008 95.8743L456.854 95.8743L456.854 94.1463L457.502 94.1463L457.502 94.8123C457.502 95.3403 457.616 95.8263 457.844 96.2703C458.072 96.7263 458.396 97.0323 458.816 97.1883L458.816 98.5383L447.008 98.5383C446.852 98.5383 446.738 98.5683 446.666 98.6283C446.606 98.7003 446.576 98.8143 446.576 98.9703L446.576 100.266L446 100.266L446 94.1463L446.576 94.1463ZM445.712 107.648C445.712 106.784 446.048 106.022 446.72 105.362C447.392 104.714 448.244 104.21 449.276 103.85C450.32 103.502 451.364 103.328 452.408 103.328C453.452 103.328 454.49 103.502 455.522 103.85C456.566 104.21 457.424 104.714 458.096 105.362C458.768 106.022 459.104 106.784 459.104 107.648C459.104 108.512 458.768 109.268 458.096 109.916C457.424 110.576 456.566 111.08 455.522 111.428C454.49 111.788 453.452 111.968 452.408 111.968C451.364 111.968 450.32 111.788 449.276 111.428C448.244 111.08 447.392 110.576 446.72 109.916C446.048 109.268 445.712 108.512 445.712 107.648ZM446.288 107.648C446.288 108.092 446.528 108.41 447.008 108.602C447.5 108.806 448.028 108.908 448.592 108.908L456.224 108.908C456.788 108.908 457.31 108.806 457.79 108.602C458.282 108.41 458.528 108.092 458.528 107.648C458.528 107.204 458.282 106.88 457.79 106.676C457.31 106.484 456.788 106.388 456.224 106.388L448.592 106.388C448.028 106.388 447.5 106.484 447.008 106.676C446.528 106.88 446.288 107.204 446.288 107.648ZM442.436 113.769L459.14 118.845L459.14 120.069L442.436 114.993L442.436 113.769ZM445.712 127.021C445.712 126.253 446.156 125.473 447.044 124.681C447.296 124.453 447.47 124.261 447.566 124.105C447.674 123.961 447.728 123.781 447.728 123.565C447.728 123.397 447.674 123.259 447.566 123.151C447.47 123.043 447.332 122.989 447.152 122.989L446 122.989L446 122.269L446.846 122.269C447.314 122.269 447.752 122.311 448.16 122.395C448.58 122.491 449.066 122.707 449.618 123.043C450.182 123.379 450.794 123.895 451.454 124.591C452.306 125.467 453.08 126.145 453.776 126.625C454.484 127.105 455.252 127.345 456.08 127.345C456.752 127.345 457.316 127.207 457.772 126.931C458.228 126.655 458.456 126.187 458.456 125.527C458.456 125.071 458.306 124.687 458.006 124.375C457.718 124.075 457.376 123.925 456.98 123.925C456.5 123.925 456.14 124.093 455.9 124.429C455.708 124.693 455.516 124.891 455.324 125.023C455.144 125.167 454.916 125.239 454.64 125.239C454.328 125.239 454.07 125.125 453.866 124.897C453.662 124.669 453.56 124.381 453.56 124.033C453.56 123.517 453.746 123.067 454.118 122.683C454.49 122.311 454.988 122.125 455.612 122.125C456.248 122.125 456.83 122.293 457.358 122.629C457.898 122.977 458.324 123.445 458.636 124.033C458.948 124.633 459.104 125.293 459.104 126.013C459.104 127.333 458.798 128.335 458.186 129.019C457.586 129.703 456.788 130.045 455.792 130.045C455.108 130.045 454.49 129.829 453.938 129.397C453.386 128.977 452.906 128.461 452.498 127.849C452.102 127.249 451.658 126.487 451.166 125.563C450.878 125.047 450.512 124.561 450.068 124.105C449.624 123.649 449.09 123.337 448.466 123.169L448.43 123.241C448.778 123.673 448.952 124.159 448.952 124.699C448.952 124.915 448.922 125.173 448.862 125.473C448.802 125.785 448.736 126.043 448.664 126.247C448.472 126.847 448.376 127.393 448.376 127.885C448.376 128.317 448.502 128.677 448.754 128.965C449.018 129.253 449.324 129.397 449.672 129.397C450.02 129.397 450.422 129.367 450.878 129.307L450.878 129.865C450.362 129.937 449.894 129.973 449.474 129.973C448.862 129.973 448.268 129.871 447.692 129.667C447.128 129.475 446.654 129.157 446.27 128.713C445.898 128.269 445.712 127.705 445.712 127.021ZM445.712 136.634C445.712 135.77 446.048 135.008 446.72 134.348C447.392 133.7 448.244 133.196 449.276 132.836C450.32 132.488 451.364 132.314 452.408 132.314C453.452 132.314 454.49 132.488 455.522 132.836C456.566 133.196 457.424 133.7 458.096 134.348C458.768 135.008 459.104 135.77 459.104 136.634C459.104 137.498 458.768 138.254 458.096 138.902C457.424 139.562 456.566 140.066 455.522 140.414C454.49 140.774 453.452 140.954 452.408 140.954C451.364 140.954 450.32 140.774 449.276 140.414C448.244 140.066 447.392 139.562 446.72 138.902C446.048 138.254 445.712 137.498 445.712 136.634ZM446.288 136.634C446.288 137.078 446.528 137.396 447.008 137.588C447.5 137.792 448.028 137.894 448.592 137.894L456.224 137.894C456.788 137.894 457.31 137.792 457.79 137.588C458.282 137.396 458.528 137.078 458.528 136.634C458.528 136.19 458.282 135.866 457.79 135.662C457.31 135.47 456.788 135.374 456.224 135.374L448.592 135.374C448.028 135.374 447.5 135.47 447.008 135.662C446.528 135.866 446.288 136.19 446.288 136.634ZM445.712 147.903C445.712 147.135 446.156 146.355 447.044 145.563C447.296 145.335 447.47 145.143 447.566 144.987C447.674 144.843 447.728 144.663 447.728 144.447C447.728 144.279 447.674 144.141 447.566 144.033C447.47 143.925 447.332 143.871 447.152 143.871L446 143.871L446 143.151L446.846 143.151C447.314 143.151 447.752 143.193 448.16 143.277C448.58 143.373 449.066 143.589 449.618 143.925C450.182 144.261 450.794 144.777 451.454 145.473C452.306 146.349 453.08 147.027 453.776 147.507C454.484 147.987 455.252 148.227 456.08 148.227C456.752 148.227 457.316 148.089 457.772 147.813C458.228 147.537 458.456 147.069 458.456 146.409C458.456 145.953 458.306 145.569 458.006 145.257C457.718 144.957 457.376 144.807 456.98 144.807C456.5 144.807 456.14 144.975 455.9 145.311C455.708 145.575 455.516 145.773 455.324 145.905C455.144 146.049 454.916 146.121 454.64 146.121C454.328 146.121 454.07 146.007 453.866 145.779C453.662 145.551 453.56 145.263 453.56 144.915C453.56 144.399 453.746 143.949 454.118 143.565C454.49 143.193 454.988 143.007 455.612 143.007C456.248 143.007 456.83 143.175 457.358 143.511C457.898 143.859 458.324 144.327 458.636 144.915C458.948 145.515 459.104 146.175 459.104 146.895C459.104 148.215 458.798 149.217 458.186 149.901C457.586 150.585 456.788 150.927 455.792 150.927C455.108 150.927 454.49 150.711 453.938 150.279C453.386 149.859 452.906 149.343 452.498 148.731C452.102 148.131 451.658 147.369 451.166 146.445C450.878 145.929 450.512 145.443 450.068 144.987C449.624 144.531 449.09 144.219 448.466 144.051L448.43 144.123C448.778 144.555 448.952 145.041 448.952 145.581C448.952 145.797 448.922 146.055 448.862 146.355C448.802 146.667 448.736 146.925 448.664 147.129C448.472 147.729 448.376 148.275 448.376 148.767C448.376 149.199 448.502 149.559 448.754 149.847C449.018 150.135 449.324 150.279 449.672 150.279C450.02 150.279 450.422 150.249 450.878 150.189L450.878 150.747C450.362 150.819 449.894 150.855 449.474 150.855C448.862 150.855 448.268 150.753 447.692 150.549C447.128 150.357 446.654 150.039 446.27 149.595C445.898 149.151 445.712 148.587 445.712 147.903ZM446.576 154.457L446.576 155.753C446.576 155.921 446.606 156.035 446.666 156.095C446.738 156.155 446.852 156.185 447.008 156.185L456.854 156.185L456.854 154.457L457.502 154.457L457.502 155.123C457.502 155.651 457.616 156.137 457.844 156.581C458.072 157.037 458.396 157.343 458.816 157.499L458.816 158.849L447.008 158.849C446.852 158.849 446.738 158.879 446.666 158.939C446.606 159.011 446.576 159.125 446.576 159.281L446.576 160.577L446 160.577L446 154.457L446.576 154.457Z" fill="black"/>
<path d="M72.232 55.848H74.752C75.088 55.848 75.316 55.788 75.436 55.668C75.556 55.524 75.616 55.296 75.616 54.984V33.384C75.616 33.048 75.556 32.82 75.436 32.7C75.316 32.58 75.088 32.52 74.752 32.52H72.232V31.368H84.328V32.52H81.808C81.496 32.52 81.268 32.58 81.124 32.7C81.004 32.82 80.944 33.048 80.944 33.384V42.888H89.44V33.384C89.44 33.048 89.38 32.82 89.26 32.7C89.14 32.58 88.912 32.52 88.576 32.52H85.984V31.368H98.152V32.52H95.632C95.32 32.52 95.092 32.58 94.948 32.7C94.828 32.82 94.768 33.048 94.768 33.384V54.984C94.768 55.296 94.828 55.524 94.948 55.668C95.092 55.788 95.32 55.848 95.632 55.848H98.152V57H86.056V55.848H88.576C88.912 55.848 89.14 55.788 89.26 55.668C89.38 55.524 89.44 55.296 89.44 54.984V44.184H80.944V54.984C80.944 55.296 81.004 55.524 81.124 55.668C81.268 55.788 81.496 55.848 81.808 55.848H84.328V57H72.232V55.848ZM106.08 57.432C104.76 57.432 103.632 57.108 102.696 56.46C101.784 55.812 101.328 54.72 101.328 53.184C101.328 51.624 101.892 50.4 103.02 49.512C104.172 48.6 105.624 47.844 107.376 47.244L110.04 46.308V43.86C110.04 42.636 109.788 41.748 109.284 41.196C108.78 40.644 108.132 40.368 107.34 40.368C106.668 40.368 106.08 40.524 105.576 40.836C105.096 41.124 104.856 41.532 104.856 42.06C104.856 42.204 104.892 42.384 104.964 42.6C105.06 42.792 105.216 42.96 105.432 43.104C105.792 43.32 106.044 43.548 106.188 43.788C106.356 44.028 106.44 44.34 106.44 44.724C106.44 45.3 106.224 45.756 105.792 46.092C105.384 46.404 104.928 46.56 104.424 46.56C103.8 46.56 103.26 46.356 102.804 45.948C102.372 45.516 102.156 44.904 102.156 44.112C102.156 43.2 102.432 42.396 102.984 41.7C103.536 40.98 104.244 40.44 105.108 40.08C105.972 39.696 106.848 39.504 107.736 39.504C109.464 39.504 110.976 39.972 112.272 40.908C113.568 41.82 114.216 43.284 114.216 45.3V54.408C114.216 55.272 114.456 55.704 114.936 55.704C115.368 55.704 115.692 55.344 115.908 54.624C116.124 53.904 116.232 53.076 116.232 52.14H117.24C117.24 53.892 116.976 55.176 116.448 55.992C116.184 56.424 115.812 56.772 115.332 57.036C114.852 57.3 114.3 57.432 113.676 57.432C112.692 57.432 111.948 57.288 111.444 57C110.94 56.688 110.52 56.184 110.184 55.488H110.112C109.152 56.784 107.808 57.432 106.08 57.432ZM107.844 55.992C108.78 55.992 109.512 55.464 110.04 54.408V47.28L108.024 48C107.232 48.288 106.644 48.84 106.26 49.656C105.9 50.448 105.72 51.516 105.72 52.86C105.72 54.036 105.936 54.852 106.368 55.308C106.8 55.764 107.292 55.992 107.844 55.992ZM119.393 56.136H120.761C120.977 56.136 121.121 56.1 121.193 56.028C121.289 55.932 121.337 55.776 121.337 55.56V41.376C121.337 41.16 121.289 41.016 121.193 40.944C121.121 40.848 120.977 40.8 120.761 40.8H119.393V39.936H136.889V40.8H135.521C135.305 40.8 135.149 40.848 135.053 40.944C134.981 41.016 134.945 41.16 134.945 41.376V55.56C134.945 55.776 134.981 55.932 135.053 56.028C135.149 56.1 135.305 56.136 135.521 56.136H136.889V57H129.041V56.136H130.193C130.409 56.136 130.553 56.1 130.625 56.028C130.721 55.932 130.769 55.776 130.769 55.56V41.376C130.769 41.16 130.721 41.016 130.625 40.944C130.553 40.848 130.409 40.8 130.193 40.8H126.089C125.873 40.8 125.717 40.848 125.621 40.944C125.549 41.016 125.513 41.16 125.513 41.376V55.56C125.513 55.776 125.549 55.932 125.621 56.028C125.717 56.1 125.873 56.136 126.089 56.136H127.241V57H119.393V56.136ZM139.352 64.344H141.368C141.584 64.344 141.728 64.296 141.8 64.2C141.896 64.128 141.944 63.984 141.944 63.768V41.376C141.944 41.16 141.896 41.016 141.8 40.944C141.728 40.848 141.584 40.8 141.368 40.8H139.352V39.936H146.12V42.024H146.336C146.648 41.352 147.092 40.764 147.668 40.26C148.268 39.756 148.952 39.504 149.72 39.504C150.968 39.504 152.084 39.936 153.068 40.8C154.052 41.64 154.82 42.756 155.372 44.148C155.924 45.516 156.2 46.956 156.2 48.468C156.2 50.004 155.936 51.456 155.408 52.824C154.88 54.192 154.136 55.308 153.176 56.172C152.216 57.012 151.112 57.432 149.864 57.432C149.096 57.432 148.412 57.204 147.812 56.748C147.212 56.292 146.72 55.668 146.336 54.876L146.12 54.948V63.768C146.12 63.984 146.156 64.128 146.228 64.2C146.324 64.296 146.48 64.344 146.696 64.344H148.712V65.208H139.352V64.344ZM149.216 56.28C150.8 56.28 151.592 53.676 151.592 48.468C151.592 43.26 150.8 40.656 149.216 40.656C148.664 40.656 148.148 41.004 147.668 41.7C147.212 42.372 146.84 43.296 146.552 44.472C146.264 45.648 146.12 46.944 146.12 48.36C146.12 50.088 146.288 51.552 146.624 52.752C146.96 53.952 147.368 54.84 147.848 55.416C148.328 55.992 148.784 56.28 149.216 56.28ZM164.334 57.432C163.014 57.432 161.886 57.108 160.95 56.46C160.038 55.812 159.582 54.72 159.582 53.184C159.582 51.624 160.146 50.4 161.274 49.512C162.426 48.6 163.878 47.844 165.63 47.244L168.294 46.308V43.86C168.294 42.636 168.042 41.748 167.538 41.196C167.034 40.644 166.386 40.368 165.594 40.368C164.922 40.368 164.334 40.524 163.83 40.836C163.35 41.124 163.11 41.532 163.11 42.06C163.11 42.204 163.146 42.384 163.218 42.6C163.314 42.792 163.47 42.96 163.686 43.104C164.046 43.32 164.298 43.548 164.442 43.788C164.61 44.028 164.694 44.34 164.694 44.724C164.694 45.3 164.478 45.756 164.046 46.092C163.638 46.404 163.182 46.56 162.678 46.56C162.054 46.56 161.514 46.356 161.058 45.948C160.626 45.516 160.41 44.904 160.41 44.112C160.41 43.2 160.686 42.396 161.238 41.7C161.79 40.98 162.498 40.44 163.362 40.08C164.226 39.696 165.102 39.504 165.99 39.504C167.718 39.504 169.23 39.972 170.526 40.908C171.822 41.82 172.47 43.284 172.47 45.3V54.408C172.47 55.272 172.71 55.704 173.19 55.704C173.622 55.704 173.946 55.344 174.162 54.624C174.378 53.904 174.486 53.076 174.486 52.14H175.494C175.494 53.892 175.23 55.176 174.702 55.992C174.438 56.424 174.066 56.772 173.586 57.036C173.106 57.3 172.554 57.432 171.93 57.432C170.946 57.432 170.202 57.288 169.698 57C169.194 56.688 168.774 56.184 168.438 55.488H168.366C167.406 56.784 166.062 57.432 164.334 57.432ZM166.098 55.992C167.034 55.992 167.766 55.464 168.294 54.408V47.28L166.278 48C165.486 48.288 164.898 48.84 164.514 49.656C164.154 50.448 163.974 51.516 163.974 52.86C163.974 54.036 164.19 54.852 164.622 55.308C165.054 55.764 165.546 55.992 166.098 55.992ZM177.647 56.136H179.015C179.231 56.136 179.375 56.1 179.447 56.028C179.543 55.932 179.591 55.776 179.591 55.56V41.376C179.591 41.16 179.543 41.016 179.447 40.944C179.375 40.848 179.231 40.8 179.015 40.8H177.647V39.936H186.323C187.931 39.936 189.203 40.308 190.139 41.052C191.099 41.772 191.579 42.768 191.579 44.04C191.579 45.12 191.159 45.984 190.319 46.632C189.479 47.256 188.435 47.652 187.187 47.82V47.964C188.843 48.084 190.163 48.54 191.147 49.332C192.131 50.124 192.623 51.204 192.623 52.572C192.623 53.844 192.119 54.9 191.111 55.74C190.103 56.58 188.867 57 187.403 57H177.647V56.136ZM185.459 47.568C186.179 47.568 186.683 47.268 186.971 46.668C187.259 46.044 187.403 45.204 187.403 44.148C187.403 43.068 187.235 42.24 186.899 41.664C186.563 41.088 186.083 40.8 185.459 40.8H184.343C184.127 40.8 183.971 40.848 183.875 40.944C183.803 41.016 183.767 41.16 183.767 41.376V47.568H185.459ZM185.711 56.136C186.455 56.136 187.019 55.776 187.403 55.056C187.811 54.312 188.015 53.376 188.015 52.248C188.015 51.144 187.823 50.256 187.439 49.584C187.055 48.912 186.479 48.576 185.711 48.576H183.767V55.56C183.767 55.776 183.803 55.932 183.875 56.028C183.971 56.1 184.127 56.136 184.343 56.136H185.711ZM197.699 57.432C196.787 57.432 196.043 57.132 195.467 56.532C194.915 55.932 194.639 55.224 194.639 54.408C194.639 53.664 194.879 53.04 195.359 52.536C195.863 52.008 196.451 51.744 197.123 51.744C197.771 51.744 198.251 51.936 198.563 52.32C198.875 52.68 199.031 53.064 199.031 53.472C199.031 53.904 198.851 54.324 198.491 54.732C198.395 54.852 198.311 54.972 198.239 55.092C198.191 55.188 198.167 55.308 198.167 55.452C198.167 55.644 198.215 55.788 198.311 55.884C198.431 55.956 198.563 55.992 198.707 55.992C199.187 55.992 199.631 55.548 200.039 54.66C200.471 53.748 200.747 52.26 200.867 50.196L201.155 45.696C201.251 44.136 201.299 42.972 201.299 42.204C201.299 41.796 201.227 41.46 201.083 41.196C200.963 40.932 200.699 40.8 200.291 40.8H198.959V39.936H211.559V40.8H210.191C209.975 40.8 209.819 40.848 209.723 40.944C209.651 41.016 209.615 41.16 209.615 41.376V55.56C209.615 55.776 209.651 55.932 209.723 56.028C209.819 56.1 209.975 56.136 210.191 56.136H211.559V57H203.495V56.136H204.863C205.079 56.136 205.223 56.1 205.295 56.028C205.391 55.932 205.439 55.776 205.439 55.56V41.376C205.439 41.16 205.391 41.016 205.295 40.944C205.223 40.848 205.079 40.8 204.863 40.8H203.963C203.387 40.8 202.967 41.016 202.703 41.448C202.439 41.856 202.283 42.504 202.235 43.392L201.767 50.484C201.527 55.116 200.171 57.432 197.699 57.432ZM222.412 57.432C220.924 57.432 219.592 57.036 218.416 56.244C217.264 55.428 216.364 54.336 215.716 52.968C215.068 51.6 214.744 50.1 214.744 48.468C214.744 46.788 215.068 45.264 215.716 43.896C216.364 42.528 217.24 41.46 218.344 40.692C219.472 39.9 220.696 39.504 222.016 39.504C223.48 39.504 224.74 40.032 225.796 41.088C226.852 42.12 227.548 43.488 227.884 45.192C228.052 45.96 228.136 47.16 228.136 48.792H219.352C219.352 49.944 219.376 50.856 219.424 51.528C219.472 52.176 219.58 52.812 219.748 53.436C219.964 54.324 220.372 55.032 220.972 55.56C221.596 56.088 222.316 56.352 223.132 56.352C224.308 56.352 225.256 55.836 225.976 54.804C226.696 53.772 227.128 52.56 227.272 51.168H228.208C228.064 52.824 227.524 54.288 226.588 55.56C225.652 56.808 224.26 57.432 222.412 57.432ZM223.96 47.784C223.96 45.264 223.792 43.404 223.456 42.204C223.144 40.98 222.544 40.368 221.656 40.368C220.768 40.368 220.156 40.98 219.82 42.204C219.508 43.404 219.352 45.264 219.352 47.784H223.96ZM231.436 56.136H232.804C233.02 56.136 233.164 56.1 233.236 56.028C233.332 55.932 233.38 55.776 233.38 55.56V41.376C233.38 41.16 233.332 41.016 233.236 40.944C233.164 40.848 233.02 40.8 232.804 40.8H231.436V39.936H239.284V40.8H238.132C237.916 40.8 237.76 40.848 237.664 40.944C237.592 41.016 237.556 41.16 237.556 41.376V47.568H242.812V41.376C242.812 41.16 242.764 41.016 242.668 40.944C242.596 40.848 242.452 40.8 242.236 40.8H241.084V39.936H248.932V40.8H247.564C247.348 40.8 247.192 40.848 247.096 40.944C247.024 41.016 246.988 41.16 246.988 41.376V55.56C246.988 55.776 247.024 55.932 247.096 56.028C247.192 56.1 247.348 56.136 247.564 56.136H248.932V57H241.084V56.136H242.236C242.452 56.136 242.596 56.1 242.668 56.028C242.764 55.932 242.812 55.776 242.812 55.56V48.576H237.556V55.56C237.556 55.776 237.592 55.932 237.664 56.028C237.76 56.1 237.916 56.136 238.132 56.136H239.284V57H231.436V56.136ZM251.827 56.136H253.195C253.411 56.136 253.555 56.1 253.627 56.028C253.723 55.932 253.771 55.776 253.771 55.56V41.376C253.771 41.16 253.723 41.016 253.627 40.944C253.555 40.848 253.411 40.8 253.195 40.8H251.827V39.936H259.675V40.8H258.523C258.307 40.8 258.151 40.848 258.055 40.944C257.983 41.016 257.947 41.16 257.947 41.376V52.752L263.419 42.024V41.376C263.419 41.16 263.371 41.016 263.275 40.944C263.203 40.848 263.059 40.8 262.843 40.8H261.691V39.936H269.539V40.8H268.171C267.955 40.8 267.799 40.848 267.703 40.944C267.631 41.016 267.595 41.16 267.595 41.376V55.56C267.595 55.776 267.631 55.932 267.703 56.028C267.799 56.1 267.955 56.136 268.171 56.136H269.539V57H261.691V56.136H262.843C263.059 56.136 263.203 56.1 263.275 56.028C263.371 55.932 263.419 55.776 263.419 55.56V44.184L257.947 54.912V55.56C257.947 55.776 257.983 55.932 258.055 56.028C258.151 56.1 258.307 56.136 258.523 56.136H259.675V57H251.827V56.136ZM280.384 57.432C278.896 57.432 277.564 57.036 276.388 56.244C275.236 55.428 274.336 54.336 273.688 52.968C273.04 51.6 272.716 50.1 272.716 48.468C272.716 46.788 273.04 45.264 273.688 43.896C274.336 42.528 275.212 41.46 276.316 40.692C277.444 39.9 278.668 39.504 279.988 39.504C281.452 39.504 282.712 40.032 283.768 41.088C284.824 42.12 285.52 43.488 285.856 45.192C286.024 45.96 286.108 47.16 286.108 48.792H277.324C277.324 49.944 277.348 50.856 277.396 51.528C277.444 52.176 277.552 52.812 277.72 53.436C277.936 54.324 278.344 55.032 278.944 55.56C279.568 56.088 280.288 56.352 281.104 56.352C282.28 56.352 283.228 55.836 283.948 54.804C284.668 53.772 285.1 52.56 285.244 51.168H286.18C286.036 52.824 285.496 54.288 284.56 55.56C283.624 56.808 282.232 57.432 280.384 57.432ZM281.932 47.784C281.932 45.264 281.764 43.404 281.428 42.204C281.116 40.98 280.516 40.368 279.628 40.368C278.74 40.368 278.128 40.98 277.792 42.204C277.48 43.404 277.324 45.264 277.324 47.784H281.932ZM293.009 45.12C292.193 45.12 291.521 44.856 290.993 44.328C290.465 43.8 290.201 43.128 290.201 42.312C290.201 41.496 290.465 40.824 290.993 40.296C291.521 39.768 292.193 39.504 293.009 39.504C293.825 39.504 294.497 39.768 295.025 40.296C295.553 40.824 295.817 41.496 295.817 42.312C295.817 43.128 295.553 43.8 295.025 44.328C294.497 44.856 293.825 45.12 293.009 45.12ZM293.009 57.432C292.193 57.432 291.521 57.168 290.993 56.64C290.465 56.112 290.201 55.44 290.201 54.624C290.201 53.808 290.465 53.136 290.993 52.608C291.521 52.08 292.193 51.816 293.009 51.816C293.825 51.816 294.497 52.08 295.025 52.608C295.553 53.136 295.817 53.808 295.817 54.624C295.817 55.44 295.553 56.112 295.025 56.64C294.497 57.168 293.825 57.432 293.009 57.432ZM75.436 109.568C74.452 109.568 73.66 109.256 73.06 108.632C72.46 108.032 72.16 107.252 72.16 106.292C72.16 105.5 72.412 104.804 72.916 104.204C73.42 103.604 74.056 103.304 74.824 103.304C75.4 103.304 75.868 103.472 76.228 103.808C76.612 104.168 76.804 104.6 76.804 105.104C76.804 105.416 76.732 105.704 76.588 105.968C76.468 106.232 76.312 106.448 76.12 106.616C75.784 106.904 75.616 107.216 75.616 107.552C75.616 107.768 75.676 107.96 75.796 108.128C75.94 108.32 76.156 108.416 76.444 108.416C76.852 108.416 77.188 108.164 77.452 107.66C77.74 107.156 78.004 106.52 78.244 105.752L79.432 101.792L73.204 86.888C72.868 86.096 72.556 85.556 72.268 85.268C72.004 84.956 71.572 84.8 70.972 84.8H70.432V83.936H79.252V84.8H78.208C77.992 84.8 77.788 84.884 77.596 85.052C77.428 85.22 77.344 85.448 77.344 85.736C77.344 86 77.428 86.336 77.596 86.744L81.304 95.636L83.644 87.752C83.812 87.08 83.896 86.552 83.896 86.168C83.896 85.808 83.8 85.496 83.608 85.232C83.416 84.944 83.14 84.8 82.78 84.8H81.844V83.936H87.784V84.8H86.992C86.56 84.8 86.14 84.992 85.732 85.376C85.348 85.736 85.048 86.288 84.832 87.032L79.36 105.212C78.52 108.116 77.212 109.568 75.436 109.568ZM90.367 101.432C89.455 101.432 88.711 101.132 88.135 100.532C87.583 99.932 87.307 99.224 87.307 98.408C87.307 97.664 87.547 97.04 88.027 96.536C88.531 96.008 89.119 95.744 89.791 95.744C90.439 95.744 90.919 95.936 91.231 96.32C91.543 96.68 91.699 97.064 91.699 97.472C91.699 97.904 91.519 98.324 91.159 98.732C91.063 98.852 90.979 98.972 90.907 99.092C90.859 99.188 90.835 99.308 90.835 99.452C90.835 99.644 90.883 99.788 90.979 99.884C91.099 99.956 91.231 99.992 91.375 99.992C91.855 99.992 92.299 99.548 92.707 98.66C93.139 97.748 93.415 96.26 93.535 94.196L93.823 89.696C93.919 88.136 93.967 86.972 93.967 86.204C93.967 85.796 93.895 85.46 93.751 85.196C93.631 84.932 93.367 84.8 92.959 84.8H91.627V83.936H104.227V84.8H102.859C102.643 84.8 102.487 84.848 102.391 84.944C102.319 85.016 102.283 85.16 102.283 85.376V99.56C102.283 99.776 102.319 99.932 102.391 100.028C102.487 100.1 102.643 100.136 102.859 100.136H104.227V101H96.163V100.136H97.531C97.747 100.136 97.891 100.1 97.963 100.028C98.059 99.932 98.107 99.776 98.107 99.56V85.376C98.107 85.16 98.059 85.016 97.963 84.944C97.891 84.848 97.747 84.8 97.531 84.8H96.631C96.055 84.8 95.635 85.016 95.371 85.448C95.107 85.856 94.951 86.504 94.903 87.392L94.435 94.484C94.195 99.116 92.839 101.432 90.367 101.432ZM110.724 101.432C109.908 101.432 109.236 101.168 108.708 100.64C108.18 100.112 107.916 99.44 107.916 98.624C107.916 97.808 108.18 97.136 108.708 96.608C109.236 96.08 109.908 95.816 110.724 95.816C111.54 95.816 112.212 96.08 112.74 96.608C113.268 97.136 113.532 97.808 113.532 98.624C113.532 99.44 113.268 100.112 112.74 100.64C112.212 101.168 111.54 101.432 110.724 101.432ZM128.095 99.848H130.615C130.951 99.848 131.179 99.788 131.299 99.668C131.419 99.524 131.479 99.296 131.479 98.984V77.384C131.479 77.048 131.419 76.82 131.299 76.7C131.179 76.58 130.951 76.52 130.615 76.52H128.095V75.368H147.607L147.895 84.728H146.743C146.743 84.584 146.623 84.032 146.383 83.072C146.143 82.112 145.831 81.236 145.447 80.444C144.223 77.828 142.699 76.52 140.875 76.52H137.671C137.359 76.52 137.131 76.58 136.987 76.7C136.867 76.82 136.807 77.048 136.807 77.384V87.032H141.127C142.807 87.032 144.295 87.332 145.591 87.932C146.911 88.532 147.931 89.36 148.651 90.416C149.395 91.448 149.767 92.624 149.767 93.944C149.767 95.264 149.395 96.464 148.651 97.544C147.931 98.6 146.911 99.44 145.591 100.064C144.295 100.688 142.807 101 141.127 101H128.095V99.848ZM140.587 99.848C142.867 99.848 144.007 97.808 144.007 93.728C144.007 91.976 143.755 90.62 143.251 89.66C142.747 88.676 141.859 88.184 140.587 88.184H136.807V98.984C136.807 99.296 136.867 99.524 136.987 99.668C137.131 99.788 137.359 99.848 137.671 99.848H140.587ZM152.792 100.136H154.16C154.376 100.136 154.52 100.1 154.592 100.028C154.688 99.932 154.736 99.776 154.736 99.56V85.376C154.736 85.16 154.688 85.016 154.592 84.944C154.52 84.848 154.376 84.8 154.16 84.8H152.792V83.936H160.64V84.8H159.488C159.272 84.8 159.116 84.848 159.02 84.944C158.948 85.016 158.912 85.16 158.912 85.376V96.752L164.384 86.024V85.376C164.384 85.16 164.336 85.016 164.24 84.944C164.168 84.848 164.024 84.8 163.808 84.8H162.656V83.936H170.504V84.8H169.136C168.92 84.8 168.764 84.848 168.668 84.944C168.596 85.016 168.56 85.16 168.56 85.376V99.56C168.56 99.776 168.596 99.932 168.668 100.028C168.764 100.1 168.92 100.136 169.136 100.136H170.504V101H162.656V100.136H163.808C164.024 100.136 164.168 100.1 164.24 100.028C164.336 99.932 164.384 99.776 164.384 99.56V88.184L158.912 98.912V99.56C158.912 99.776 158.948 99.932 159.02 100.028C159.116 100.1 159.272 100.136 159.488 100.136H160.64V101H152.792V100.136ZM181.169 101.432C179.873 101.432 178.661 101.048 177.533 100.28C176.405 99.488 175.505 98.408 174.833 97.04C174.161 95.672 173.825 94.148 173.825 92.468C173.825 90.068 173.873 88.208 173.969 86.888C174.065 85.568 174.305 84.38 174.689 83.324C175.097 82.268 175.721 81.272 176.561 80.336C177.425 79.4 178.505 78.68 179.801 78.176C181.121 77.672 182.729 77.192 184.625 76.736C185.513 76.52 186.125 76.304 186.461 76.088C186.797 75.848 187.013 75.512 187.109 75.08H187.973C187.973 76.52 187.769 77.636 187.361 78.428C186.953 79.196 186.413 79.736 185.741 80.048C185.093 80.36 184.241 80.612 183.185 80.804C181.649 81.092 180.425 81.38 179.513 81.668C178.601 81.932 177.749 82.352 176.957 82.928C176.237 83.456 175.709 84.188 175.373 85.124C175.037 86.036 174.833 87.02 174.761 88.076L174.941 88.112C176.381 85.04 178.457 83.504 181.169 83.504C182.465 83.504 183.677 83.9 184.805 84.692C185.933 85.46 186.833 86.528 187.505 87.896C188.177 89.264 188.513 90.788 188.513 92.468C188.513 94.148 188.177 95.672 187.505 97.04C186.833 98.408 185.933 99.488 184.805 100.28C183.677 101.048 182.465 101.432 181.169 101.432ZM181.169 100.568C182.201 100.568 182.909 99.932 183.293 98.66C183.701 97.388 183.905 95.324 183.905 92.468C183.905 89.612 183.701 87.548 183.293 86.276C182.909 85.004 182.201 84.368 181.169 84.368C180.113 84.368 179.393 85.004 179.009 86.276C178.625 87.524 178.433 89.588 178.433 92.468C178.433 95.348 178.625 97.424 179.009 98.696C179.393 99.944 180.113 100.568 181.169 100.568ZM193.726 101.432C192.814 101.432 192.07 101.132 191.494 100.532C190.942 99.932 190.666 99.224 190.666 98.408C190.666 97.664 190.906 97.04 191.386 96.536C191.89 96.008 192.478 95.744 193.15 95.744C193.798 95.744 194.278 95.936 194.59 96.32C194.902 96.68 195.058 97.064 195.058 97.472C195.058 97.904 194.878 98.324 194.518 98.732C194.422 98.852 194.338 98.972 194.266 99.092C194.218 99.188 194.194 99.308 194.194 99.452C194.194 99.644 194.242 99.788 194.338 99.884C194.458 99.956 194.59 99.992 194.734 99.992C195.214 99.992 195.658 99.548 196.066 98.66C196.498 97.748 196.774 96.26 196.894 94.196L197.182 89.696C197.278 88.136 197.326 86.972 197.326 86.204C197.326 85.796 197.254 85.46 197.11 85.196C196.99 84.932 196.726 84.8 196.318 84.8H194.986V83.936H207.586V84.8H206.218C206.002 84.8 205.846 84.848 205.75 84.944C205.678 85.016 205.642 85.16 205.642 85.376V99.56C205.642 99.776 205.678 99.932 205.75 100.028C205.846 100.1 206.002 100.136 206.218 100.136H207.586V101H199.522V100.136H200.89C201.106 100.136 201.25 100.1 201.322 100.028C201.418 99.932 201.466 99.776 201.466 99.56V85.376C201.466 85.16 201.418 85.016 201.322 84.944C201.25 84.848 201.106 84.8 200.89 84.8H199.99C199.414 84.8 198.994 85.016 198.73 85.448C198.466 85.856 198.31 86.504 198.262 87.392L197.794 94.484C197.554 99.116 196.198 101.432 193.726 101.432ZM210.483 100.136H211.851C212.067 100.136 212.211 100.1 212.283 100.028C212.379 99.932 212.427 99.776 212.427 99.56V85.376C212.427 85.16 212.379 85.016 212.283 84.944C212.211 84.848 212.067 84.8 211.851 84.8H210.483V83.936H218.331V84.8H217.179C216.963 84.8 216.807 84.848 216.711 84.944C216.639 85.016 216.603 85.16 216.603 85.376V96.752L222.075 86.024V85.376C222.075 85.16 222.027 85.016 221.931 84.944C221.859 84.848 221.715 84.8 221.499 84.8H220.347V83.936H228.195V84.8H226.827C226.611 84.8 226.455 84.848 226.359 84.944C226.287 85.016 226.251 85.16 226.251 85.376V99.56C226.251 99.776 226.287 99.932 226.359 100.028C226.455 100.1 226.611 100.136 226.827 100.136H228.195V101H220.347V100.136H221.499C221.715 100.136 221.859 100.1 221.931 100.028C222.027 99.932 222.075 99.776 222.075 99.56V88.184L216.603 98.912V99.56C216.603 99.776 216.639 99.932 216.711 100.028C216.807 100.1 216.963 100.136 217.179 100.136H218.331V101H210.483V100.136ZM238.717 101.432C237.421 101.432 236.209 101.048 235.081 100.28C233.953 99.488 233.053 98.408 232.381 97.04C231.709 95.672 231.373 94.148 231.373 92.468C231.373 90.788 231.709 89.264 232.381 87.896C233.053 86.528 233.953 85.46 235.081 84.692C236.209 83.9 237.421 83.504 238.717 83.504C240.013 83.504 241.225 83.9 242.353 84.692C243.481 85.46 244.381 86.528 245.053 87.896C245.725 89.264 246.061 90.788 246.061 92.468C246.061 94.148 245.725 95.672 245.053 97.04C244.381 98.408 243.481 99.488 242.353 100.28C241.225 101.048 240.013 101.432 238.717 101.432ZM238.717 100.568C239.749 100.568 240.457 99.932 240.841 98.66C241.249 97.388 241.453 95.324 241.453 92.468C241.453 89.612 241.249 87.548 240.841 86.276C240.457 85.004 239.749 84.368 238.717 84.368C237.685 84.368 236.965 85.004 236.557 86.276C236.173 87.548 235.981 89.612 235.981 92.468C235.981 95.324 236.173 97.388 236.557 98.66C236.965 99.932 237.685 100.568 238.717 100.568ZM251.817 100.136H253.833C254.049 100.136 254.193 100.1 254.265 100.028C254.361 99.932 254.409 99.776 254.409 99.56V85.376C254.409 85.136 254.361 84.98 254.265 84.908C254.193 84.836 254.049 84.8 253.833 84.8C253.305 84.8 252.789 85.1 252.285 85.7C251.805 86.276 251.409 86.948 251.097 87.716C250.761 88.532 250.509 89.252 250.341 89.876C250.197 90.5 250.113 90.896 250.089 91.064H249.081L249.297 83.936H263.697L263.913 91.064H262.905C262.881 90.896 262.785 90.5 262.617 89.876C262.473 89.252 262.233 88.532 261.897 87.716C261.585 86.948 261.177 86.276 260.673 85.7C260.193 85.1 259.689 84.8 259.161 84.8C258.945 84.8 258.789 84.836 258.693 84.908C258.621 84.98 258.585 85.136 258.585 85.376V99.56C258.585 99.776 258.621 99.932 258.693 100.028C258.789 100.1 258.945 100.136 259.161 100.136H261.177V101H251.817V100.136ZM274.619 101.432C273.131 101.432 271.799 101.036 270.623 100.244C269.471 99.428 268.571 98.336 267.923 96.968C267.275 95.6 266.951 94.1 266.951 92.468C266.951 90.788 267.275 89.264 267.923 87.896C268.571 86.528 269.447 85.46 270.551 84.692C271.679 83.9 272.903 83.504 274.223 83.504C275.687 83.504 276.947 84.032 278.003 85.088C279.059 86.12 279.755 87.488 280.091 89.192C280.259 89.96 280.343 91.16 280.343 92.792H271.559C271.559 93.944 271.583 94.856 271.631 95.528C271.679 96.176 271.787 96.812 271.955 97.436C272.171 98.324 272.579 99.032 273.179 99.56C273.803 100.088 274.523 100.352 275.339 100.352C276.515 100.352 277.463 99.836 278.183 98.804C278.903 97.772 279.335 96.56 279.479 95.168H280.415C280.271 96.824 279.731 98.288 278.795 99.56C277.859 100.808 276.467 101.432 274.619 101.432ZM276.167 91.784C276.167 89.264 275.999 87.404 275.663 86.204C275.351 84.98 274.751 84.368 273.863 84.368C272.975 84.368 272.363 84.98 272.027 86.204C271.715 87.404 271.559 89.264 271.559 91.784H276.167ZM297.143 101.432C295.967 101.432 295.031 101.132 294.335 100.532C293.639 99.908 293.291 99.008 293.291 97.832V94.988C293.291 94.316 293.135 93.788 292.823 93.404C292.511 92.996 292.115 92.792 291.635 92.792H289.763V99.56C289.763 99.776 289.799 99.932 289.871 100.028C289.967 100.1 290.123 100.136 290.339 100.136H291.491V101H283.643V100.136H285.011C285.227 100.136 285.371 100.1 285.443 100.028C285.539 99.932 285.587 99.776 285.587 99.56V85.376C285.587 85.16 285.539 85.016 285.443 84.944C285.371 84.848 285.227 84.8 285.011 84.8H283.643V83.936H291.491V84.8H290.339C290.123 84.8 289.967 84.848 289.871 84.944C289.799 85.016 289.763 85.16 289.763 85.376V91.784H292.031C292.535 91.784 292.907 91.592 293.147 91.208C293.387 90.824 293.507 90.32 293.507 89.696V87.248C293.507 86.048 293.819 85.124 294.443 84.476C295.091 83.828 295.859 83.504 296.747 83.504C297.611 83.504 298.295 83.756 298.799 84.26C299.303 84.764 299.555 85.436 299.555 86.276C299.555 86.948 299.315 87.512 298.835 87.968C298.379 88.4 297.875 88.616 297.323 88.616C296.795 88.616 296.351 88.472 295.991 88.184C295.631 87.872 295.451 87.452 295.451 86.924C295.451 86.612 295.571 86.276 295.811 85.916C296.003 85.652 296.099 85.436 296.099 85.268C296.099 85.052 295.979 84.944 295.739 84.944C295.403 84.944 295.115 85.136 294.875 85.52C294.635 85.88 294.515 86.444 294.515 87.212V89.696C294.515 90.248 294.443 90.704 294.299 91.064C294.155 91.4 293.903 91.688 293.543 91.928V92.108C294.791 92.276 295.751 92.708 296.423 93.404C297.119 94.1 297.467 95.168 297.467 96.608V98.948C297.467 99.596 297.731 99.92 298.259 99.92C298.691 99.92 299.003 99.596 299.195 98.948C299.387 98.276 299.483 97.448 299.483 96.464H300.419C300.419 98.048 300.179 99.272 299.699 100.136C299.243 101 298.391 101.432 297.143 101.432ZM307.56 101.432C306.24 101.432 305.112 101.108 304.176 100.46C303.264 99.812 302.808 98.72 302.808 97.184C302.808 95.624 303.372 94.4 304.5 93.512C305.652 92.6 307.104 91.844 308.856 91.244L311.52 90.308V87.86C311.52 86.636 311.268 85.748 310.764 85.196C310.26 84.644 309.612 84.368 308.82 84.368C308.148 84.368 307.56 84.524 307.056 84.836C306.576 85.124 306.336 85.532 306.336 86.06C306.336 86.204 306.372 86.384 306.444 86.6C306.54 86.792 306.696 86.96 306.912 87.104C307.272 87.32 307.524 87.548 307.668 87.788C307.836 88.028 307.92 88.34 307.92 88.724C307.92 89.3 307.704 89.756 307.272 90.092C306.864 90.404 306.408 90.56 305.904 90.56C305.28 90.56 304.74 90.356 304.284 89.948C303.852 89.516 303.636 88.904 303.636 88.112C303.636 87.2 303.912 86.396 304.464 85.7C305.016 84.98 305.724 84.44 306.588 84.08C307.452 83.696 308.328 83.504 309.216 83.504C310.944 83.504 312.456 83.972 313.752 84.908C315.048 85.82 315.696 87.284 315.696 89.3V98.408C315.696 99.272 315.936 99.704 316.416 99.704C316.848 99.704 317.172 99.344 317.388 98.624C317.604 97.904 317.712 97.076 317.712 96.14H318.72C318.72 97.892 318.456 99.176 317.928 99.992C317.664 100.424 317.292 100.772 316.812 101.036C316.332 101.3 315.78 101.432 315.156 101.432C314.172 101.432 313.428 101.288 312.924 101C312.42 100.688 312 100.184 311.664 99.488H311.592C310.632 100.784 309.288 101.432 307.56 101.432ZM309.324 99.992C310.26 99.992 310.992 99.464 311.52 98.408V91.28L309.504 92C308.712 92.288 308.124 92.84 307.74 93.656C307.38 94.448 307.2 95.516 307.2 96.86C307.2 98.036 307.416 98.852 307.848 99.308C308.28 99.764 308.772 99.992 309.324 99.992ZM97.504 152.2C97.48 152.056 97.408 151.744 97.288 151.264C97.168 150.784 96.976 150.196 96.712 149.5C96.448 148.828 96.124 148.192 95.74 147.592C95.14 146.68 94.552 146.02 93.976 145.612C93.4 145.204 92.764 145 92.068 145H72.232V143.848H74.752C75.088 143.848 75.316 143.788 75.436 143.668C75.556 143.524 75.616 143.296 75.616 142.984V121.384C75.616 121.048 75.556 120.82 75.436 120.7C75.316 120.58 75.088 120.52 74.752 120.52H72.232V119.368H84.112V120.52H81.808C81.496 120.52 81.268 120.58 81.124 120.7C81.004 120.82 80.944 121.048 80.944 121.384V142.984C80.944 143.296 81.004 143.524 81.124 143.668C81.268 143.788 81.496 143.848 81.808 143.848H88.144C88.48 143.848 88.708 143.788 88.828 143.668C88.948 143.524 89.008 143.296 89.008 142.984V121.384C89.008 121.048 88.948 120.82 88.828 120.7C88.708 120.58 88.48 120.52 88.144 120.52H85.84V119.368H97.72V120.52H95.2C94.888 120.52 94.66 120.58 94.516 120.7C94.396 120.82 94.336 121.048 94.336 121.384V142.408C94.336 143.056 94.48 143.512 94.768 143.776C95.08 144.016 95.572 144.136 96.244 144.136H98.656V152.2H97.504ZM109.209 145.432C107.721 145.432 106.389 145.036 105.213 144.244C104.061 143.428 103.161 142.336 102.513 140.968C101.865 139.6 101.541 138.1 101.541 136.468C101.541 134.788 101.865 133.264 102.513 131.896C103.161 130.528 104.037 129.46 105.141 128.692C106.269 127.9 107.493 127.504 108.812 127.504C110.277 127.504 111.537 128.032 112.593 129.088C113.649 130.12 114.345 131.488 114.681 133.192C114.849 133.96 114.933 135.16 114.933 136.792H106.149C106.149 137.944 106.173 138.856 106.221 139.528C106.269 140.176 106.377 140.812 106.545 141.436C106.761 142.324 107.169 143.032 107.769 143.56C108.393 144.088 109.113 144.352 109.929 144.352C111.105 144.352 112.053 143.836 112.773 142.804C113.493 141.772 113.925 140.56 114.069 139.168H115.005C114.861 140.824 114.321 142.288 113.385 143.56C112.449 144.808 111.057 145.432 109.209 145.432ZM110.757 135.784C110.757 133.264 110.589 131.404 110.253 130.204C109.941 128.98 109.341 128.368 108.453 128.368C107.565 128.368 106.953 128.98 106.617 130.204C106.305 131.404 106.149 133.264 106.149 135.784H110.757ZM118.233 144.136H119.601C119.817 144.136 119.961 144.1 120.033 144.028C120.129 143.932 120.177 143.776 120.177 143.56V129.376C120.177 129.16 120.129 129.016 120.033 128.944C119.961 128.848 119.817 128.8 119.601 128.8H118.233V127.936H126.081V128.8H124.929C124.713 128.8 124.557 128.848 124.461 128.944C124.389 129.016 124.353 129.16 124.353 129.376V135.568H129.609V129.376C129.609 129.16 129.561 129.016 129.465 128.944C129.393 128.848 129.249 128.8 129.033 128.8H127.881V127.936H135.729V128.8H134.361C134.145 128.8 133.989 128.848 133.893 128.944C133.821 129.016 133.785 129.16 133.785 129.376V143.56C133.785 143.776 133.821 143.932 133.893 144.028C133.989 144.1 134.145 144.136 134.361 144.136H135.729V145H127.881V144.136H129.033C129.249 144.136 129.393 144.1 129.465 144.028C129.561 143.932 129.609 143.776 129.609 143.56V136.576H124.353V143.56C124.353 143.776 124.389 143.932 124.461 144.028C124.557 144.1 124.713 144.136 124.929 144.136H126.081V145H118.233V144.136ZM143.592 145.432C142.272 145.432 141.144 145.108 140.208 144.46C139.296 143.812 138.84 142.72 138.84 141.184C138.84 139.624 139.404 138.4 140.532 137.512C141.684 136.6 143.136 135.844 144.888 135.244L147.552 134.308V131.86C147.552 130.636 147.3 129.748 146.796 129.196C146.292 128.644 145.644 128.368 144.852 128.368C144.18 128.368 143.592 128.524 143.088 128.836C142.608 129.124 142.368 129.532 142.368 130.06C142.368 130.204 142.404 130.384 142.476 130.6C142.572 130.792 142.728 130.96 142.944 131.104C143.304 131.32 143.556 131.548 143.7 131.788C143.868 132.028 143.952 132.34 143.952 132.724C143.952 133.3 143.736 133.756 143.304 134.092C142.896 134.404 142.44 134.56 141.936 134.56C141.312 134.56 140.772 134.356 140.316 133.948C139.884 133.516 139.668 132.904 139.668 132.112C139.668 131.2 139.944 130.396 140.496 129.7C141.048 128.98 141.756 128.44 142.62 128.08C143.484 127.696 144.36 127.504 145.248 127.504C146.976 127.504 148.488 127.972 149.784 128.908C151.08 129.82 151.728 131.284 151.728 133.3V142.408C151.728 143.272 151.968 143.704 152.448 143.704C152.88 143.704 153.204 143.344 153.42 142.624C153.636 141.904 153.744 141.076 153.744 140.14H154.752C154.752 141.892 154.488 143.176 153.96 143.992C153.696 144.424 153.324 144.772 152.844 145.036C152.364 145.3 151.812 145.432 151.188 145.432C150.204 145.432 149.46 145.288 148.956 145C148.452 144.688 148.032 144.184 147.696 143.488H147.624C146.664 144.784 145.32 145.432 143.592 145.432ZM145.356 143.992C146.292 143.992 147.024 143.464 147.552 142.408V135.28L145.536 136C144.744 136.288 144.156 136.84 143.772 137.656C143.412 138.448 143.232 139.516 143.232 140.86C143.232 142.036 143.448 142.852 143.88 143.308C144.312 143.764 144.804 143.992 145.356 143.992ZM160.505 133.12C159.689 133.12 159.017 132.856 158.489 132.328C157.961 131.8 157.697 131.128 157.697 130.312C157.697 129.496 157.961 128.824 158.489 128.296C159.017 127.768 159.689 127.504 160.505 127.504C161.321 127.504 161.993 127.768 162.521 128.296C163.049 128.824 163.313 129.496 163.313 130.312C163.313 131.128 163.049 131.8 162.521 132.328C161.993 132.856 161.321 133.12 160.505 133.12ZM160.505 145.432C159.689 145.432 159.017 145.168 158.489 144.64C157.961 144.112 157.697 143.44 157.697 142.624C157.697 141.808 157.961 141.136 158.489 140.608C159.017 140.08 159.689 139.816 160.505 139.816C161.321 139.816 161.993 140.08 162.521 140.608C163.049 141.136 163.313 141.808 163.313 142.624C163.313 143.44 163.049 144.112 162.521 144.64C161.993 145.168 161.321 145.432 160.505 145.432ZM186.193 145.576C185.329 145.576 184.609 145.24 184.033 144.568C183.481 143.896 183.205 142.984 183.205 141.832C183.205 140.392 183.553 139.036 184.249 137.764C184.969 136.492 185.965 135.112 187.237 133.624C189.109 131.464 190.501 129.616 191.413 128.08C192.013 127.024 192.445 125.908 192.709 124.732L192.565 124.624C191.821 125.248 190.993 125.56 190.081 125.56C189.121 125.56 188.077 125.344 186.949 124.912C185.941 124.576 184.957 124.408 183.997 124.408C183.013 124.408 182.209 124.66 181.585 125.164C180.961 125.644 180.601 126.4 180.505 127.432L180.325 129.592H179.029L179.857 119.368H181.153L180.973 121.744L181.117 121.816C182.509 119.992 184.033 119.08 185.689 119.08C186.433 119.08 187.045 119.284 187.525 119.692C188.029 120.076 188.533 120.628 189.037 121.348C189.517 122.044 189.949 122.584 190.333 122.968C190.717 123.352 191.101 123.544 191.485 123.544C192.253 123.544 192.637 123.184 192.637 122.464C192.637 122.032 192.397 121.672 191.917 121.384C191.317 121.048 191.017 120.604 191.017 120.052C191.017 119.764 191.113 119.536 191.305 119.368C191.497 119.176 191.761 119.08 192.097 119.08C192.721 119.08 193.225 119.44 193.609 120.16C194.017 120.88 194.221 121.624 194.221 122.392C194.221 123.952 193.993 125.38 193.537 126.676C193.081 127.948 192.361 129.388 191.377 130.996C190.465 132.508 189.829 134.188 189.469 136.036C189.133 137.86 188.965 139.804 188.965 141.868C188.965 143.116 188.713 144.052 188.209 144.676C187.729 145.276 187.057 145.576 186.193 145.576ZM206.967 145.576C205.239 145.576 203.715 144.904 202.395 143.56C201.099 142.216 200.091 140.512 199.371 138.448C198.675 136.36 198.327 134.272 198.327 132.184C198.327 130.096 198.675 128.02 199.371 125.956C200.091 123.868 201.099 122.152 202.395 120.808C203.715 119.464 205.239 118.792 206.967 118.792C208.695 118.792 210.207 119.464 211.503 120.808C212.823 122.152 213.831 123.868 214.527 125.956C215.247 128.02 215.607 130.096 215.607 132.184C215.607 134.272 215.247 136.36 214.527 138.448C213.831 140.512 212.823 142.216 211.503 143.56C210.207 144.904 208.695 145.576 206.967 145.576ZM206.967 144.424C207.855 144.424 208.491 143.944 208.875 142.984C209.283 142 209.487 140.944 209.487 139.816V124.552C209.487 123.424 209.283 122.38 208.875 121.42C208.491 120.436 207.855 119.944 206.967 119.944C206.079 119.944 205.431 120.436 205.023 121.42C204.639 122.38 204.447 123.424 204.447 124.552V139.816C204.447 140.944 204.639 142 205.023 142.984C205.431 143.944 206.079 144.424 206.967 144.424ZM218.418 152.344H220.434C220.65 152.344 220.794 152.296 220.866 152.2C220.962 152.128 221.01 151.984 221.01 151.768V129.376C221.01 129.16 220.962 129.016 220.866 128.944C220.794 128.848 220.65 128.8 220.434 128.8H218.418V127.936H225.186V130.024H225.402C225.714 129.352 226.158 128.764 226.734 128.26C227.334 127.756 228.018 127.504 228.786 127.504C230.034 127.504 231.15 127.936 232.134 128.8C233.118 129.64 233.886 130.756 234.438 132.148C234.99 133.516 235.266 134.956 235.266 136.468C235.266 138.004 235.002 139.456 234.474 140.824C233.946 142.192 233.202 143.308 232.242 144.172C231.282 145.012 230.178 145.432 228.93 145.432C228.162 145.432 227.478 145.204 226.878 144.748C226.278 144.292 225.786 143.668 225.402 142.876L225.186 142.948V151.768C225.186 151.984 225.222 152.128 225.294 152.2C225.39 152.296 225.546 152.344 225.762 152.344H227.778V153.208H218.418V152.344ZM228.282 144.28C229.866 144.28 230.658 141.676 230.658 136.468C230.658 131.26 229.866 128.656 228.282 128.656C227.73 128.656 227.214 129.004 226.734 129.7C226.278 130.372 225.906 131.296 225.618 132.472C225.33 133.648 225.186 134.944 225.186 136.36C225.186 138.088 225.354 139.552 225.69 140.752C226.026 141.952 226.434 142.84 226.914 143.416C227.394 143.992 227.85 144.28 228.282 144.28ZM242.032 145.432C241.216 145.432 240.544 145.168 240.016 144.64C239.488 144.112 239.224 143.44 239.224 142.624C239.224 141.808 239.488 141.136 240.016 140.608C240.544 140.08 241.216 139.816 242.032 139.816C242.848 139.816 243.52 140.08 244.048 140.608C244.576 141.136 244.84 141.808 244.84 142.624C244.84 143.44 244.576 144.112 244.048 144.64C243.52 145.168 242.848 145.432 242.032 145.432Z" fill="black"/>
<line x1="477.5" y1="0.997915" x2="478.518" y2="244.998" stroke="black" stroke-dasharray="2 2"/>
<rect x="7.5" y="5.5" width="463" height="235" rx="9.5" stroke="black"/>
<path d="M19.424 21.44C19.424 19.736 20.036 18.224 21.26 16.904C22.484 15.584 24.08 14.552 26.048 13.808C28.04 13.088 30.128 12.728 32.312 12.728C34.496 12.728 36.572 13.088 38.54 13.808C40.532 14.552 42.14 15.584 43.364 16.904C44.588 18.224 45.2 19.736 45.2 21.44C45.2 23.12 44.588 24.62 43.364 25.94C42.14 27.284 40.532 28.316 38.54 29.036C36.572 29.78 34.496 30.152 32.312 30.152C30.128 30.152 28.04 29.78 26.048 29.036C24.08 28.316 22.484 27.284 21.26 25.94C20.036 24.62 19.424 23.12 19.424 21.44ZM20.576 21.44C20.576 23.432 21.704 24.74 23.96 25.364C26.216 26.012 29 26.336 32.312 26.336C35.624 26.336 38.408 26.012 40.664 25.364C42.92 24.74 44.048 23.432 44.048 21.44C44.048 19.448 42.92 18.128 40.664 17.48C38.432 16.856 35.648 16.544 32.312 16.544C28.976 16.544 26.18 16.856 23.924 17.48C21.692 18.128 20.576 19.448 20.576 21.44ZM19.424 40.7748C19.424 39.0708 20 37.6908 21.152 36.6348C21.584 36.2748 22.064 36.0108 22.592 35.8428C23.12 35.6988 23.588 35.6268 23.996 35.6268C24.836 35.6268 25.52 35.9268 26.048 36.5268C26.408 36.9588 26.588 37.4508 26.588 38.0028C26.588 38.5548 26.372 38.9868 25.94 39.2988C25.772 39.4188 25.616 39.4908 25.472 39.5148C25.328 39.5628 25.136 39.5868 24.896 39.5868C24.536 39.5868 24.176 39.4308 23.816 39.1188C23.576 38.9028 23.372 38.6748 23.204 38.4348C23.06 38.2188 22.904 38.0628 22.736 37.9668C22.592 37.8948 22.412 37.8588 22.196 37.8588C21.764 37.8588 21.38 38.0988 21.044 38.5788C20.732 39.0828 20.576 39.8388 20.576 40.8468C20.576 41.7108 20.828 42.5268 21.332 43.2948C21.836 44.0868 22.676 44.7468 23.852 45.2748C24.74 45.6828 25.856 45.9948 27.2 46.2108C28.568 46.4268 29.696 46.5348 30.584 46.5348L32.204 46.5348L32.312 46.2828C31.4 45.8508 30.644 45.1788 30.044 44.2668C29.468 43.3788 29.18 42.5148 29.18 41.6748C29.18 40.0668 29.576 38.7108 30.368 37.6068C31.04 36.6708 31.94 35.9508 33.068 35.4468C34.22 34.9428 35.444 34.6908 36.74 34.6908C38.036 34.6908 39.332 34.9788 40.628 35.5548C41.948 36.1308 43.04 36.9708 43.904 38.0748C44.768 39.2028 45.2 40.5228 45.2 42.0348C45.2 43.5948 44.72 44.9628 43.76 46.1388C42.8 47.3388 41.42 48.2628 39.62 48.9108C37.844 49.5588 35.744 49.8828 33.32 49.8828C31.352 49.8828 29.42 49.6308 27.524 49.1268C25.628 48.6228 24.056 47.8908 22.808 46.9308C20.552 45.1788 19.424 43.1268 19.424 40.7748ZM30.512 41.6028C30.512 42.4428 30.788 43.1988 31.34 43.8708C31.892 44.5428 32.672 45.0708 33.68 45.4548C34.712 45.8628 35.888 46.0668 37.208 46.0668C39.2 46.0668 40.832 45.7548 42.104 45.1308C43.4 44.5068 44.048 43.4748 44.048 42.0348C44.048 40.5708 43.352 39.5028 41.96 38.8308C40.568 38.1828 38.984 37.8588 37.208 37.8588C35.288 37.8588 33.692 38.1468 32.42 38.7228C31.148 39.2988 30.512 40.2588 30.512 41.6028ZM21.152 57.0856L21.152 60.5416C21.152 60.9016 21.224 61.1536 21.368 61.2976C21.512 61.4656 21.752 61.5496 22.088 61.5496L39.764 61.5496L39.764 57.0856L41.06 57.0856L41.06 59.0656C41.06 60.3616 41.408 61.4056 42.104 62.1976C42.8 63.0136 43.64 63.5176 44.624 63.7096L44.624 64.8616L22.088 64.8616C21.752 64.8616 21.512 64.9336 21.368 65.0776C21.224 65.2456 21.152 65.5096 21.152 65.8696L21.152 69.3256L20 69.3256L20 57.0856L21.152 57.0856ZM19.424 84.0884C19.424 82.3844 20.036 80.8724 21.26 79.5524C22.484 78.2324 24.08 77.2004 26.048 76.4564C28.04 75.7364 30.128 75.3764 32.312 75.3764C34.496 75.3764 36.572 75.7364 38.54 76.4564C40.532 77.2004 42.14 78.2324 43.364 79.5524C44.588 80.8724 45.2 82.3844 45.2 84.0884C45.2 85.7684 44.588 87.2684 43.364 88.5884C42.14 89.9324 40.532 90.9644 38.54 91.6844C36.572 92.4284 34.496 92.8004 32.312 92.8004C30.128 92.8004 28.04 92.4284 26.048 91.6844C24.08 90.9644 22.484 89.9324 21.26 88.5884C20.036 87.2684 19.424 85.7684 19.424 84.0884ZM20.576 84.0884C20.576 86.0804 21.704 87.3884 23.96 88.0124C26.216 88.6604 29 88.9844 32.312 88.9844C35.624 88.9844 38.408 88.6604 40.664 88.0124C42.92 87.3884 44.048 86.0804 44.048 84.0884C44.048 82.0964 42.92 80.7764 40.664 80.1284C38.432 79.5044 35.648 79.1924 32.312 79.1924C28.976 79.1924 26.18 79.5044 23.924 80.1284C21.692 80.7764 20.576 82.0964 20.576 84.0884ZM20 97.5192C21.32 97.5192 22.628 97.7712 23.924 98.2752C25.22 98.7792 26.612 99.9072 28.1 101.659L31.052 105.115C31.988 106.243 33.02 107.095 34.148 107.671C35.276 108.271 36.572 108.571 38.036 108.571C39.908 108.571 41.348 108.115 42.356 107.203C43.388 106.291 43.904 104.995 43.904 103.315C43.904 102.547 43.724 101.803 43.364 101.083C43.004 100.387 42.524 99.8112 41.924 99.3552C41.348 98.9232 40.748 98.7072 40.124 98.7072C39.548 98.7072 39.116 98.8392 38.828 99.1032C38.564 99.3672 38.396 99.7272 38.324 100.183C38.204 100.951 37.94 101.515 37.532 101.875C37.148 102.259 36.68 102.451 36.128 102.451C35.672 102.451 35.288 102.283 34.976 101.947C34.664 101.635 34.508 101.191 34.508 100.615C34.508 99.6312 34.892 98.8152 35.66 98.1672C36.452 97.5192 37.484 97.1952 38.756 97.1952C39.98 97.1952 41.084 97.4952 42.068 98.0952C43.052 98.7192 43.82 99.5712 44.372 100.651C44.924 101.755 45.2 102.979 45.2 104.323C45.2 105.859 44.912 107.239 44.336 108.463C43.76 109.687 42.932 110.647 41.852 111.343C40.772 112.039 39.5 112.387 38.036 112.387C36.572 112.387 35.252 111.871 34.076 110.839C32.9 109.807 31.712 108.451 30.512 106.771L27.776 103.243C27.08 102.235 26.408 101.455 25.76 100.903C25.136 100.375 24.488 100.111 23.816 100.111C23.24 100.111 22.952 100.483 22.952 101.227L22.952 108.031C22.952 108.991 23.156 109.663 23.564 110.047C23.996 110.455 24.596 110.731 25.364 110.875L27.488 111.271L27.488 112.063L20 111.559L20 97.5192ZM19.424 125.854C19.424 124.15 20.036 122.638 21.26 121.318C22.484 119.998 24.08 118.966 26.048 118.222C28.04 117.502 30.128 117.142 32.312 117.142C34.496 117.142 36.572 117.502 38.54 118.222C40.532 118.966 42.14 119.998 43.364 121.318C44.588 122.638 45.2 124.15 45.2 125.854C45.2 127.534 44.588 129.034 43.364 130.354C42.14 131.698 40.532 132.73 38.54 133.45C36.572 134.194 34.496 134.566 32.312 134.566C30.128 134.566 28.04 134.194 26.048 133.45C24.08 132.73 22.484 131.698 21.26 130.354C20.036 129.034 19.424 127.534 19.424 125.854ZM20.576 125.854C20.576 127.846 21.704 129.154 23.96 129.778C26.216 130.426 29 130.75 32.312 130.75C35.624 130.75 38.408 130.426 40.664 129.778C42.92 129.154 44.048 127.846 44.048 125.854C44.048 123.862 42.92 122.542 40.664 121.894C38.432 121.27 35.648 120.958 32.312 120.958C28.976 120.958 26.18 121.27 23.924 121.894C21.692 122.542 20.576 123.862 20.576 125.854ZM20 139.285C21.32 139.285 22.628 139.537 23.924 140.041C25.22 140.545 26.612 141.673 28.1 143.425L31.052 146.881C31.988 148.009 33.02 148.861 34.148 149.437C35.276 150.037 36.572 150.337 38.036 150.337C39.908 150.337 41.348 149.881 42.356 148.969C43.388 148.057 43.904 146.761 43.904 145.081C43.904 144.313 43.724 143.569 43.364 142.849C43.004 142.153 42.524 141.577 41.924 141.121C41.348 140.689 40.748 140.473 40.124 140.473C39.548 140.473 39.116 140.605 38.828 140.869C38.564 141.133 38.396 141.493 38.324 141.949C38.204 142.717 37.94 143.281 37.532 143.641C37.148 144.025 36.68 144.217 36.128 144.217C35.672 144.217 35.288 144.049 34.976 143.713C34.664 143.401 34.508 142.957 34.508 142.381C34.508 141.397 34.892 140.581 35.66 139.933C36.452 139.285 37.484 138.961 38.756 138.961C39.98 138.961 41.084 139.261 42.068 139.861C43.052 140.485 43.82 141.337 44.372 142.417C44.924 143.521 45.2 144.745 45.2 146.089C45.2 147.625 44.912 149.005 44.336 150.229C43.76 151.453 42.932 152.413 41.852 153.109C40.772 153.805 39.5 154.153 38.036 154.153C36.572 154.153 35.252 153.637 34.076 152.605C32.9 151.573 31.712 150.217 30.512 148.537L27.776 145.009C27.08 144.001 26.408 143.221 25.76 142.669C25.136 142.141 24.488 141.877 23.816 141.877C23.24 141.877 22.952 142.249 22.952 142.993L22.952 149.797C22.952 150.757 23.156 151.429 23.564 151.813C23.996 152.221 24.596 152.497 25.364 152.641L27.488 153.037L27.488 153.829L20 153.325L20 139.285ZM21.152 161.5L21.152 164.956C21.152 165.316 21.224 165.568 21.368 165.712C21.512 165.88 21.752 165.964 22.088 165.964L39.764 165.964L39.764 161.5L41.06 161.5L41.06 163.48C41.06 164.776 41.408 165.82 42.104 166.612C42.8 167.428 43.64 167.932 44.624 168.124L44.624 169.276L22.088 169.276C21.752 169.276 21.512 169.348 21.368 169.492C21.224 169.66 21.152 169.924 21.152 170.284L21.152 173.74L20 173.74L20 161.5L21.152 161.5ZM19.424 188.502C19.424 186.798 20.036 185.286 21.26 183.966C22.484 182.646 24.08 181.614 26.048 180.87C28.04 180.15 30.128 179.79 32.312 179.79C34.496 179.79 36.572 180.15 38.54 180.87C40.532 181.614 42.14 182.646 43.364 183.966C44.588 185.287 45.2 186.799 45.2 188.503C45.2 190.183 44.588 191.683 43.364 193.003C42.14 194.347 40.532 195.379 38.54 196.099C36.572 196.843 34.496 197.214 32.312 197.214C30.128 197.214 28.04 196.842 26.048 196.099C24.08 195.378 22.484 194.346 21.26 193.002C20.036 191.682 19.424 190.182 19.424 188.502ZM20.576 188.502C20.576 190.494 21.704 191.802 23.96 192.426C26.216 193.074 29 193.399 32.312 193.399C35.624 193.399 38.408 193.075 40.664 192.427C42.92 191.803 44.048 190.495 44.048 188.503C44.048 186.511 42.92 185.191 40.664 184.542C38.432 183.918 35.648 183.606 32.312 183.606C28.976 183.606 26.18 183.918 23.924 184.542C21.692 185.19 20.576 186.51 20.576 188.502ZM19.424 209.385C19.424 207.681 20.036 206.169 21.26 204.849C22.484 203.529 24.08 202.497 26.048 201.753C28.04 201.033 30.128 200.673 32.312 200.673C34.496 200.673 36.572 201.033 38.54 201.753C40.532 202.497 42.14 203.529 43.364 204.849C44.588 206.169 45.2 207.681 45.2 209.385C45.2 211.065 44.588 212.565 43.364 213.885C42.14 215.229 40.532 216.261 38.54 216.981C36.572 217.725 34.496 218.097 32.312 218.097C30.128 218.097 28.04 217.725 26.048 216.981C24.08 216.261 22.484 215.229 21.26 213.885C20.036 212.565 19.424 211.065 19.424 209.385ZM20.576 209.385C20.576 211.377 21.704 212.685 23.96 213.309C26.216 213.957 29 214.281 32.312 214.281C35.624 214.281 38.408 213.957 40.664 213.309C42.92 212.685 44.048 211.377 44.048 209.385C44.048 207.393 42.92 206.073 40.664 205.425C38.432 204.801 35.648 204.489 32.312 204.489C28.976 204.489 26.18 204.801 23.924 205.425C21.692 206.073 20.576 207.393 20.576 209.385ZM21.152 224.148L21.152 227.604C21.152 227.964 21.224 228.216 21.368 228.36C21.512 228.528 21.752 228.612 22.088 228.612L39.764 228.612L39.764 224.148L41.06 224.148L41.06 226.128C41.06 227.424 41.408 228.468 42.104 229.26C42.8 230.076 43.64 230.58 44.624 230.772L44.624 231.924L22.088 231.924C21.752 231.924 21.512 231.996 21.368 232.14C21.224 232.308 21.152 232.572 21.152 232.932L21.152 236.388L20 236.388L20 224.148L21.152 224.148Z" fill="black"/>
<line x1="484" y1="15" x2="587" y2="15" stroke="black" stroke-width="10"/>
<line x1="484" y1="87" x2="587" y2="87" stroke="black" stroke-width="10"/>
<line x1="484" y1="30.5" x2="587" y2="30.5" stroke="black" stroke-width="15"/>
<line x1="484" y1="102.5" x2="587" y2="102.5" stroke="black" stroke-width="15"/>
<line x1="484" y1="48" x2="587" y2="48" stroke="black" stroke-width="6"/>
<line x1="484" y1="120" x2="587" y2="120" stroke="black" stroke-width="6"/>
<line x1="484" y1="169" x2="587" y2="169" stroke="black" stroke-width="6"/>
<line x1="484" y1="211" x2="587" y2="211" stroke="black" stroke-width="6"/>
<line x1="484" y1="222" x2="587" y2="222" stroke="black" stroke-width="6"/>
<line x1="484" y1="233" x2="587" y2="233" stroke="black" stroke-width="6"/>
<line x1="484" y1="70" x2="587" y2="70" stroke="black" stroke-width="20"/>
<line x1="484" y1="142" x2="587" y2="142" stroke="black" stroke-width="20"/>
<line x1="484" y1="190" x2="587" y2="190" stroke="black" stroke-width="20"/>
<path d="M74.788 210.616H74.608V219.832C74.608 220.576 74.812 221.152 75.22 221.56C75.628 221.944 76.192 222.136 76.912 222.136V223H71.296V222.136C72.016 222.136 72.58 221.944 72.988 221.56C73.396 221.152 73.6 220.576 73.6 219.832V207.376C73.6 207.16 73.552 207.016 73.456 206.944C73.384 206.848 73.24 206.8 73.024 206.8H71.296V205.936H77.236L81.808 217.276L85.228 205.936H91.636V206.8H90.268C90.052 206.8 89.896 206.848 89.8 206.944C89.728 207.016 89.692 207.16 89.692 207.376V221.56C89.692 221.776 89.728 221.932 89.8 222.028C89.896 222.1 90.052 222.136 90.268 222.136H91.636V223H83.572V222.136H84.94C85.156 222.136 85.3 222.1 85.372 222.028C85.468 221.932 85.516 221.776 85.516 221.56V208.528L81.052 223.324H79.9L74.788 210.616ZM99.4705 223.432C98.1505 223.432 97.0225 223.108 96.0865 222.46C95.1745 221.812 94.7185 220.72 94.7185 219.184C94.7185 217.624 95.2825 216.4 96.4105 215.512C97.5625 214.6 99.0145 213.844 100.767 213.244L103.431 212.308V209.86C103.431 208.636 103.179 207.748 102.675 207.196C102.171 206.644 101.523 206.368 100.731 206.368C100.059 206.368 99.4705 206.524 98.9665 206.836C98.4865 207.124 98.2465 207.532 98.2465 208.06C98.2465 208.204 98.2825 208.384 98.3545 208.6C98.4505 208.792 98.6065 208.96 98.8225 209.104C99.1825 209.32 99.4345 209.548 99.5785 209.788C99.7465 210.028 99.8305 210.34 99.8305 210.724C99.8305 211.3 99.6145 211.756 99.1825 212.092C98.7745 212.404 98.3185 212.56 97.8145 212.56C97.1905 212.56 96.6505 212.356 96.1945 211.948C95.7625 211.516 95.5465 210.904 95.5465 210.112C95.5465 209.2 95.8225 208.396 96.3745 207.7C96.9265 206.98 97.6345 206.44 98.4985 206.08C99.3625 205.696 100.239 205.504 101.127 205.504C102.855 205.504 104.367 205.972 105.663 206.908C106.959 207.82 107.607 209.284 107.607 211.3V220.408C107.607 221.272 107.847 221.704 108.327 221.704C108.759 221.704 109.083 221.344 109.299 220.624C109.515 219.904 109.623 219.076 109.623 218.14H110.631C110.631 219.892 110.367 221.176 109.839 221.992C109.575 222.424 109.203 222.772 108.723 223.036C108.243 223.3 107.691 223.432 107.067 223.432C106.083 223.432 105.339 223.288 104.835 223C104.331 222.688 103.911 222.184 103.575 221.488H103.503C102.543 222.784 101.199 223.432 99.4705 223.432ZM101.235 221.992C102.171 221.992 102.903 221.464 103.431 220.408V213.28L101.415 214C100.623 214.288 100.035 214.84 99.6505 215.656C99.2905 216.448 99.1105 217.516 99.1105 218.86C99.1105 220.036 99.3265 220.852 99.7585 221.308C100.191 221.764 100.683 221.992 101.235 221.992ZM112.352 230.344H114.368C114.584 230.344 114.728 230.296 114.8 230.2C114.896 230.128 114.944 229.984 114.944 229.768V207.376C114.944 207.16 114.896 207.016 114.8 206.944C114.728 206.848 114.584 206.8 114.368 206.8H112.352V205.936H119.12V208.024H119.336C119.648 207.352 120.092 206.764 120.668 206.26C121.268 205.756 121.952 205.504 122.72 205.504C123.968 205.504 125.084 205.936 126.068 206.8C127.052 207.64 127.82 208.756 128.372 210.148C128.924 211.516 129.2 212.956 129.2 214.468C129.2 216.004 128.936 217.456 128.408 218.824C127.88 220.192 127.136 221.308 126.176 222.172C125.216 223.012 124.112 223.432 122.864 223.432C122.096 223.432 121.412 223.204 120.812 222.748C120.212 222.292 119.72 221.668 119.336 220.876L119.12 220.948V229.768C119.12 229.984 119.156 230.128 119.228 230.2C119.324 230.296 119.48 230.344 119.696 230.344H121.712V231.208H112.352V230.344ZM122.216 222.28C123.8 222.28 124.592 219.676 124.592 214.468C124.592 209.26 123.8 206.656 122.216 206.656C121.664 206.656 121.148 207.004 120.668 207.7C120.212 208.372 119.84 209.296 119.552 210.472C119.264 211.648 119.12 212.944 119.12 214.36C119.12 216.088 119.288 217.552 119.624 218.752C119.96 219.952 120.368 220.84 120.848 221.416C121.328 221.992 121.784 222.28 122.216 222.28ZM132.366 222.136H133.734C133.95 222.136 134.094 222.1 134.166 222.028C134.262 221.932 134.31 221.776 134.31 221.56V207.376C134.31 207.16 134.262 207.016 134.166 206.944C134.094 206.848 133.95 206.8 133.734 206.8H132.366V205.936H140.214V206.8H139.062C138.846 206.8 138.69 206.848 138.594 206.944C138.522 207.016 138.486 207.16 138.486 207.376V221.56C138.486 221.776 138.522 221.932 138.594 222.028C138.69 222.1 138.846 222.136 139.062 222.136H142.662C142.878 222.136 143.022 222.1 143.094 222.028C143.19 221.932 143.238 221.776 143.238 221.56V207.376C143.238 207.16 143.19 207.016 143.094 206.944C143.022 206.848 142.878 206.8 142.662 206.8H141.51V205.936H149.142V206.8H147.99C147.774 206.8 147.618 206.848 147.522 206.944C147.45 207.016 147.414 207.16 147.414 207.376V221.56C147.414 221.776 147.45 221.932 147.522 222.028C147.618 222.1 147.774 222.136 147.99 222.136H151.59C151.806 222.136 151.95 222.1 152.022 222.028C152.118 221.932 152.166 221.776 152.166 221.56V207.376C152.166 207.16 152.118 207.016 152.022 206.944C151.95 206.848 151.806 206.8 151.59 206.8H150.438V205.936H158.286V206.8H156.918C156.702 206.8 156.546 206.848 156.45 206.944C156.378 207.016 156.342 207.16 156.342 207.376V221.56C156.342 221.776 156.378 221.932 156.45 222.028C156.546 222.1 156.702 222.136 156.918 222.136H158.286V223H132.366V222.136ZM160.727 230.344H162.743C162.959 230.344 163.103 230.296 163.175 230.2C163.271 230.128 163.319 229.984 163.319 229.768V207.376C163.319 207.16 163.271 207.016 163.175 206.944C163.103 206.848 162.959 206.8 162.743 206.8H160.727V205.936L167.495 205.936V208.024H167.711C168.023 207.352 168.467 206.764 169.043 206.26C169.643 205.756 170.327 205.504 171.095 205.504C172.343 205.504 173.459 205.936 174.443 206.8C175.427 207.64 176.195 208.756 176.747 210.148C177.299 211.516 177.575 212.956 177.575 214.468C177.575 216.004 177.311 217.456 176.783 218.824C176.255 220.192 175.511 221.308 174.551 222.172C173.591 223.012 172.487 223.432 171.239 223.432C170.471 223.432 169.787 223.204 169.187 222.748C168.587 222.292 168.095 221.668 167.711 220.876L167.495 220.948V229.768C167.495 229.984 167.531 230.128 167.603 230.2C167.699 230.296 167.855 230.344 168.071 230.344H170.087V231.208H160.727V230.344ZM170.591 222.28C172.175 222.28 172.967 219.676 172.967 214.468C172.967 209.26 172.175 206.656 170.591 206.656C170.039 206.656 169.523 207.004 169.043 207.7C168.587 208.372 168.215 209.296 167.927 210.472C167.639 211.648 167.495 212.944 167.495 214.36C167.495 216.088 167.663 217.552 167.999 218.752C168.335 219.952 168.743 220.84 169.223 221.416C169.703 221.992 170.159 222.28 170.591 222.28ZM184.737 231.568C183.753 231.568 182.961 231.256 182.361 230.632C181.761 230.032 181.461 229.252 181.461 228.292C181.461 227.5 181.713 226.804 182.217 226.204C182.721 225.604 183.357 225.304 184.125 225.304C184.701 225.304 185.169 225.472 185.529 225.808C185.913 226.168 186.105 226.6 186.105 227.104C186.105 227.416 186.033 227.704 185.889 227.968C185.769 228.232 185.613 228.448 185.421 228.616C185.085 228.904 184.917 229.216 184.917 229.552C184.917 229.768 184.977 229.96 185.097 230.128C185.241 230.32 185.457 230.416 185.745 230.416C186.153 230.416 186.489 230.164 186.753 229.66C187.041 229.156 187.305 228.52 187.545 227.752L188.733 223.792L182.505 208.888C182.169 208.096 181.857 207.556 181.569 207.268C181.305 206.956 180.873 206.8 180.273 206.8H179.733V205.936H188.553V206.8H187.509C187.293 206.8 187.089 206.884 186.897 207.052C186.729 207.22 186.645 207.448 186.645 207.736C186.645 208 186.729 208.336 186.897 208.744L190.605 217.636L192.945 209.752C193.113 209.08 193.197 208.552 193.197 208.168C193.197 207.808 193.101 207.496 192.909 207.232C192.717 206.944 192.441 206.8 192.081 206.8H191.145V205.936H197.085V206.8H196.293C195.861 206.8 195.441 206.992 195.033 207.376C194.649 207.736 194.349 208.288 194.133 209.032L188.661 227.212C187.821 230.116 186.513 231.568 184.737 231.568ZM202.212 222.136H204.228C204.444 222.136 204.588 222.1 204.66 222.028C204.756 221.932 204.804 221.776 204.804 221.56V207.376C204.804 207.136 204.756 206.98 204.66 206.908C204.588 206.836 204.444 206.8 204.228 206.8C203.7 206.8 203.184 207.1 202.68 207.7C202.2 208.276 201.804 208.948 201.492 209.716C201.156 210.532 200.904 211.252 200.736 211.876C200.592 212.5 200.508 212.896 200.484 213.064H199.476L199.692 205.936H214.092L214.308 213.064H213.3C213.276 212.896 213.18 212.5 213.012 211.876C212.868 211.252 212.628 210.532 212.292 209.716C211.98 208.948 211.572 208.276 211.068 207.7C210.588 207.1 210.084 206.8 209.556 206.8C209.34 206.8 209.184 206.836 209.088 206.908C209.016 206.98 208.98 207.136 208.98 207.376V221.56C208.98 221.776 209.016 221.932 209.088 222.028C209.184 222.1 209.34 222.136 209.556 222.136H211.572V223H202.212V222.136ZM221.053 223.648C219.901 223.648 218.941 223.3 218.173 222.604C217.429 221.884 217.057 221.02 217.057 220.012C217.057 219.028 217.369 218.212 217.993 217.564C218.617 216.892 219.337 216.556 220.153 216.556C220.921 216.556 221.533 216.784 221.989 217.24C222.445 217.672 222.673 218.224 222.673 218.896C222.673 219.256 222.565 219.628 222.349 220.012C222.181 220.324 222.097 220.576 222.097 220.768C222.097 221.152 222.313 221.344 222.745 221.344C223.105 221.344 223.393 221.164 223.609 220.804C223.849 220.444 223.969 219.88 223.969 219.112V202.624C223.969 202.072 223.849 201.592 223.609 201.184L222.421 199.06C222.181 198.652 221.749 198.448 221.125 198.448H217.921V197.368H227.497L236.425 213.1V201.76C236.425 200.296 236.761 199.108 237.433 198.196C238.105 197.26 239.173 196.792 240.637 196.792C241.789 196.792 242.737 197.152 243.481 197.872C244.249 198.568 244.633 199.42 244.633 200.428C244.633 201.412 244.321 202.24 243.697 202.912C243.073 203.56 242.353 203.884 241.537 203.884C240.769 203.884 240.157 203.668 239.701 203.236C239.245 202.78 239.017 202.216 239.017 201.544C239.017 201.184 239.125 200.812 239.341 200.428C239.509 200.116 239.593 199.864 239.593 199.672C239.593 199.288 239.377 199.096 238.945 199.096C238.585 199.096 238.285 199.276 238.045 199.636C237.829 199.996 237.721 200.56 237.721 201.328V223.648H236.353L225.481 204.46H225.265V218.68C225.265 220.144 224.929 221.344 224.257 222.28C223.585 223.192 222.517 223.648 221.053 223.648ZM244.489 218.536C242.881 218.536 241.585 217.9 240.601 216.628C239.641 215.332 239.161 213.736 239.161 211.84C239.161 209.944 239.641 208.36 240.601 207.088C241.585 205.792 242.881 205.144 244.489 205.144C246.097 205.144 247.381 205.792 248.341 207.088C249.325 208.36 249.817 209.944 249.817 211.84C249.817 213.736 249.325 215.332 248.341 216.628C247.381 217.9 246.097 218.536 244.489 218.536ZM244.489 217.672C245.065 217.672 245.485 217.384 245.749 216.808C246.013 216.232 246.145 215.608 246.145 214.936V208.744C246.145 208.072 246.013 207.448 245.749 206.872C245.485 206.296 245.065 206.008 244.489 206.008C243.913 206.008 243.493 206.296 243.229 206.872C242.965 207.448 242.833 208.072 242.833 208.744V214.936C242.833 215.608 242.965 216.232 243.229 216.808C243.493 217.384 243.913 217.672 244.489 217.672ZM239.593 223V220.408H249.385V223H239.593ZM263.366 223.576C262.238 223.576 261.266 223.348 260.45 222.892C259.634 222.412 259.01 221.8 258.578 221.056C258.17 220.312 257.966 219.52 257.966 218.68C257.966 217.648 258.266 216.772 258.866 216.052C259.466 215.332 260.246 214.972 261.206 214.972C261.926 214.972 262.502 215.2 262.934 215.656C263.39 216.088 263.618 216.664 263.618 217.384C263.618 218.488 263.078 219.232 261.998 219.616C261.518 219.784 261.158 219.952 260.918 220.12C260.678 220.288 260.558 220.504 260.558 220.768C260.558 221.248 260.81 221.644 261.314 221.956C261.818 222.268 262.514 222.424 263.402 222.424C264.746 222.424 265.73 221.848 266.354 220.696C267.002 219.544 267.326 218.164 267.326 216.556V211.408L267.11 211.3C266.726 211.684 266.222 211.984 265.598 212.2C264.974 212.392 264.314 212.488 263.618 212.488C261.218 212.488 259.418 211.78 258.218 210.364C257.042 208.948 256.454 207.136 256.454 204.928C256.454 203.56 256.73 202.264 257.282 201.04C257.858 199.792 258.734 198.772 259.91 197.98C261.11 197.188 262.598 196.792 264.374 196.792C266.15 196.792 267.686 197.368 268.982 198.52C270.302 199.672 271.31 201.22 272.006 203.164C272.726 205.108 273.086 207.244 273.086 209.572C273.086 212.332 272.69 214.768 271.898 216.88C271.13 218.992 270.014 220.636 268.55 221.812C267.086 222.988 265.358 223.576 263.366 223.576ZM264.086 211.12C265.382 211.12 266.27 210.616 266.75 209.608C266.99 209.152 267.146 208.516 267.218 207.7C267.29 206.884 267.326 205.78 267.326 204.388C267.326 202.204 267.098 200.584 266.642 199.528C266.186 198.472 265.442 197.944 264.41 197.944C263.594 197.944 262.994 198.232 262.61 198.808C262.25 199.36 262.022 200.08 261.926 200.968C261.83 201.832 261.782 203.032 261.782 204.568C261.782 206.512 261.938 208.096 262.25 209.32C262.586 210.52 263.198 211.12 264.086 211.12ZM279.281 221.848H281.873C282.209 221.848 282.437 221.788 282.557 221.668C282.677 221.524 282.737 221.296 282.737 220.984V201.292H279.281V199.996H280.613C281.669 199.996 282.641 199.768 283.529 199.312C284.441 198.856 285.053 198.208 285.365 197.368H288.065V220.984C288.065 221.296 288.125 221.524 288.245 221.668C288.389 221.788 288.617 221.848 288.929 221.848H291.521V223H279.281V221.848Z" fill="black"/>
</svg>
