<svg width="594" height="245" viewBox="0 0 594 245" fill="none" xmlns="http://www.w3.org/2000/svg">
<rect x="0.5" y="1.5" width="593" height="243" rx="9.5" fill="#F5F0F0" stroke="black"/>
<path d="M450.712 81.22C450.712 80.356 451.048 79.594 451.72 78.934C452.392 78.286 453.244 77.782 454.276 77.422C455.32 77.074 456.364 76.9 457.408 76.9C458.452 76.9 459.49 77.074 460.522 77.422C461.566 77.782 462.424 78.286 463.096 78.934C463.768 79.594 464.104 80.356 464.104 81.22C464.104 82.084 463.768 82.84 463.096 83.488C462.424 84.148 461.566 84.652 460.522 85C459.49 85.36 458.452 85.54 457.408 85.54C456.364 85.54 455.32 85.36 454.276 85C453.244 84.652 452.392 84.148 451.72 83.488C451.048 82.84 450.712 82.084 450.712 81.22ZM451.288 81.22C451.288 81.664 451.528 81.982 452.008 82.174C452.5 82.378 453.028 82.48 453.592 82.48L461.224 82.48C461.788 82.48 462.31 82.378 462.79 82.174C463.282 81.982 463.528 81.664 463.528 81.22C463.528 80.776 463.282 80.452 462.79 80.248C462.31 80.056 461.788 79.96 461.224 79.96L453.592 79.96C453.028 79.96 452.5 80.056 452.008 80.248C451.528 80.452 451.288 80.776 451.288 81.22ZM450.712 91.0854C450.712 90.5214 450.826 90.0354 451.054 89.6274C451.294 89.2194 451.6 88.9074 451.972 88.6914C452.344 88.4874 452.74 88.3854 453.16 88.3854C453.676 88.3854 454.114 88.5354 454.474 88.8354C454.834 89.1354 455.014 89.5254 455.014 90.0054C455.014 90.3654 454.9 90.6534 454.672 90.8694C454.456 91.0974 454.168 91.2114 453.808 91.2114C453.256 91.2114 452.884 90.9414 452.692 90.4014C452.608 90.1614 452.524 89.9814 452.44 89.8614C452.356 89.7414 452.248 89.6814 452.116 89.6814C451.876 89.6814 451.678 89.8074 451.522 90.0594C451.366 90.3114 451.288 90.6594 451.288 91.1034C451.288 91.7754 451.576 92.2674 452.152 92.5794C452.728 92.9034 453.418 93.0654 454.222 93.0654L456.796 93.0654L456.85 92.9574C456.658 92.7654 456.508 92.5134 456.4 92.2014C456.304 91.8894 456.256 91.5594 456.256 91.2114C456.256 90.0114 456.61 89.1114 457.318 88.5114C458.026 87.9234 458.932 87.6294 460.036 87.6294C460.72 87.6294 461.368 87.7674 461.98 88.0434C462.604 88.3314 463.114 88.7694 463.51 89.3574C463.906 89.9574 464.104 90.7014 464.104 91.5894C464.104 92.4774 463.816 93.2454 463.24 93.8934C462.664 94.5534 461.89 95.0574 460.918 95.4054C459.946 95.7654 458.878 95.9454 457.714 95.9454C456.334 95.9454 455.116 95.7474 454.06 95.3514C453.004 94.9674 452.182 94.4094 451.594 93.6774C451.006 92.9454 450.712 92.0814 450.712 91.0854ZM456.94 91.4454C456.94 92.0934 457.192 92.5374 457.696 92.7774C457.924 92.8974 458.242 92.9754 458.65 93.0114C459.058 93.0474 459.61 93.0654 460.306 93.0654C461.398 93.0654 462.208 92.9514 462.736 92.7234C463.264 92.4954 463.528 92.1234 463.528 91.6074C463.528 91.1994 463.384 90.8994 463.096 90.7074C462.82 90.5274 462.46 90.4134 462.016 90.3654C461.584 90.3174 460.984 90.2934 460.216 90.2934C459.244 90.2934 458.452 90.3714 457.84 90.5274C457.24 90.6954 456.94 91.0014 456.94 91.4454ZM447.436 97.7828L464.14 102.859L464.14 104.083L447.436 99.0068L447.436 97.7828ZM451.576 107.146L451.576 108.442C451.576 108.61 451.606 108.724 451.666 108.784C451.738 108.844 451.852 108.874 452.008 108.874L461.854 108.874L461.854 107.146L462.502 107.146L462.502 107.812C462.502 108.34 462.616 108.826 462.844 109.27C463.072 109.726 463.396 110.032 463.816 110.188L463.816 111.538L452.008 111.538C451.852 111.538 451.738 111.568 451.666 111.628C451.606 111.7 451.576 111.814 451.576 111.97L451.576 113.266L451 113.266L451 107.146L451.576 107.146ZM450.712 120.648C450.712 119.784 451.048 119.022 451.72 118.362C452.392 117.714 453.244 117.21 454.276 116.85C455.32 116.502 456.364 116.328 457.408 116.328C458.452 116.328 459.49 116.502 460.522 116.85C461.566 117.21 462.424 117.714 463.096 118.362C463.768 119.022 464.104 119.784 464.104 120.648C464.104 121.512 463.768 122.268 463.096 122.916C462.424 123.576 461.566 124.08 460.522 124.428C459.49 124.788 458.452 124.968 457.408 124.968C456.364 124.968 455.32 124.788 454.276 124.428C453.244 124.08 452.392 123.576 451.72 122.916C451.048 122.268 450.712 121.512 450.712 120.648ZM451.288 120.648C451.288 121.092 451.528 121.41 452.008 121.602C452.5 121.806 453.028 121.908 453.592 121.908L461.224 121.908C461.788 121.908 462.31 121.806 462.79 121.602C463.282 121.41 463.528 121.092 463.528 120.648C463.528 120.204 463.282 119.88 462.79 119.676C462.31 119.484 461.788 119.388 461.224 119.388L453.592 119.388C453.028 119.388 452.5 119.484 452.008 119.676C451.528 119.88 451.288 120.204 451.288 120.648ZM447.436 126.769L464.14 131.845L464.14 133.069L447.436 127.993L447.436 126.769ZM450.712 140.021C450.712 139.253 451.156 138.473 452.044 137.681C452.296 137.453 452.47 137.261 452.566 137.105C452.674 136.961 452.728 136.781 452.728 136.565C452.728 136.397 452.674 136.259 452.566 136.151C452.47 136.043 452.332 135.989 452.152 135.989L451 135.989L451 135.269L451.846 135.269C452.314 135.269 452.752 135.311 453.16 135.395C453.58 135.491 454.066 135.707 454.618 136.043C455.182 136.379 455.794 136.895 456.454 137.591C457.306 138.467 458.08 139.145 458.776 139.625C459.484 140.105 460.252 140.345 461.08 140.345C461.752 140.345 462.316 140.207 462.772 139.931C463.228 139.655 463.456 139.187 463.456 138.527C463.456 138.071 463.306 137.687 463.006 137.375C462.718 137.075 462.376 136.925 461.98 136.925C461.5 136.925 461.14 137.093 460.9 137.429C460.708 137.693 460.516 137.891 460.324 138.023C460.144 138.167 459.916 138.239 459.64 138.239C459.328 138.239 459.07 138.125 458.866 137.897C458.662 137.669 458.56 137.381 458.56 137.033C458.56 136.517 458.746 136.067 459.118 135.683C459.49 135.311 459.988 135.125 460.612 135.125C461.248 135.125 461.83 135.293 462.358 135.629C462.898 135.977 463.324 136.445 463.636 137.033C463.948 137.633 464.104 138.293 464.104 139.013C464.104 140.333 463.798 141.335 463.186 142.019C462.586 142.703 461.788 143.045 460.792 143.045C460.108 143.045 459.49 142.829 458.938 142.397C458.386 141.977 457.906 141.461 457.498 140.849C457.102 140.249 456.658 139.487 456.166 138.563C455.878 138.047 455.512 137.561 455.068 137.105C454.624 136.649 454.09 136.337 453.466 136.169L453.43 136.241C453.778 136.673 453.952 137.159 453.952 137.699C453.952 137.915 453.922 138.173 453.862 138.473C453.802 138.785 453.736 139.043 453.664 139.247C453.472 139.847 453.376 140.393 453.376 140.885C453.376 141.317 453.502 141.677 453.754 141.965C454.018 142.253 454.324 142.397 454.672 142.397C455.02 142.397 455.422 142.367 455.878 142.307L455.878 142.865C455.362 142.937 454.894 142.973 454.474 142.973C453.862 142.973 453.268 142.871 452.692 142.667C452.128 142.475 451.654 142.157 451.27 141.713C450.898 141.269 450.712 140.705 450.712 140.021ZM450.712 149.634C450.712 148.77 451.048 148.008 451.72 147.348C452.392 146.7 453.244 146.196 454.276 145.836C455.32 145.488 456.364 145.314 457.408 145.314C458.452 145.314 459.49 145.488 460.522 145.836C461.566 146.196 462.424 146.7 463.096 147.348C463.768 148.008 464.104 148.77 464.104 149.634C464.104 150.498 463.768 151.254 463.096 151.902C462.424 152.562 461.566 153.066 460.522 153.414C459.49 153.774 458.452 153.954 457.408 153.954C456.364 153.954 455.32 153.774 454.276 153.414C453.244 153.066 452.392 152.562 451.72 151.902C451.048 151.254 450.712 150.498 450.712 149.634ZM451.288 149.634C451.288 150.078 451.528 150.396 452.008 150.588C452.5 150.792 453.028 150.894 453.592 150.894L461.224 150.894C461.788 150.894 462.31 150.792 462.79 150.588C463.282 150.396 463.528 150.078 463.528 149.634C463.528 149.19 463.282 148.866 462.79 148.662C462.31 148.47 461.788 148.374 461.224 148.374L453.592 148.374C453.028 148.374 452.5 148.47 452.008 148.662C451.528 148.866 451.288 149.19 451.288 149.634ZM450.712 160.903C450.712 160.135 451.156 159.355 452.044 158.563C452.296 158.335 452.47 158.143 452.566 157.987C452.674 157.843 452.728 157.663 452.728 157.447C452.728 157.279 452.674 157.141 452.566 157.033C452.47 156.925 452.332 156.871 452.152 156.871L451 156.871L451 156.151L451.846 156.151C452.314 156.151 452.752 156.193 453.16 156.277C453.58 156.373 454.066 156.589 454.618 156.925C455.182 157.261 455.794 157.777 456.454 158.473C457.306 159.349 458.08 160.027 458.776 160.507C459.484 160.987 460.252 161.227 461.08 161.227C461.752 161.227 462.316 161.089 462.772 160.813C463.228 160.537 463.456 160.069 463.456 159.409C463.456 158.953 463.306 158.569 463.006 158.257C462.718 157.957 462.376 157.807 461.98 157.807C461.5 157.807 461.14 157.975 460.9 158.311C460.708 158.575 460.516 158.773 460.324 158.905C460.144 159.049 459.916 159.121 459.64 159.121C459.328 159.121 459.07 159.007 458.866 158.779C458.662 158.551 458.56 158.263 458.56 157.915C458.56 157.399 458.746 156.949 459.118 156.565C459.49 156.193 459.988 156.007 460.612 156.007C461.248 156.007 461.83 156.175 462.358 156.511C462.898 156.859 463.324 157.327 463.636 157.915C463.948 158.515 464.104 159.175 464.104 159.895C464.104 161.215 463.798 162.217 463.186 162.901C462.586 163.585 461.788 163.927 460.792 163.927C460.108 163.927 459.49 163.711 458.938 163.279C458.386 162.859 457.906 162.343 457.498 161.731C457.102 161.131 456.658 160.369 456.166 159.445C455.878 158.929 455.512 158.443 455.068 157.987C454.624 157.531 454.09 157.219 453.466 157.051L453.43 157.123C453.778 157.555 453.952 158.041 453.952 158.581C453.952 158.797 453.922 159.055 453.862 159.355C453.802 159.667 453.736 159.925 453.664 160.129C453.472 160.729 453.376 161.275 453.376 161.767C453.376 162.199 453.502 162.559 453.754 162.847C454.018 163.135 454.324 163.279 454.672 163.279C455.02 163.279 455.422 163.249 455.878 163.189L455.878 163.747C455.362 163.819 454.894 163.855 454.474 163.855C453.862 163.855 453.268 163.753 452.692 163.549C452.128 163.357 451.654 163.039 451.27 162.595C450.898 162.151 450.712 161.587 450.712 160.903ZM451.576 167.457L451.576 168.753C451.576 168.921 451.606 169.035 451.666 169.095C451.738 169.155 451.852 169.185 452.008 169.185L461.854 169.185L461.854 167.457L462.502 167.457L462.502 168.123C462.502 168.651 462.616 169.137 462.844 169.581C463.072 170.037 463.396 170.343 463.816 170.499L463.816 171.849L452.008 171.849C451.852 171.849 451.738 171.879 451.666 171.939C451.606 172.011 451.576 172.125 451.576 172.281L451.576 173.577L451 173.577L451 167.457L451.576 167.457Z" fill="black"/>
<path d="M72.232 55.848H74.752C75.088 55.848 75.316 55.788 75.436 55.668C75.556 55.524 75.616 55.296 75.616 54.984V33.384C75.616 33.048 75.556 32.82 75.436 32.7C75.316 32.58 75.088 32.52 74.752 32.52H72.232V31.368H84.328V32.52H81.808C81.496 32.52 81.268 32.58 81.124 32.7C81.004 32.82 80.944 33.048 80.944 33.384V42.888H89.44V33.384C89.44 33.048 89.38 32.82 89.26 32.7C89.14 32.58 88.912 32.52 88.576 32.52H85.984V31.368H98.152V32.52H95.632C95.32 32.52 95.092 32.58 94.948 32.7C94.828 32.82 94.768 33.048 94.768 33.384V54.984C94.768 55.296 94.828 55.524 94.948 55.668C95.092 55.788 95.32 55.848 95.632 55.848H98.152V57H86.056V55.848H88.576C88.912 55.848 89.14 55.788 89.26 55.668C89.38 55.524 89.44 55.296 89.44 54.984V44.184H80.944V54.984C80.944 55.296 81.004 55.524 81.124 55.668C81.268 55.788 81.496 55.848 81.808 55.848H84.328V57H72.232V55.848ZM106.08 57.432C104.76 57.432 103.632 57.108 102.696 56.46C101.784 55.812 101.328 54.72 101.328 53.184C101.328 51.624 101.892 50.4 103.02 49.512C104.172 48.6 105.624 47.844 107.376 47.244L110.04 46.308V43.86C110.04 42.636 109.788 41.748 109.284 41.196C108.78 40.644 108.132 40.368 107.34 40.368C106.668 40.368 106.08 40.524 105.576 40.836C105.096 41.124 104.856 41.532 104.856 42.06C104.856 42.204 104.892 42.384 104.964 42.6C105.06 42.792 105.216 42.96 105.432 43.104C105.792 43.32 106.044 43.548 106.188 43.788C106.356 44.028 106.44 44.34 106.44 44.724C106.44 45.3 106.224 45.756 105.792 46.092C105.384 46.404 104.928 46.56 104.424 46.56C103.8 46.56 103.26 46.356 102.804 45.948C102.372 45.516 102.156 44.904 102.156 44.112C102.156 43.2 102.432 42.396 102.984 41.7C103.536 40.98 104.244 40.44 105.108 40.08C105.972 39.696 106.848 39.504 107.736 39.504C109.464 39.504 110.976 39.972 112.272 40.908C113.568 41.82 114.216 43.284 114.216 45.3V54.408C114.216 55.272 114.456 55.704 114.936 55.704C115.368 55.704 115.692 55.344 115.908 54.624C116.124 53.904 116.232 53.076 116.232 52.14H117.24C117.24 53.892 116.976 55.176 116.448 55.992C116.184 56.424 115.812 56.772 115.332 57.036C114.852 57.3 114.3 57.432 113.676 57.432C112.692 57.432 111.948 57.288 111.444 57C110.94 56.688 110.52 56.184 110.184 55.488H110.112C109.152 56.784 107.808 57.432 106.08 57.432ZM107.844 55.992C108.78 55.992 109.512 55.464 110.04 54.408V47.28L108.024 48C107.232 48.288 106.644 48.84 106.26 49.656C105.9 50.448 105.72 51.516 105.72 52.86C105.72 54.036 105.936 54.852 106.368 55.308C106.8 55.764 107.292 55.992 107.844 55.992ZM119.393 56.136H120.761C120.977 56.136 121.121 56.1 121.193 56.028C121.289 55.932 121.337 55.776 121.337 55.56V41.376C121.337 41.16 121.289 41.016 121.193 40.944C121.121 40.848 120.977 40.8 120.761 40.8H119.393V39.936H136.889V40.8H135.521C135.305 40.8 135.149 40.848 135.053 40.944C134.981 41.016 134.945 41.16 134.945 41.376V55.56C134.945 55.776 134.981 55.932 135.053 56.028C135.149 56.1 135.305 56.136 135.521 56.136H136.889V57H129.041V56.136H130.193C130.409 56.136 130.553 56.1 130.625 56.028C130.721 55.932 130.769 55.776 130.769 55.56V41.376C130.769 41.16 130.721 41.016 130.625 40.944C130.553 40.848 130.409 40.8 130.193 40.8H126.089C125.873 40.8 125.717 40.848 125.621 40.944C125.549 41.016 125.513 41.16 125.513 41.376V55.56C125.513 55.776 125.549 55.932 125.621 56.028C125.717 56.1 125.873 56.136 126.089 56.136H127.241V57H119.393V56.136ZM139.352 64.344H141.368C141.584 64.344 141.728 64.296 141.8 64.2C141.896 64.128 141.944 63.984 141.944 63.768V41.376C141.944 41.16 141.896 41.016 141.8 40.944C141.728 40.848 141.584 40.8 141.368 40.8H139.352V39.936H146.12V42.024H146.336C146.648 41.352 147.092 40.764 147.668 40.26C148.268 39.756 148.952 39.504 149.72 39.504C150.968 39.504 152.084 39.936 153.068 40.8C154.052 41.64 154.82 42.756 155.372 44.148C155.924 45.516 156.2 46.956 156.2 48.468C156.2 50.004 155.936 51.456 155.408 52.824C154.88 54.192 154.136 55.308 153.176 56.172C152.216 57.012 151.112 57.432 149.864 57.432C149.096 57.432 148.412 57.204 147.812 56.748C147.212 56.292 146.72 55.668 146.336 54.876L146.12 54.948V63.768C146.12 63.984 146.156 64.128 146.228 64.2C146.324 64.296 146.48 64.344 146.696 64.344H148.712V65.208H139.352V64.344ZM149.216 56.28C150.8 56.28 151.592 53.676 151.592 48.468C151.592 43.26 150.8 40.656 149.216 40.656C148.664 40.656 148.148 41.004 147.668 41.7C147.212 42.372 146.84 43.296 146.552 44.472C146.264 45.648 146.12 46.944 146.12 48.36C146.12 50.088 146.288 51.552 146.624 52.752C146.96 53.952 147.368 54.84 147.848 55.416C148.328 55.992 148.784 56.28 149.216 56.28ZM164.334 57.432C163.014 57.432 161.886 57.108 160.95 56.46C160.038 55.812 159.582 54.72 159.582 53.184C159.582 51.624 160.146 50.4 161.274 49.512C162.426 48.6 163.878 47.844 165.63 47.244L168.294 46.308V43.86C168.294 42.636 168.042 41.748 167.538 41.196C167.034 40.644 166.386 40.368 165.594 40.368C164.922 40.368 164.334 40.524 163.83 40.836C163.35 41.124 163.11 41.532 163.11 42.06C163.11 42.204 163.146 42.384 163.218 42.6C163.314 42.792 163.47 42.96 163.686 43.104C164.046 43.32 164.298 43.548 164.442 43.788C164.61 44.028 164.694 44.34 164.694 44.724C164.694 45.3 164.478 45.756 164.046 46.092C163.638 46.404 163.182 46.56 162.678 46.56C162.054 46.56 161.514 46.356 161.058 45.948C160.626 45.516 160.41 44.904 160.41 44.112C160.41 43.2 160.686 42.396 161.238 41.7C161.79 40.98 162.498 40.44 163.362 40.08C164.226 39.696 165.102 39.504 165.99 39.504C167.718 39.504 169.23 39.972 170.526 40.908C171.822 41.82 172.47 43.284 172.47 45.3V54.408C172.47 55.272 172.71 55.704 173.19 55.704C173.622 55.704 173.946 55.344 174.162 54.624C174.378 53.904 174.486 53.076 174.486 52.14H175.494C175.494 53.892 175.23 55.176 174.702 55.992C174.438 56.424 174.066 56.772 173.586 57.036C173.106 57.3 172.554 57.432 171.93 57.432C170.946 57.432 170.202 57.288 169.698 57C169.194 56.688 168.774 56.184 168.438 55.488H168.366C167.406 56.784 166.062 57.432 164.334 57.432ZM166.098 55.992C167.034 55.992 167.766 55.464 168.294 54.408V47.28L166.278 48C165.486 48.288 164.898 48.84 164.514 49.656C164.154 50.448 163.974 51.516 163.974 52.86C163.974 54.036 164.19 54.852 164.622 55.308C165.054 55.764 165.546 55.992 166.098 55.992ZM177.647 56.136H179.015C179.231 56.136 179.375 56.1 179.447 56.028C179.543 55.932 179.591 55.776 179.591 55.56V41.376C179.591 41.16 179.543 41.016 179.447 40.944C179.375 40.848 179.231 40.8 179.015 40.8H177.647V39.936H186.323C187.931 39.936 189.203 40.308 190.139 41.052C191.099 41.772 191.579 42.768 191.579 44.04C191.579 45.12 191.159 45.984 190.319 46.632C189.479 47.256 188.435 47.652 187.187 47.82V47.964C188.843 48.084 190.163 48.54 191.147 49.332C192.131 50.124 192.623 51.204 192.623 52.572C192.623 53.844 192.119 54.9 191.111 55.74C190.103 56.58 188.867 57 187.403 57H177.647V56.136ZM185.459 47.568C186.179 47.568 186.683 47.268 186.971 46.668C187.259 46.044 187.403 45.204 187.403 44.148C187.403 43.068 187.235 42.24 186.899 41.664C186.563 41.088 186.083 40.8 185.459 40.8H184.343C184.127 40.8 183.971 40.848 183.875 40.944C183.803 41.016 183.767 41.16 183.767 41.376V47.568H185.459ZM185.711 56.136C186.455 56.136 187.019 55.776 187.403 55.056C187.811 54.312 188.015 53.376 188.015 52.248C188.015 51.144 187.823 50.256 187.439 49.584C187.055 48.912 186.479 48.576 185.711 48.576H183.767V55.56C183.767 55.776 183.803 55.932 183.875 56.028C183.971 56.1 184.127 56.136 184.343 56.136H185.711ZM197.699 57.432C196.787 57.432 196.043 57.132 195.467 56.532C194.915 55.932 194.639 55.224 194.639 54.408C194.639 53.664 194.879 53.04 195.359 52.536C195.863 52.008 196.451 51.744 197.123 51.744C197.771 51.744 198.251 51.936 198.563 52.32C198.875 52.68 199.031 53.064 199.031 53.472C199.031 53.904 198.851 54.324 198.491 54.732C198.395 54.852 198.311 54.972 198.239 55.092C198.191 55.188 198.167 55.308 198.167 55.452C198.167 55.644 198.215 55.788 198.311 55.884C198.431 55.956 198.563 55.992 198.707 55.992C199.187 55.992 199.631 55.548 200.039 54.66C200.471 53.748 200.747 52.26 200.867 50.196L201.155 45.696C201.251 44.136 201.299 42.972 201.299 42.204C201.299 41.796 201.227 41.46 201.083 41.196C200.963 40.932 200.699 40.8 200.291 40.8H198.959V39.936H211.559V40.8H210.191C209.975 40.8 209.819 40.848 209.723 40.944C209.651 41.016 209.615 41.16 209.615 41.376V55.56C209.615 55.776 209.651 55.932 209.723 56.028C209.819 56.1 209.975 56.136 210.191 56.136H211.559V57H203.495V56.136H204.863C205.079 56.136 205.223 56.1 205.295 56.028C205.391 55.932 205.439 55.776 205.439 55.56V41.376C205.439 41.16 205.391 41.016 205.295 40.944C205.223 40.848 205.079 40.8 204.863 40.8H203.963C203.387 40.8 202.967 41.016 202.703 41.448C202.439 41.856 202.283 42.504 202.235 43.392L201.767 50.484C201.527 55.116 200.171 57.432 197.699 57.432ZM222.412 57.432C220.924 57.432 219.592 57.036 218.416 56.244C217.264 55.428 216.364 54.336 215.716 52.968C215.068 51.6 214.744 50.1 214.744 48.468C214.744 46.788 215.068 45.264 215.716 43.896C216.364 42.528 217.24 41.46 218.344 40.692C219.472 39.9 220.696 39.504 222.016 39.504C223.48 39.504 224.74 40.032 225.796 41.088C226.852 42.12 227.548 43.488 227.884 45.192C228.052 45.96 228.136 47.16 228.136 48.792H219.352C219.352 49.944 219.376 50.856 219.424 51.528C219.472 52.176 219.58 52.812 219.748 53.436C219.964 54.324 220.372 55.032 220.972 55.56C221.596 56.088 222.316 56.352 223.132 56.352C224.308 56.352 225.256 55.836 225.976 54.804C226.696 53.772 227.128 52.56 227.272 51.168H228.208C228.064 52.824 227.524 54.288 226.588 55.56C225.652 56.808 224.26 57.432 222.412 57.432ZM223.96 47.784C223.96 45.264 223.792 43.404 223.456 42.204C223.144 40.98 222.544 40.368 221.656 40.368C220.768 40.368 220.156 40.98 219.82 42.204C219.508 43.404 219.352 45.264 219.352 47.784H223.96ZM231.436 56.136H232.804C233.02 56.136 233.164 56.1 233.236 56.028C233.332 55.932 233.38 55.776 233.38 55.56V41.376C233.38 41.16 233.332 41.016 233.236 40.944C233.164 40.848 233.02 40.8 232.804 40.8H231.436V39.936H239.284V40.8H238.132C237.916 40.8 237.76 40.848 237.664 40.944C237.592 41.016 237.556 41.16 237.556 41.376V47.568H242.812V41.376C242.812 41.16 242.764 41.016 242.668 40.944C242.596 40.848 242.452 40.8 242.236 40.8H241.084V39.936H248.932V40.8H247.564C247.348 40.8 247.192 40.848 247.096 40.944C247.024 41.016 246.988 41.16 246.988 41.376V55.56C246.988 55.776 247.024 55.932 247.096 56.028C247.192 56.1 247.348 56.136 247.564 56.136H248.932V57H241.084V56.136H242.236C242.452 56.136 242.596 56.1 242.668 56.028C242.764 55.932 242.812 55.776 242.812 55.56V48.576H237.556V55.56C237.556 55.776 237.592 55.932 237.664 56.028C237.76 56.1 237.916 56.136 238.132 56.136H239.284V57H231.436V56.136ZM251.827 56.136H253.195C253.411 56.136 253.555 56.1 253.627 56.028C253.723 55.932 253.771 55.776 253.771 55.56V41.376C253.771 41.16 253.723 41.016 253.627 40.944C253.555 40.848 253.411 40.8 253.195 40.8H251.827V39.936H259.675V40.8H258.523C258.307 40.8 258.151 40.848 258.055 40.944C257.983 41.016 257.947 41.16 257.947 41.376V52.752L263.419 42.024V41.376C263.419 41.16 263.371 41.016 263.275 40.944C263.203 40.848 263.059 40.8 262.843 40.8H261.691V39.936H269.539V40.8H268.171C267.955 40.8 267.799 40.848 267.703 40.944C267.631 41.016 267.595 41.16 267.595 41.376V55.56C267.595 55.776 267.631 55.932 267.703 56.028C267.799 56.1 267.955 56.136 268.171 56.136H269.539V57H261.691V56.136H262.843C263.059 56.136 263.203 56.1 263.275 56.028C263.371 55.932 263.419 55.776 263.419 55.56V44.184L257.947 54.912V55.56C257.947 55.776 257.983 55.932 258.055 56.028C258.151 56.1 258.307 56.136 258.523 56.136H259.675V57H251.827V56.136ZM280.384 57.432C278.896 57.432 277.564 57.036 276.388 56.244C275.236 55.428 274.336 54.336 273.688 52.968C273.04 51.6 272.716 50.1 272.716 48.468C272.716 46.788 273.04 45.264 273.688 43.896C274.336 42.528 275.212 41.46 276.316 40.692C277.444 39.9 278.668 39.504 279.988 39.504C281.452 39.504 282.712 40.032 283.768 41.088C284.824 42.12 285.52 43.488 285.856 45.192C286.024 45.96 286.108 47.16 286.108 48.792H277.324C277.324 49.944 277.348 50.856 277.396 51.528C277.444 52.176 277.552 52.812 277.72 53.436C277.936 54.324 278.344 55.032 278.944 55.56C279.568 56.088 280.288 56.352 281.104 56.352C282.28 56.352 283.228 55.836 283.948 54.804C284.668 53.772 285.1 52.56 285.244 51.168H286.18C286.036 52.824 285.496 54.288 284.56 55.56C283.624 56.808 282.232 57.432 280.384 57.432ZM281.932 47.784C281.932 45.264 281.764 43.404 281.428 42.204C281.116 40.98 280.516 40.368 279.628 40.368C278.74 40.368 278.128 40.98 277.792 42.204C277.48 43.404 277.324 45.264 277.324 47.784H281.932ZM293.009 45.12C292.193 45.12 291.521 44.856 290.993 44.328C290.465 43.8 290.201 43.128 290.201 42.312C290.201 41.496 290.465 40.824 290.993 40.296C291.521 39.768 292.193 39.504 293.009 39.504C293.825 39.504 294.497 39.768 295.025 40.296C295.553 40.824 295.817 41.496 295.817 42.312C295.817 43.128 295.553 43.8 295.025 44.328C294.497 44.856 293.825 45.12 293.009 45.12ZM293.009 57.432C292.193 57.432 291.521 57.168 290.993 56.64C290.465 56.112 290.201 55.44 290.201 54.624C290.201 53.808 290.465 53.136 290.993 52.608C291.521 52.08 292.193 51.816 293.009 51.816C293.825 51.816 294.497 52.08 295.025 52.608C295.553 53.136 295.817 53.808 295.817 54.624C295.817 55.44 295.553 56.112 295.025 56.64C294.497 57.168 293.825 57.432 293.009 57.432ZM75.436 109.568C74.452 109.568 73.66 109.256 73.06 108.632C72.46 108.032 72.16 107.252 72.16 106.292C72.16 105.5 72.412 104.804 72.916 104.204C73.42 103.604 74.056 103.304 74.824 103.304C75.4 103.304 75.868 103.472 76.228 103.808C76.612 104.168 76.804 104.6 76.804 105.104C76.804 105.416 76.732 105.704 76.588 105.968C76.468 106.232 76.312 106.448 76.12 106.616C75.784 106.904 75.616 107.216 75.616 107.552C75.616 107.768 75.676 107.96 75.796 108.128C75.94 108.32 76.156 108.416 76.444 108.416C76.852 108.416 77.188 108.164 77.452 107.66C77.74 107.156 78.004 106.52 78.244 105.752L79.432 101.792L73.204 86.888C72.868 86.096 72.556 85.556 72.268 85.268C72.004 84.956 71.572 84.8 70.972 84.8H70.432V83.936H79.252V84.8H78.208C77.992 84.8 77.788 84.884 77.596 85.052C77.428 85.22 77.344 85.448 77.344 85.736C77.344 86 77.428 86.336 77.596 86.744L81.304 95.636L83.644 87.752C83.812 87.08 83.896 86.552 83.896 86.168C83.896 85.808 83.8 85.496 83.608 85.232C83.416 84.944 83.14 84.8 82.78 84.8H81.844V83.936H87.784V84.8H86.992C86.56 84.8 86.14 84.992 85.732 85.376C85.348 85.736 85.048 86.288 84.832 87.032L79.36 105.212C78.52 108.116 77.212 109.568 75.436 109.568ZM90.367 101.432C89.455 101.432 88.711 101.132 88.135 100.532C87.583 99.932 87.307 99.224 87.307 98.408C87.307 97.664 87.547 97.04 88.027 96.536C88.531 96.008 89.119 95.744 89.791 95.744C90.439 95.744 90.919 95.936 91.231 96.32C91.543 96.68 91.699 97.064 91.699 97.472C91.699 97.904 91.519 98.324 91.159 98.732C91.063 98.852 90.979 98.972 90.907 99.092C90.859 99.188 90.835 99.308 90.835 99.452C90.835 99.644 90.883 99.788 90.979 99.884C91.099 99.956 91.231 99.992 91.375 99.992C91.855 99.992 92.299 99.548 92.707 98.66C93.139 97.748 93.415 96.26 93.535 94.196L93.823 89.696C93.919 88.136 93.967 86.972 93.967 86.204C93.967 85.796 93.895 85.46 93.751 85.196C93.631 84.932 93.367 84.8 92.959 84.8H91.627V83.936H104.227V84.8H102.859C102.643 84.8 102.487 84.848 102.391 84.944C102.319 85.016 102.283 85.16 102.283 85.376V99.56C102.283 99.776 102.319 99.932 102.391 100.028C102.487 100.1 102.643 100.136 102.859 100.136H104.227V101H96.163V100.136H97.531C97.747 100.136 97.891 100.1 97.963 100.028C98.059 99.932 98.107 99.776 98.107 99.56V85.376C98.107 85.16 98.059 85.016 97.963 84.944C97.891 84.848 97.747 84.8 97.531 84.8H96.631C96.055 84.8 95.635 85.016 95.371 85.448C95.107 85.856 94.951 86.504 94.903 87.392L94.435 94.484C94.195 99.116 92.839 101.432 90.367 101.432ZM110.724 101.432C109.908 101.432 109.236 101.168 108.708 100.64C108.18 100.112 107.916 99.44 107.916 98.624C107.916 97.808 108.18 97.136 108.708 96.608C109.236 96.08 109.908 95.816 110.724 95.816C111.54 95.816 112.212 96.08 112.74 96.608C113.268 97.136 113.532 97.808 113.532 98.624C113.532 99.44 113.268 100.112 112.74 100.64C112.212 101.168 111.54 101.432 110.724 101.432ZM139.039 101.648C137.191 101.648 135.439 101.012 133.783 99.74C132.151 98.468 130.843 96.8 129.859 94.736C128.875 92.648 128.383 90.464 128.383 88.184C128.383 85.904 128.875 83.732 129.859 81.668C130.843 79.58 132.151 77.9 133.783 76.628C135.439 75.356 137.191 74.72 139.039 74.72C140.887 74.72 142.627 75.356 144.259 76.628C145.915 77.9 147.235 79.58 148.219 81.668C149.203 83.732 149.695 85.904 149.695 88.184C149.695 90.464 149.203 92.648 148.219 94.736C147.235 96.8 145.915 98.468 144.259 99.74C142.627 101.012 140.887 101.648 139.039 101.648ZM139.039 100.496C140.503 100.496 141.619 99.968 142.387 98.912C143.179 97.832 143.575 96.056 143.575 93.584V82.784C143.575 80.312 143.179 78.548 142.387 77.492C141.619 76.412 140.503 75.872 139.039 75.872C137.575 75.872 136.447 76.412 135.655 77.492C134.887 78.548 134.503 80.312 134.503 82.784V93.584C134.503 96.056 134.887 97.832 135.655 98.912C136.447 99.968 137.575 100.496 139.039 100.496ZM160.708 101.432C159.412 101.432 158.2 101.048 157.072 100.28C155.944 99.488 155.044 98.408 154.372 97.04C153.7 95.672 153.364 94.148 153.364 92.468C153.364 90.068 153.412 88.208 153.508 86.888C153.604 85.568 153.844 84.38 154.228 83.324C154.636 82.268 155.26 81.272 156.1 80.336C156.964 79.4 158.044 78.68 159.34 78.176C160.66 77.672 162.268 77.192 164.164 76.736C165.052 76.52 165.664 76.304 166 76.088C166.336 75.848 166.552 75.512 166.648 75.08H167.512C167.512 76.52 167.308 77.636 166.9 78.428C166.492 79.196 165.952 79.736 165.28 80.048C164.632 80.36 163.78 80.612 162.724 80.804C161.188 81.092 159.964 81.38 159.052 81.668C158.14 81.932 157.288 82.352 156.496 82.928C155.776 83.456 155.248 84.188 154.912 85.124C154.576 86.036 154.372 87.02 154.3 88.076L154.48 88.112C155.92 85.04 157.996 83.504 160.708 83.504C162.004 83.504 163.216 83.9 164.344 84.692C165.472 85.46 166.372 86.528 167.044 87.896C167.716 89.264 168.052 90.788 168.052 92.468C168.052 94.148 167.716 95.672 167.044 97.04C166.372 98.408 165.472 99.488 164.344 100.28C163.216 101.048 162.004 101.432 160.708 101.432ZM160.708 100.568C161.74 100.568 162.448 99.932 162.832 98.66C163.24 97.388 163.444 95.324 163.444 92.468C163.444 89.612 163.24 87.548 162.832 86.276C162.448 85.004 161.74 84.368 160.708 84.368C159.652 84.368 158.932 85.004 158.548 86.276C158.164 87.524 157.972 89.588 157.972 92.468C157.972 95.348 158.164 97.424 158.548 98.696C158.932 99.944 159.652 100.568 160.708 100.568ZM170.781 108.344H172.797C173.013 108.344 173.157 108.296 173.229 108.2C173.325 108.128 173.373 107.984 173.373 107.768V85.376C173.373 85.16 173.325 85.016 173.229 84.944C173.157 84.848 173.013 84.8 172.797 84.8H170.781V83.936H177.549V86.024H177.765C178.077 85.352 178.521 84.764 179.097 84.26C179.697 83.756 180.381 83.504 181.149 83.504C182.397 83.504 183.513 83.936 184.497 84.8C185.481 85.64 186.249 86.756 186.801 88.148C187.353 89.516 187.629 90.956 187.629 92.468C187.629 94.004 187.365 95.456 186.837 96.824C186.309 98.192 185.565 99.308 184.605 100.172C183.645 101.012 182.541 101.432 181.293 101.432C180.525 101.432 179.841 101.204 179.241 100.748C178.641 100.292 178.149 99.668 177.765 98.876L177.549 98.948V107.768C177.549 107.984 177.585 108.128 177.657 108.2C177.753 108.296 177.909 108.344 178.125 108.344H180.141V109.208H170.781V108.344ZM180.645 100.28C182.229 100.28 183.021 97.676 183.021 92.468C183.021 87.26 182.229 84.656 180.645 84.656C180.093 84.656 179.577 85.004 179.097 85.7C178.641 86.372 178.269 87.296 177.981 88.472C177.693 89.648 177.549 90.944 177.549 92.36C177.549 94.088 177.717 95.552 178.053 96.752C178.389 97.952 178.797 98.84 179.277 99.416C179.757 99.992 180.213 100.28 180.645 100.28ZM195.763 101.432C194.443 101.432 193.315 101.108 192.379 100.46C191.467 99.812 191.011 98.72 191.011 97.184C191.011 95.624 191.575 94.4 192.703 93.512C193.855 92.6 195.307 91.844 197.059 91.244L199.723 90.308V87.86C199.723 86.636 199.471 85.748 198.967 85.196C198.463 84.644 197.815 84.368 197.023 84.368C196.351 84.368 195.763 84.524 195.259 84.836C194.779 85.124 194.539 85.532 194.539 86.06C194.539 86.204 194.575 86.384 194.647 86.6C194.743 86.792 194.899 86.96 195.115 87.104C195.475 87.32 195.727 87.548 195.871 87.788C196.039 88.028 196.123 88.34 196.123 88.724C196.123 89.3 195.907 89.756 195.475 90.092C195.067 90.404 194.611 90.56 194.107 90.56C193.483 90.56 192.943 90.356 192.487 89.948C192.055 89.516 191.839 88.904 191.839 88.112C191.839 87.2 192.115 86.396 192.667 85.7C193.219 84.98 193.927 84.44 194.791 84.08C195.655 83.696 196.531 83.504 197.419 83.504C199.147 83.504 200.659 83.972 201.955 84.908C203.251 85.82 203.899 87.284 203.899 89.3V98.408C203.899 99.272 204.139 99.704 204.619 99.704C205.051 99.704 205.375 99.344 205.591 98.624C205.807 97.904 205.915 97.076 205.915 96.14H206.923C206.923 97.892 206.659 99.176 206.131 99.992C205.867 100.424 205.495 100.772 205.015 101.036C204.535 101.3 203.983 101.432 203.359 101.432C202.375 101.432 201.631 101.288 201.127 101C200.623 100.688 200.203 100.184 199.867 99.488H199.795C198.835 100.784 197.491 101.432 195.763 101.432ZM197.527 99.992C198.463 99.992 199.195 99.464 199.723 98.408V91.28L197.707 92C196.915 92.288 196.327 92.84 195.943 93.656C195.583 94.448 195.403 95.516 195.403 96.86C195.403 98.036 195.619 98.852 196.051 99.308C196.483 99.764 196.975 99.992 197.527 99.992ZM211.669 100.136H213.685C213.901 100.136 214.045 100.1 214.117 100.028C214.213 99.932 214.261 99.776 214.261 99.56V85.376C214.261 85.136 214.213 84.98 214.117 84.908C214.045 84.836 213.901 84.8 213.685 84.8C213.157 84.8 212.641 85.1 212.137 85.7C211.657 86.276 211.261 86.948 210.949 87.716C210.613 88.532 210.361 89.252 210.193 89.876C210.049 90.5 209.965 90.896 209.941 91.064H208.933L209.149 83.936H223.549L223.765 91.064H222.757C222.733 90.896 222.637 90.5 222.469 89.876C222.325 89.252 222.085 88.532 221.749 87.716C221.437 86.948 221.029 86.276 220.525 85.7C220.045 85.1 219.541 84.8 219.013 84.8C218.797 84.8 218.641 84.836 218.545 84.908C218.473 84.98 218.437 85.136 218.437 85.376V99.56C218.437 99.776 218.473 99.932 218.545 100.028C218.641 100.1 218.797 100.136 219.013 100.136H221.029V101H211.669V100.136ZM226.514 100.136H227.882C228.098 100.136 228.242 100.1 228.314 100.028C228.41 99.932 228.458 99.776 228.458 99.56V85.376C228.458 85.16 228.41 85.016 228.314 84.944C228.242 84.848 228.098 84.8 227.882 84.8H226.514V83.936H234.362V84.8H233.21C232.994 84.8 232.838 84.848 232.742 84.944C232.67 85.016 232.634 85.16 232.634 85.376V91.568H237.89V85.376C237.89 85.16 237.842 85.016 237.746 84.944C237.674 84.848 237.53 84.8 237.314 84.8H236.162V83.936H244.01V84.8H242.642C242.426 84.8 242.27 84.848 242.174 84.944C242.102 85.016 242.066 85.16 242.066 85.376V99.56C242.066 99.776 242.102 99.932 242.174 100.028C242.27 100.1 242.426 100.136 242.642 100.136H244.01V101H236.162V100.136H237.314C237.53 100.136 237.674 100.1 237.746 100.028C237.842 99.932 237.89 99.776 237.89 99.56V92.576H232.634V99.56C232.634 99.776 232.67 99.932 232.742 100.028C232.838 100.1 232.994 100.136 233.21 100.136H234.362V101H226.514V100.136ZM251.873 101.432C250.553 101.432 249.425 101.108 248.489 100.46C247.577 99.812 247.121 98.72 247.121 97.184C247.121 95.624 247.685 94.4 248.813 93.512C249.965 92.6 251.417 91.844 253.169 91.244L255.833 90.308V87.86C255.833 86.636 255.581 85.748 255.077 85.196C254.573 84.644 253.925 84.368 253.133 84.368C252.461 84.368 251.873 84.524 251.369 84.836C250.889 85.124 250.649 85.532 250.649 86.06C250.649 86.204 250.685 86.384 250.757 86.6C250.853 86.792 251.009 86.96 251.225 87.104C251.585 87.32 251.837 87.548 251.981 87.788C252.149 88.028 252.233 88.34 252.233 88.724C252.233 89.3 252.017 89.756 251.585 90.092C251.177 90.404 250.721 90.56 250.217 90.56C249.593 90.56 249.053 90.356 248.597 89.948C248.165 89.516 247.949 88.904 247.949 88.112C247.949 87.2 248.225 86.396 248.777 85.7C249.329 84.98 250.037 84.44 250.901 84.08C251.765 83.696 252.641 83.504 253.529 83.504C255.257 83.504 256.769 83.972 258.065 84.908C259.361 85.82 260.009 87.284 260.009 89.3V98.408C260.009 99.272 260.249 99.704 260.729 99.704C261.161 99.704 261.485 99.344 261.701 98.624C261.917 97.904 262.025 97.076 262.025 96.14H263.033C263.033 97.892 262.769 99.176 262.241 99.992C261.977 100.424 261.605 100.772 261.125 101.036C260.645 101.3 260.093 101.432 259.469 101.432C258.485 101.432 257.741 101.288 257.237 101C256.733 100.688 256.313 100.184 255.977 99.488H255.905C254.945 100.784 253.601 101.432 251.873 101.432ZM253.637 99.992C254.573 99.992 255.305 99.464 255.833 98.408V91.28L253.817 92C253.025 92.288 252.437 92.84 252.053 93.656C251.693 94.448 251.513 95.516 251.513 96.86C251.513 98.036 251.729 98.852 252.161 99.308C252.593 99.764 253.085 99.992 253.637 99.992ZM267.742 101.648C266.494 101.648 265.63 101.216 265.15 100.352C264.694 99.488 264.466 98.264 264.466 96.68H265.402C265.402 97.664 265.498 98.492 265.69 99.164C265.882 99.812 266.194 100.136 266.626 100.136C267.154 100.136 267.418 99.812 267.418 99.164V96.968C267.418 95.6 267.778 94.592 268.498 93.944C269.242 93.296 270.25 92.876 271.522 92.684V92.504C268.354 91.976 266.77 90.596 266.77 88.364C266.77 87.02 267.322 85.952 268.426 85.16C269.554 84.344 271.078 83.936 272.998 83.936H281.314V84.8H280.162C279.946 84.8 279.79 84.848 279.694 84.944C279.622 85.016 279.586 85.16 279.586 85.376V99.56C279.586 99.776 279.622 99.932 279.694 100.028C279.79 100.1 279.946 100.136 280.162 100.136H281.53V101H273.466V100.136H274.834C275.05 100.136 275.194 100.1 275.266 100.028C275.362 99.932 275.41 99.776 275.41 99.56V92.792H274.006C272.398 92.792 271.594 93.632 271.594 95.312V98.048C271.594 99.224 271.246 100.124 270.55 100.748C269.854 101.348 268.918 101.648 267.742 101.648ZM275.41 91.928V85.376C275.41 85.16 275.362 85.016 275.266 84.944C275.194 84.848 275.038 84.8 274.798 84.8H273.502C272.614 84.8 271.99 85.124 271.63 85.772C271.27 86.396 271.09 87.26 271.09 88.364C271.09 90.74 271.894 91.928 273.502 91.928H275.41ZM97.504 152.2C97.48 152.056 97.408 151.744 97.288 151.264C97.168 150.784 96.976 150.196 96.712 149.5C96.448 148.828 96.124 148.192 95.74 147.592C95.14 146.68 94.552 146.02 93.976 145.612C93.4 145.204 92.764 145 92.068 145H72.232V143.848H74.752C75.088 143.848 75.316 143.788 75.436 143.668C75.556 143.524 75.616 143.296 75.616 142.984V121.384C75.616 121.048 75.556 120.82 75.436 120.7C75.316 120.58 75.088 120.52 74.752 120.52H72.232V119.368H84.112V120.52H81.808C81.496 120.52 81.268 120.58 81.124 120.7C81.004 120.82 80.944 121.048 80.944 121.384V142.984C80.944 143.296 81.004 143.524 81.124 143.668C81.268 143.788 81.496 143.848 81.808 143.848H88.144C88.48 143.848 88.708 143.788 88.828 143.668C88.948 143.524 89.008 143.296 89.008 142.984V121.384C89.008 121.048 88.948 120.82 88.828 120.7C88.708 120.58 88.48 120.52 88.144 120.52H85.84V119.368H97.72V120.52H95.2C94.888 120.52 94.66 120.58 94.516 120.7C94.396 120.82 94.336 121.048 94.336 121.384V142.408C94.336 143.056 94.48 143.512 94.768 143.776C95.08 144.016 95.572 144.136 96.244 144.136H98.656V152.2H97.504ZM109.209 145.432C107.721 145.432 106.389 145.036 105.213 144.244C104.061 143.428 103.161 142.336 102.513 140.968C101.865 139.6 101.541 138.1 101.541 136.468C101.541 134.788 101.865 133.264 102.513 131.896C103.161 130.528 104.037 129.46 105.141 128.692C106.269 127.9 107.493 127.504 108.812 127.504C110.277 127.504 111.537 128.032 112.593 129.088C113.649 130.12 114.345 131.488 114.681 133.192C114.849 133.96 114.933 135.16 114.933 136.792H106.149C106.149 137.944 106.173 138.856 106.221 139.528C106.269 140.176 106.377 140.812 106.545 141.436C106.761 142.324 107.169 143.032 107.769 143.56C108.393 144.088 109.113 144.352 109.929 144.352C111.105 144.352 112.053 143.836 112.773 142.804C113.493 141.772 113.925 140.56 114.069 139.168H115.005C114.861 140.824 114.321 142.288 113.385 143.56C112.449 144.808 111.057 145.432 109.209 145.432ZM110.757 135.784C110.757 133.264 110.589 131.404 110.253 130.204C109.941 128.98 109.341 128.368 108.453 128.368C107.565 128.368 106.953 128.98 106.617 130.204C106.305 131.404 106.149 133.264 106.149 135.784H110.757ZM118.233 144.136H119.601C119.817 144.136 119.961 144.1 120.033 144.028C120.129 143.932 120.177 143.776 120.177 143.56V129.376C120.177 129.16 120.129 129.016 120.033 128.944C119.961 128.848 119.817 128.8 119.601 128.8H118.233V127.936H126.081V128.8H124.929C124.713 128.8 124.557 128.848 124.461 128.944C124.389 129.016 124.353 129.16 124.353 129.376V135.568H129.609V129.376C129.609 129.16 129.561 129.016 129.465 128.944C129.393 128.848 129.249 128.8 129.033 128.8H127.881V127.936H135.729V128.8H134.361C134.145 128.8 133.989 128.848 133.893 128.944C133.821 129.016 133.785 129.16 133.785 129.376V143.56C133.785 143.776 133.821 143.932 133.893 144.028C133.989 144.1 134.145 144.136 134.361 144.136H135.729V145H127.881V144.136H129.033C129.249 144.136 129.393 144.1 129.465 144.028C129.561 143.932 129.609 143.776 129.609 143.56V136.576H124.353V143.56C124.353 143.776 124.389 143.932 124.461 144.028C124.557 144.1 124.713 144.136 124.929 144.136H126.081V145H118.233V144.136ZM143.592 145.432C142.272 145.432 141.144 145.108 140.208 144.46C139.296 143.812 138.84 142.72 138.84 141.184C138.84 139.624 139.404 138.4 140.532 137.512C141.684 136.6 143.136 135.844 144.888 135.244L147.552 134.308V131.86C147.552 130.636 147.3 129.748 146.796 129.196C146.292 128.644 145.644 128.368 144.852 128.368C144.18 128.368 143.592 128.524 143.088 128.836C142.608 129.124 142.368 129.532 142.368 130.06C142.368 130.204 142.404 130.384 142.476 130.6C142.572 130.792 142.728 130.96 142.944 131.104C143.304 131.32 143.556 131.548 143.7 131.788C143.868 132.028 143.952 132.34 143.952 132.724C143.952 133.3 143.736 133.756 143.304 134.092C142.896 134.404 142.44 134.56 141.936 134.56C141.312 134.56 140.772 134.356 140.316 133.948C139.884 133.516 139.668 132.904 139.668 132.112C139.668 131.2 139.944 130.396 140.496 129.7C141.048 128.98 141.756 128.44 142.62 128.08C143.484 127.696 144.36 127.504 145.248 127.504C146.976 127.504 148.488 127.972 149.784 128.908C151.08 129.82 151.728 131.284 151.728 133.3V142.408C151.728 143.272 151.968 143.704 152.448 143.704C152.88 143.704 153.204 143.344 153.42 142.624C153.636 141.904 153.744 141.076 153.744 140.14H154.752C154.752 141.892 154.488 143.176 153.96 143.992C153.696 144.424 153.324 144.772 152.844 145.036C152.364 145.3 151.812 145.432 151.188 145.432C150.204 145.432 149.46 145.288 148.956 145C148.452 144.688 148.032 144.184 147.696 143.488H147.624C146.664 144.784 145.32 145.432 143.592 145.432ZM145.356 143.992C146.292 143.992 147.024 143.464 147.552 142.408V135.28L145.536 136C144.744 136.288 144.156 136.84 143.772 137.656C143.412 138.448 143.232 139.516 143.232 140.86C143.232 142.036 143.448 142.852 143.88 143.308C144.312 143.764 144.804 143.992 145.356 143.992ZM160.505 133.12C159.689 133.12 159.017 132.856 158.489 132.328C157.961 131.8 157.697 131.128 157.697 130.312C157.697 129.496 157.961 128.824 158.489 128.296C159.017 127.768 159.689 127.504 160.505 127.504C161.321 127.504 161.993 127.768 162.521 128.296C163.049 128.824 163.313 129.496 163.313 130.312C163.313 131.128 163.049 131.8 162.521 132.328C161.993 132.856 161.321 133.12 160.505 133.12ZM160.505 145.432C159.689 145.432 159.017 145.168 158.489 144.64C157.961 144.112 157.697 143.44 157.697 142.624C157.697 141.808 157.961 141.136 158.489 140.608C159.017 140.08 159.689 139.816 160.505 139.816C161.321 139.816 161.993 140.08 162.521 140.608C163.049 141.136 163.313 141.808 163.313 142.624C163.313 143.44 163.049 144.112 162.521 144.64C161.993 145.168 161.321 145.432 160.505 145.432ZM186.193 145.576C185.329 145.576 184.609 145.24 184.033 144.568C183.481 143.896 183.205 142.984 183.205 141.832C183.205 140.392 183.553 139.036 184.249 137.764C184.969 136.492 185.965 135.112 187.237 133.624C189.109 131.464 190.501 129.616 191.413 128.08C192.013 127.024 192.445 125.908 192.709 124.732L192.565 124.624C191.821 125.248 190.993 125.56 190.081 125.56C189.121 125.56 188.077 125.344 186.949 124.912C185.941 124.576 184.957 124.408 183.997 124.408C183.013 124.408 182.209 124.66 181.585 125.164C180.961 125.644 180.601 126.4 180.505 127.432L180.325 129.592H179.029L179.857 119.368H181.153L180.973 121.744L181.117 121.816C182.509 119.992 184.033 119.08 185.689 119.08C186.433 119.08 187.045 119.284 187.525 119.692C188.029 120.076 188.533 120.628 189.037 121.348C189.517 122.044 189.949 122.584 190.333 122.968C190.717 123.352 191.101 123.544 191.485 123.544C192.253 123.544 192.637 123.184 192.637 122.464C192.637 122.032 192.397 121.672 191.917 121.384C191.317 121.048 191.017 120.604 191.017 120.052C191.017 119.764 191.113 119.536 191.305 119.368C191.497 119.176 191.761 119.08 192.097 119.08C192.721 119.08 193.225 119.44 193.609 120.16C194.017 120.88 194.221 121.624 194.221 122.392C194.221 123.952 193.993 125.38 193.537 126.676C193.081 127.948 192.361 129.388 191.377 130.996C190.465 132.508 189.829 134.188 189.469 136.036C189.133 137.86 188.965 139.804 188.965 141.868C188.965 143.116 188.713 144.052 188.209 144.676C187.729 145.276 187.057 145.576 186.193 145.576ZM206.967 145.576C205.239 145.576 203.715 144.904 202.395 143.56C201.099 142.216 200.091 140.512 199.371 138.448C198.675 136.36 198.327 134.272 198.327 132.184C198.327 130.096 198.675 128.02 199.371 125.956C200.091 123.868 201.099 122.152 202.395 120.808C203.715 119.464 205.239 118.792 206.967 118.792C208.695 118.792 210.207 119.464 211.503 120.808C212.823 122.152 213.831 123.868 214.527 125.956C215.247 128.02 215.607 130.096 215.607 132.184C215.607 134.272 215.247 136.36 214.527 138.448C213.831 140.512 212.823 142.216 211.503 143.56C210.207 144.904 208.695 145.576 206.967 145.576ZM206.967 144.424C207.855 144.424 208.491 143.944 208.875 142.984C209.283 142 209.487 140.944 209.487 139.816V124.552C209.487 123.424 209.283 122.38 208.875 121.42C208.491 120.436 207.855 119.944 206.967 119.944C206.079 119.944 205.431 120.436 205.023 121.42C204.639 122.38 204.447 123.424 204.447 124.552V139.816C204.447 140.944 204.639 142 205.023 142.984C205.431 143.944 206.079 144.424 206.967 144.424ZM218.418 152.344H220.434C220.65 152.344 220.794 152.296 220.866 152.2C220.962 152.128 221.01 151.984 221.01 151.768V129.376C221.01 129.16 220.962 129.016 220.866 128.944C220.794 128.848 220.65 128.8 220.434 128.8H218.418V127.936H225.186V130.024H225.402C225.714 129.352 226.158 128.764 226.734 128.26C227.334 127.756 228.018 127.504 228.786 127.504C230.034 127.504 231.15 127.936 232.134 128.8C233.118 129.64 233.886 130.756 234.438 132.148C234.99 133.516 235.266 134.956 235.266 136.468C235.266 138.004 235.002 139.456 234.474 140.824C233.946 142.192 233.202 143.308 232.242 144.172C231.282 145.012 230.178 145.432 228.93 145.432C228.162 145.432 227.478 145.204 226.878 144.748C226.278 144.292 225.786 143.668 225.402 142.876L225.186 142.948V151.768C225.186 151.984 225.222 152.128 225.294 152.2C225.39 152.296 225.546 152.344 225.762 152.344H227.778V153.208H218.418V152.344ZM228.282 144.28C229.866 144.28 230.658 141.676 230.658 136.468C230.658 131.26 229.866 128.656 228.282 128.656C227.73 128.656 227.214 129.004 226.734 129.7C226.278 130.372 225.906 131.296 225.618 132.472C225.33 133.648 225.186 134.944 225.186 136.36C225.186 138.088 225.354 139.552 225.69 140.752C226.026 141.952 226.434 142.84 226.914 143.416C227.394 143.992 227.85 144.28 228.282 144.28ZM242.032 145.432C241.216 145.432 240.544 145.168 240.016 144.64C239.488 144.112 239.224 143.44 239.224 142.624C239.224 141.808 239.488 141.136 240.016 140.608C240.544 140.08 241.216 139.816 242.032 139.816C242.848 139.816 243.52 140.08 244.048 140.608C244.576 141.136 244.84 141.808 244.84 142.624C244.84 143.44 244.576 144.112 244.048 144.64C243.52 145.168 242.848 145.432 242.032 145.432Z" fill="black"/>
<rect x="7.5" y="5.5" width="463" height="235" rx="9.5" stroke="black"/>
<line x1="477.5" y1="0.997915" x2="478.518" y2="244.998" stroke="black" stroke-dasharray="2 2"/>
<path d="M19.424 21.44C19.424 19.736 20.036 18.224 21.26 16.904C22.484 15.584 24.08 14.552 26.048 13.808C28.04 13.088 30.128 12.728 32.312 12.728C34.496 12.728 36.572 13.088 38.54 13.808C40.532 14.552 42.14 15.584 43.364 16.904C44.588 18.224 45.2 19.736 45.2 21.44C45.2 23.12 44.588 24.62 43.364 25.94C42.14 27.284 40.532 28.316 38.54 29.036C36.572 29.78 34.496 30.152 32.312 30.152C30.128 30.152 28.04 29.78 26.048 29.036C24.08 28.316 22.484 27.284 21.26 25.94C20.036 24.62 19.424 23.12 19.424 21.44ZM20.576 21.44C20.576 23.432 21.704 24.74 23.96 25.364C26.216 26.012 29 26.336 32.312 26.336C35.624 26.336 38.408 26.012 40.664 25.364C42.92 24.74 44.048 23.432 44.048 21.44C44.048 19.448 42.92 18.128 40.664 17.48C38.432 16.856 35.648 16.544 32.312 16.544C28.976 16.544 26.18 16.856 23.924 17.48C21.692 18.128 20.576 19.448 20.576 21.44ZM19.424 40.7748C19.424 39.0708 20 37.6908 21.152 36.6348C21.584 36.2748 22.064 36.0108 22.592 35.8428C23.12 35.6988 23.588 35.6268 23.996 35.6268C24.836 35.6268 25.52 35.9268 26.048 36.5268C26.408 36.9588 26.588 37.4508 26.588 38.0028C26.588 38.5548 26.372 38.9868 25.94 39.2988C25.772 39.4188 25.616 39.4908 25.472 39.5148C25.328 39.5628 25.136 39.5868 24.896 39.5868C24.536 39.5868 24.176 39.4308 23.816 39.1188C23.576 38.9028 23.372 38.6748 23.204 38.4348C23.06 38.2188 22.904 38.0628 22.736 37.9668C22.592 37.8948 22.412 37.8588 22.196 37.8588C21.764 37.8588 21.38 38.0988 21.044 38.5788C20.732 39.0828 20.576 39.8388 20.576 40.8468C20.576 41.7108 20.828 42.5268 21.332 43.2948C21.836 44.0868 22.676 44.7468 23.852 45.2748C24.74 45.6828 25.856 45.9948 27.2 46.2108C28.568 46.4268 29.696 46.5348 30.584 46.5348L32.204 46.5348L32.312 46.2828C31.4 45.8508 30.644 45.1788 30.044 44.2668C29.468 43.3788 29.18 42.5148 29.18 41.6748C29.18 40.0668 29.576 38.7108 30.368 37.6068C31.04 36.6708 31.94 35.9508 33.068 35.4468C34.22 34.9428 35.444 34.6908 36.74 34.6908C38.036 34.6908 39.332 34.9788 40.628 35.5548C41.948 36.1308 43.04 36.9708 43.904 38.0748C44.768 39.2028 45.2 40.5228 45.2 42.0348C45.2 43.5948 44.72 44.9628 43.76 46.1388C42.8 47.3388 41.42 48.2628 39.62 48.9108C37.844 49.5588 35.744 49.8828 33.32 49.8828C31.352 49.8828 29.42 49.6308 27.524 49.1268C25.628 48.6228 24.056 47.8908 22.808 46.9308C20.552 45.1788 19.424 43.1268 19.424 40.7748ZM30.512 41.6028C30.512 42.4428 30.788 43.1988 31.34 43.8708C31.892 44.5428 32.672 45.0708 33.68 45.4548C34.712 45.8628 35.888 46.0668 37.208 46.0668C39.2 46.0668 40.832 45.7548 42.104 45.1308C43.4 44.5068 44.048 43.4748 44.048 42.0348C44.048 40.5708 43.352 39.5028 41.96 38.8308C40.568 38.1828 38.984 37.8588 37.208 37.8588C35.288 37.8588 33.692 38.1468 32.42 38.7228C31.148 39.2988 30.512 40.2588 30.512 41.6028ZM21.152 57.0856L21.152 60.5416C21.152 60.9016 21.224 61.1536 21.368 61.2976C21.512 61.4656 21.752 61.5496 22.088 61.5496L39.764 61.5496L39.764 57.0856L41.06 57.0856L41.06 59.0656C41.06 60.3616 41.408 61.4056 42.104 62.1976C42.8 63.0136 43.64 63.5176 44.624 63.7096L44.624 64.8616L22.088 64.8616C21.752 64.8616 21.512 64.9336 21.368 65.0776C21.224 65.2456 21.152 65.5096 21.152 65.8696L21.152 69.3256L20 69.3256L20 57.0856L21.152 57.0856ZM19.424 84.0884C19.424 82.3844 20.036 80.8724 21.26 79.5524C22.484 78.2324 24.08 77.2004 26.048 76.4564C28.04 75.7364 30.128 75.3764 32.312 75.3764C34.496 75.3764 36.572 75.7364 38.54 76.4564C40.532 77.2004 42.14 78.2324 43.364 79.5524C44.588 80.8724 45.2 82.3844 45.2 84.0884C45.2 85.7684 44.588 87.2684 43.364 88.5884C42.14 89.9324 40.532 90.9644 38.54 91.6844C36.572 92.4284 34.496 92.8004 32.312 92.8004C30.128 92.8004 28.04 92.4284 26.048 91.6844C24.08 90.9644 22.484 89.9324 21.26 88.5884C20.036 87.2684 19.424 85.7684 19.424 84.0884ZM20.576 84.0884C20.576 86.0804 21.704 87.3884 23.96 88.0124C26.216 88.6604 29 88.9844 32.312 88.9844C35.624 88.9844 38.408 88.6604 40.664 88.0124C42.92 87.3884 44.048 86.0804 44.048 84.0884C44.048 82.0964 42.92 80.7764 40.664 80.1284C38.432 79.5044 35.648 79.1924 32.312 79.1924C28.976 79.1924 26.18 79.5044 23.924 80.1284C21.692 80.7764 20.576 82.0964 20.576 84.0884ZM20 97.5192C21.32 97.5192 22.628 97.7712 23.924 98.2752C25.22 98.7792 26.612 99.9072 28.1 101.659L31.052 105.115C31.988 106.243 33.02 107.095 34.148 107.671C35.276 108.271 36.572 108.571 38.036 108.571C39.908 108.571 41.348 108.115 42.356 107.203C43.388 106.291 43.904 104.995 43.904 103.315C43.904 102.547 43.724 101.803 43.364 101.083C43.004 100.387 42.524 99.8112 41.924 99.3552C41.348 98.9232 40.748 98.7072 40.124 98.7072C39.548 98.7072 39.116 98.8392 38.828 99.1032C38.564 99.3672 38.396 99.7272 38.324 100.183C38.204 100.951 37.94 101.515 37.532 101.875C37.148 102.259 36.68 102.451 36.128 102.451C35.672 102.451 35.288 102.283 34.976 101.947C34.664 101.635 34.508 101.191 34.508 100.615C34.508 99.6312 34.892 98.8152 35.66 98.1672C36.452 97.5192 37.484 97.1952 38.756 97.1952C39.98 97.1952 41.084 97.4952 42.068 98.0952C43.052 98.7192 43.82 99.5712 44.372 100.651C44.924 101.755 45.2 102.979 45.2 104.323C45.2 105.859 44.912 107.239 44.336 108.463C43.76 109.687 42.932 110.647 41.852 111.343C40.772 112.039 39.5 112.387 38.036 112.387C36.572 112.387 35.252 111.871 34.076 110.839C32.9 109.807 31.712 108.451 30.512 106.771L27.776 103.243C27.08 102.235 26.408 101.455 25.76 100.903C25.136 100.375 24.488 100.111 23.816 100.111C23.24 100.111 22.952 100.483 22.952 101.227L22.952 108.031C22.952 108.991 23.156 109.663 23.564 110.047C23.996 110.455 24.596 110.731 25.364 110.875L27.488 111.271L27.488 112.063L20 111.559L20 97.5192ZM19.424 125.854C19.424 124.15 20.036 122.638 21.26 121.318C22.484 119.998 24.08 118.966 26.048 118.222C28.04 117.502 30.128 117.142 32.312 117.142C34.496 117.142 36.572 117.502 38.54 118.222C40.532 118.966 42.14 119.998 43.364 121.318C44.588 122.638 45.2 124.15 45.2 125.854C45.2 127.534 44.588 129.034 43.364 130.354C42.14 131.698 40.532 132.73 38.54 133.45C36.572 134.194 34.496 134.566 32.312 134.566C30.128 134.566 28.04 134.194 26.048 133.45C24.08 132.73 22.484 131.698 21.26 130.354C20.036 129.034 19.424 127.534 19.424 125.854ZM20.576 125.854C20.576 127.846 21.704 129.154 23.96 129.778C26.216 130.426 29 130.75 32.312 130.75C35.624 130.75 38.408 130.426 40.664 129.778C42.92 129.154 44.048 127.846 44.048 125.854C44.048 123.862 42.92 122.542 40.664 121.894C38.432 121.27 35.648 120.958 32.312 120.958C28.976 120.958 26.18 121.27 23.924 121.894C21.692 122.542 20.576 123.862 20.576 125.854ZM20 139.285C21.32 139.285 22.628 139.537 23.924 140.041C25.22 140.545 26.612 141.673 28.1 143.425L31.052 146.881C31.988 148.009 33.02 148.861 34.148 149.437C35.276 150.037 36.572 150.337 38.036 150.337C39.908 150.337 41.348 149.881 42.356 148.969C43.388 148.057 43.904 146.761 43.904 145.081C43.904 144.313 43.724 143.569 43.364 142.849C43.004 142.153 42.524 141.577 41.924 141.121C41.348 140.689 40.748 140.473 40.124 140.473C39.548 140.473 39.116 140.605 38.828 140.869C38.564 141.133 38.396 141.493 38.324 141.949C38.204 142.717 37.94 143.281 37.532 143.641C37.148 144.025 36.68 144.217 36.128 144.217C35.672 144.217 35.288 144.049 34.976 143.713C34.664 143.401 34.508 142.957 34.508 142.381C34.508 141.397 34.892 140.581 35.66 139.933C36.452 139.285 37.484 138.961 38.756 138.961C39.98 138.961 41.084 139.261 42.068 139.861C43.052 140.485 43.82 141.337 44.372 142.417C44.924 143.521 45.2 144.745 45.2 146.089C45.2 147.625 44.912 149.005 44.336 150.229C43.76 151.453 42.932 152.413 41.852 153.109C40.772 153.805 39.5 154.153 38.036 154.153C36.572 154.153 35.252 153.637 34.076 152.605C32.9 151.573 31.712 150.217 30.512 148.537L27.776 145.009C27.08 144.001 26.408 143.221 25.76 142.669C25.136 142.141 24.488 141.877 23.816 141.877C23.24 141.877 22.952 142.249 22.952 142.993L22.952 149.797C22.952 150.757 23.156 151.429 23.564 151.813C23.996 152.221 24.596 152.497 25.364 152.641L27.488 153.037L27.488 153.829L20 153.325L20 139.285ZM21.152 161.5L21.152 164.956C21.152 165.316 21.224 165.568 21.368 165.712C21.512 165.88 21.752 165.964 22.088 165.964L39.764 165.964L39.764 161.5L41.06 161.5L41.06 163.48C41.06 164.776 41.408 165.82 42.104 166.612C42.8 167.428 43.64 167.932 44.624 168.124L44.624 169.276L22.088 169.276C21.752 169.276 21.512 169.348 21.368 169.492C21.224 169.66 21.152 169.924 21.152 170.284L21.152 173.74L20 173.74L20 161.5L21.152 161.5ZM19.424 188.502C19.424 186.798 20.036 185.286 21.26 183.966C22.484 182.646 24.08 181.614 26.048 180.87C28.04 180.15 30.128 179.79 32.312 179.79C34.496 179.79 36.572 180.15 38.54 180.87C40.532 181.614 42.14 182.646 43.364 183.966C44.588 185.287 45.2 186.799 45.2 188.503C45.2 190.183 44.588 191.683 43.364 193.003C42.14 194.347 40.532 195.379 38.54 196.099C36.572 196.843 34.496 197.214 32.312 197.214C30.128 197.214 28.04 196.842 26.048 196.099C24.08 195.378 22.484 194.346 21.26 193.002C20.036 191.682 19.424 190.182 19.424 188.502ZM20.576 188.502C20.576 190.494 21.704 191.802 23.96 192.426C26.216 193.074 29 193.399 32.312 193.399C35.624 193.399 38.408 193.075 40.664 192.427C42.92 191.803 44.048 190.495 44.048 188.503C44.048 186.511 42.92 185.191 40.664 184.542C38.432 183.918 35.648 183.606 32.312 183.606C28.976 183.606 26.18 183.918 23.924 184.542C21.692 185.19 20.576 186.51 20.576 188.502ZM19.424 209.385C19.424 207.681 20.036 206.169 21.26 204.849C22.484 203.529 24.08 202.497 26.048 201.753C28.04 201.033 30.128 200.673 32.312 200.673C34.496 200.673 36.572 201.033 38.54 201.753C40.532 202.497 42.14 203.529 43.364 204.849C44.588 206.169 45.2 207.681 45.2 209.385C45.2 211.065 44.588 212.565 43.364 213.885C42.14 215.229 40.532 216.261 38.54 216.981C36.572 217.725 34.496 218.097 32.312 218.097C30.128 218.097 28.04 217.725 26.048 216.981C24.08 216.261 22.484 215.229 21.26 213.885C20.036 212.565 19.424 211.065 19.424 209.385ZM20.576 209.385C20.576 211.377 21.704 212.685 23.96 213.309C26.216 213.957 29 214.281 32.312 214.281C35.624 214.281 38.408 213.957 40.664 213.309C42.92 212.685 44.048 211.377 44.048 209.385C44.048 207.393 42.92 206.073 40.664 205.425C38.432 204.801 35.648 204.489 32.312 204.489C28.976 204.489 26.18 204.801 23.924 205.425C21.692 206.073 20.576 207.393 20.576 209.385ZM21.152 224.148L21.152 227.604C21.152 227.964 21.224 228.216 21.368 228.36C21.512 228.528 21.752 228.612 22.088 228.612L39.764 228.612L39.764 224.148L41.06 224.148L41.06 226.128C41.06 227.424 41.408 228.468 42.104 229.26C42.8 230.076 43.64 230.58 44.624 230.772L44.624 231.924L22.088 231.924C21.752 231.924 21.512 231.996 21.368 232.14C21.224 232.308 21.152 232.572 21.152 232.932L21.152 236.388L20 236.388L20 224.148L21.152 224.148Z" fill="black"/>
<line x1="61.5" y1="5.00212" x2="60.5" y2="241.002" stroke="black"/>
<line x1="484" y1="15" x2="587" y2="15" stroke="black" stroke-width="10"/>
<line x1="484" y1="87" x2="587" y2="87" stroke="black" stroke-width="10"/>
<line x1="484" y1="30.5" x2="587" y2="30.5" stroke="black" stroke-width="15"/>
<line x1="484" y1="102.5" x2="587" y2="102.5" stroke="black" stroke-width="15"/>
<line x1="484" y1="151.5" x2="587" y2="151.5" stroke="black" stroke-width="15"/>
<line x1="484" y1="48" x2="587" y2="48" stroke="black" stroke-width="6"/>
<line x1="484" y1="120" x2="587" y2="120" stroke="black" stroke-width="6"/>
<line x1="484" y1="169" x2="587" y2="169" stroke="black" stroke-width="6"/>
<line x1="484" y1="211" x2="587" y2="211" stroke="black" stroke-width="6"/>
<line x1="484" y1="222" x2="587" y2="222" stroke="black" stroke-width="6"/>
<line x1="484" y1="233" x2="587" y2="233" stroke="black" stroke-width="6"/>
<line x1="484" y1="70" x2="587" y2="70" stroke="black" stroke-width="20"/>
<line x1="484" y1="142" x2="587" y2="142" stroke="black" stroke-width="20"/>
<line x1="484" y1="190" x2="587" y2="190" stroke="black" stroke-width="20"/>
<path d="M74.788 210.616H74.608V219.832C74.608 220.576 74.812 221.152 75.22 221.56C75.628 221.944 76.192 222.136 76.912 222.136V223H71.296V222.136C72.016 222.136 72.58 221.944 72.988 221.56C73.396 221.152 73.6 220.576 73.6 219.832V207.376C73.6 207.16 73.552 207.016 73.456 206.944C73.384 206.848 73.24 206.8 73.024 206.8H71.296V205.936H77.236L81.808 217.276L85.228 205.936H91.636V206.8H90.268C90.052 206.8 89.896 206.848 89.8 206.944C89.728 207.016 89.692 207.16 89.692 207.376V221.56C89.692 221.776 89.728 221.932 89.8 222.028C89.896 222.1 90.052 222.136 90.268 222.136H91.636V223H83.572V222.136H84.94C85.156 222.136 85.3 222.1 85.372 222.028C85.468 221.932 85.516 221.776 85.516 221.56V208.528L81.052 223.324H79.9L74.788 210.616ZM99.4705 223.432C98.1505 223.432 97.0225 223.108 96.0865 222.46C95.1745 221.812 94.7185 220.72 94.7185 219.184C94.7185 217.624 95.2825 216.4 96.4105 215.512C97.5625 214.6 99.0145 213.844 100.767 213.244L103.431 212.308V209.86C103.431 208.636 103.179 207.748 102.675 207.196C102.171 206.644 101.523 206.368 100.731 206.368C100.059 206.368 99.4705 206.524 98.9665 206.836C98.4865 207.124 98.2465 207.532 98.2465 208.06C98.2465 208.204 98.2825 208.384 98.3545 208.6C98.4505 208.792 98.6065 208.96 98.8225 209.104C99.1825 209.32 99.4345 209.548 99.5785 209.788C99.7465 210.028 99.8305 210.34 99.8305 210.724C99.8305 211.3 99.6145 211.756 99.1825 212.092C98.7745 212.404 98.3185 212.56 97.8145 212.56C97.1905 212.56 96.6505 212.356 96.1945 211.948C95.7625 211.516 95.5465 210.904 95.5465 210.112C95.5465 209.2 95.8225 208.396 96.3745 207.7C96.9265 206.98 97.6345 206.44 98.4985 206.08C99.3625 205.696 100.239 205.504 101.127 205.504C102.855 205.504 104.367 205.972 105.663 206.908C106.959 207.82 107.607 209.284 107.607 211.3V220.408C107.607 221.272 107.847 221.704 108.327 221.704C108.759 221.704 109.083 221.344 109.299 220.624C109.515 219.904 109.623 219.076 109.623 218.14H110.631C110.631 219.892 110.367 221.176 109.839 221.992C109.575 222.424 109.203 222.772 108.723 223.036C108.243 223.3 107.691 223.432 107.067 223.432C106.083 223.432 105.339 223.288 104.835 223C104.331 222.688 103.911 222.184 103.575 221.488H103.503C102.543 222.784 101.199 223.432 99.4705 223.432ZM101.235 221.992C102.171 221.992 102.903 221.464 103.431 220.408V213.28L101.415 214C100.623 214.288 100.035 214.84 99.6505 215.656C99.2905 216.448 99.1105 217.516 99.1105 218.86C99.1105 220.036 99.3265 220.852 99.7585 221.308C100.191 221.764 100.683 221.992 101.235 221.992ZM112.352 230.344H114.368C114.584 230.344 114.728 230.296 114.8 230.2C114.896 230.128 114.944 229.984 114.944 229.768V207.376C114.944 207.16 114.896 207.016 114.8 206.944C114.728 206.848 114.584 206.8 114.368 206.8H112.352V205.936H119.12V208.024H119.336C119.648 207.352 120.092 206.764 120.668 206.26C121.268 205.756 121.952 205.504 122.72 205.504C123.968 205.504 125.084 205.936 126.068 206.8C127.052 207.64 127.82 208.756 128.372 210.148C128.924 211.516 129.2 212.956 129.2 214.468C129.2 216.004 128.936 217.456 128.408 218.824C127.88 220.192 127.136 221.308 126.176 222.172C125.216 223.012 124.112 223.432 122.864 223.432C122.096 223.432 121.412 223.204 120.812 222.748C120.212 222.292 119.72 221.668 119.336 220.876L119.12 220.948V229.768C119.12 229.984 119.156 230.128 119.228 230.2C119.324 230.296 119.48 230.344 119.696 230.344H121.712V231.208H112.352V230.344ZM122.216 222.28C123.8 222.28 124.592 219.676 124.592 214.468C124.592 209.26 123.8 206.656 122.216 206.656C121.664 206.656 121.148 207.004 120.668 207.7C120.212 208.372 119.84 209.296 119.552 210.472C119.264 211.648 119.12 212.944 119.12 214.36C119.12 216.088 119.288 217.552 119.624 218.752C119.96 219.952 120.368 220.84 120.848 221.416C121.328 221.992 121.784 222.28 122.216 222.28ZM132.366 222.136H133.734C133.95 222.136 134.094 222.1 134.166 222.028C134.262 221.932 134.31 221.776 134.31 221.56V207.376C134.31 207.16 134.262 207.016 134.166 206.944C134.094 206.848 133.95 206.8 133.734 206.8H132.366V205.936H140.214V206.8H139.062C138.846 206.8 138.69 206.848 138.594 206.944C138.522 207.016 138.486 207.16 138.486 207.376V221.56C138.486 221.776 138.522 221.932 138.594 222.028C138.69 222.1 138.846 222.136 139.062 222.136H142.662C142.878 222.136 143.022 222.1 143.094 222.028C143.19 221.932 143.238 221.776 143.238 221.56V207.376C143.238 207.16 143.19 207.016 143.094 206.944C143.022 206.848 142.878 206.8 142.662 206.8H141.51V205.936H149.142V206.8H147.99C147.774 206.8 147.618 206.848 147.522 206.944C147.45 207.016 147.414 207.16 147.414 207.376V221.56C147.414 221.776 147.45 221.932 147.522 222.028C147.618 222.1 147.774 222.136 147.99 222.136H151.59C151.806 222.136 151.95 222.1 152.022 222.028C152.118 221.932 152.166 221.776 152.166 221.56V207.376C152.166 207.16 152.118 207.016 152.022 206.944C151.95 206.848 151.806 206.8 151.59 206.8H150.438V205.936H158.286V206.8H156.918C156.702 206.8 156.546 206.848 156.45 206.944C156.378 207.016 156.342 207.16 156.342 207.376V221.56C156.342 221.776 156.378 221.932 156.45 222.028C156.546 222.1 156.702 222.136 156.918 222.136H158.286V223H132.366V222.136ZM160.727 230.344H162.743C162.959 230.344 163.103 230.296 163.175 230.2C163.271 230.128 163.319 229.984 163.319 229.768V207.376C163.319 207.16 163.271 207.016 163.175 206.944C163.103 206.848 162.959 206.8 162.743 206.8H160.727V205.936L167.495 205.936V208.024H167.711C168.023 207.352 168.467 206.764 169.043 206.26C169.643 205.756 170.327 205.504 171.095 205.504C172.343 205.504 173.459 205.936 174.443 206.8C175.427 207.64 176.195 208.756 176.747 210.148C177.299 211.516 177.575 212.956 177.575 214.468C177.575 216.004 177.311 217.456 176.783 218.824C176.255 220.192 175.511 221.308 174.551 222.172C173.591 223.012 172.487 223.432 171.239 223.432C170.471 223.432 169.787 223.204 169.187 222.748C168.587 222.292 168.095 221.668 167.711 220.876L167.495 220.948V229.768C167.495 229.984 167.531 230.128 167.603 230.2C167.699 230.296 167.855 230.344 168.071 230.344H170.087V231.208H160.727V230.344ZM170.591 222.28C172.175 222.28 172.967 219.676 172.967 214.468C172.967 209.26 172.175 206.656 170.591 206.656C170.039 206.656 169.523 207.004 169.043 207.7C168.587 208.372 168.215 209.296 167.927 210.472C167.639 211.648 167.495 212.944 167.495 214.36C167.495 216.088 167.663 217.552 167.999 218.752C168.335 219.952 168.743 220.84 169.223 221.416C169.703 221.992 170.159 222.28 170.591 222.28ZM184.737 231.568C183.753 231.568 182.961 231.256 182.361 230.632C181.761 230.032 181.461 229.252 181.461 228.292C181.461 227.5 181.713 226.804 182.217 226.204C182.721 225.604 183.357 225.304 184.125 225.304C184.701 225.304 185.169 225.472 185.529 225.808C185.913 226.168 186.105 226.6 186.105 227.104C186.105 227.416 186.033 227.704 185.889 227.968C185.769 228.232 185.613 228.448 185.421 228.616C185.085 228.904 184.917 229.216 184.917 229.552C184.917 229.768 184.977 229.96 185.097 230.128C185.241 230.32 185.457 230.416 185.745 230.416C186.153 230.416 186.489 230.164 186.753 229.66C187.041 229.156 187.305 228.52 187.545 227.752L188.733 223.792L182.505 208.888C182.169 208.096 181.857 207.556 181.569 207.268C181.305 206.956 180.873 206.8 180.273 206.8H179.733V205.936H188.553V206.8H187.509C187.293 206.8 187.089 206.884 186.897 207.052C186.729 207.22 186.645 207.448 186.645 207.736C186.645 208 186.729 208.336 186.897 208.744L190.605 217.636L192.945 209.752C193.113 209.08 193.197 208.552 193.197 208.168C193.197 207.808 193.101 207.496 192.909 207.232C192.717 206.944 192.441 206.8 192.081 206.8H191.145V205.936H197.085V206.8H196.293C195.861 206.8 195.441 206.992 195.033 207.376C194.649 207.736 194.349 208.288 194.133 209.032L188.661 227.212C187.821 230.116 186.513 231.568 184.737 231.568ZM202.212 222.136H204.228C204.444 222.136 204.588 222.1 204.66 222.028C204.756 221.932 204.804 221.776 204.804 221.56V207.376C204.804 207.136 204.756 206.98 204.66 206.908C204.588 206.836 204.444 206.8 204.228 206.8C203.7 206.8 203.184 207.1 202.68 207.7C202.2 208.276 201.804 208.948 201.492 209.716C201.156 210.532 200.904 211.252 200.736 211.876C200.592 212.5 200.508 212.896 200.484 213.064H199.476L199.692 205.936H214.092L214.308 213.064H213.3C213.276 212.896 213.18 212.5 213.012 211.876C212.868 211.252 212.628 210.532 212.292 209.716C211.98 208.948 211.572 208.276 211.068 207.7C210.588 207.1 210.084 206.8 209.556 206.8C209.34 206.8 209.184 206.836 209.088 206.908C209.016 206.98 208.98 207.136 208.98 207.376V221.56C208.98 221.776 209.016 221.932 209.088 222.028C209.184 222.1 209.34 222.136 209.556 222.136H211.572V223H202.212V222.136ZM221.053 223.648C219.901 223.648 218.941 223.3 218.173 222.604C217.429 221.884 217.057 221.02 217.057 220.012C217.057 219.028 217.369 218.212 217.993 217.564C218.617 216.892 219.337 216.556 220.153 216.556C220.921 216.556 221.533 216.784 221.989 217.24C222.445 217.672 222.673 218.224 222.673 218.896C222.673 219.256 222.565 219.628 222.349 220.012C222.181 220.324 222.097 220.576 222.097 220.768C222.097 221.152 222.313 221.344 222.745 221.344C223.105 221.344 223.393 221.164 223.609 220.804C223.849 220.444 223.969 219.88 223.969 219.112V202.624C223.969 202.072 223.849 201.592 223.609 201.184L222.421 199.06C222.181 198.652 221.749 198.448 221.125 198.448H217.921V197.368H227.497L236.425 213.1V201.76C236.425 200.296 236.761 199.108 237.433 198.196C238.105 197.26 239.173 196.792 240.637 196.792C241.789 196.792 242.737 197.152 243.481 197.872C244.249 198.568 244.633 199.42 244.633 200.428C244.633 201.412 244.321 202.24 243.697 202.912C243.073 203.56 242.353 203.884 241.537 203.884C240.769 203.884 240.157 203.668 239.701 203.236C239.245 202.78 239.017 202.216 239.017 201.544C239.017 201.184 239.125 200.812 239.341 200.428C239.509 200.116 239.593 199.864 239.593 199.672C239.593 199.288 239.377 199.096 238.945 199.096C238.585 199.096 238.285 199.276 238.045 199.636C237.829 199.996 237.721 200.56 237.721 201.328V223.648H236.353L225.481 204.46H225.265V218.68C225.265 220.144 224.929 221.344 224.257 222.28C223.585 223.192 222.517 223.648 221.053 223.648ZM244.489 218.536C242.881 218.536 241.585 217.9 240.601 216.628C239.641 215.332 239.161 213.736 239.161 211.84C239.161 209.944 239.641 208.36 240.601 207.088C241.585 205.792 242.881 205.144 244.489 205.144C246.097 205.144 247.381 205.792 248.341 207.088C249.325 208.36 249.817 209.944 249.817 211.84C249.817 213.736 249.325 215.332 248.341 216.628C247.381 217.9 246.097 218.536 244.489 218.536ZM244.489 217.672C245.065 217.672 245.485 217.384 245.749 216.808C246.013 216.232 246.145 215.608 246.145 214.936V208.744C246.145 208.072 246.013 207.448 245.749 206.872C245.485 206.296 245.065 206.008 244.489 206.008C243.913 206.008 243.493 206.296 243.229 206.872C242.965 207.448 242.833 208.072 242.833 208.744V214.936C242.833 215.608 242.965 216.232 243.229 216.808C243.493 217.384 243.913 217.672 244.489 217.672ZM239.593 223V220.408H249.385V223H239.593ZM263.366 223.576C262.238 223.576 261.266 223.348 260.45 222.892C259.634 222.412 259.01 221.8 258.578 221.056C258.17 220.312 257.966 219.52 257.966 218.68C257.966 217.648 258.266 216.772 258.866 216.052C259.466 215.332 260.246 214.972 261.206 214.972C261.926 214.972 262.502 215.2 262.934 215.656C263.39 216.088 263.618 216.664 263.618 217.384C263.618 218.488 263.078 219.232 261.998 219.616C261.518 219.784 261.158 219.952 260.918 220.12C260.678 220.288 260.558 220.504 260.558 220.768C260.558 221.248 260.81 221.644 261.314 221.956C261.818 222.268 262.514 222.424 263.402 222.424C264.746 222.424 265.73 221.848 266.354 220.696C267.002 219.544 267.326 218.164 267.326 216.556V211.408L267.11 211.3C266.726 211.684 266.222 211.984 265.598 212.2C264.974 212.392 264.314 212.488 263.618 212.488C261.218 212.488 259.418 211.78 258.218 210.364C257.042 208.948 256.454 207.136 256.454 204.928C256.454 203.56 256.73 202.264 257.282 201.04C257.858 199.792 258.734 198.772 259.91 197.98C261.11 197.188 262.598 196.792 264.374 196.792C266.15 196.792 267.686 197.368 268.982 198.52C270.302 199.672 271.31 201.22 272.006 203.164C272.726 205.108 273.086 207.244 273.086 209.572C273.086 212.332 272.69 214.768 271.898 216.88C271.13 218.992 270.014 220.636 268.55 221.812C267.086 222.988 265.358 223.576 263.366 223.576ZM264.086 211.12C265.382 211.12 266.27 210.616 266.75 209.608C266.99 209.152 267.146 208.516 267.218 207.7C267.29 206.884 267.326 205.78 267.326 204.388C267.326 202.204 267.098 200.584 266.642 199.528C266.186 198.472 265.442 197.944 264.41 197.944C263.594 197.944 262.994 198.232 262.61 198.808C262.25 199.36 262.022 200.08 261.926 200.968C261.83 201.832 261.782 203.032 261.782 204.568C261.782 206.512 261.938 208.096 262.25 209.32C262.586 210.52 263.198 211.12 264.086 211.12ZM279.281 221.848H281.873C282.209 221.848 282.437 221.788 282.557 221.668C282.677 221.524 282.737 221.296 282.737 220.984V201.292H279.281V199.996H280.613C281.669 199.996 282.641 199.768 283.529 199.312C284.441 198.856 285.053 198.208 285.365 197.368H288.065V220.984C288.065 221.296 288.125 221.524 288.245 221.668C288.389 221.788 288.617 221.848 288.929 221.848H291.521V223H279.281V221.848Z" fill="black"/>
</svg>
